<svg xmlns="http://www.w3.org/2000/svg" xmlns:xlink="http://www.w3.org/1999/xlink" contentStyleType="text/css" height="1767px" preserveAspectRatio="none" style="width:2964px;height:1767px;background:#FFFFFF;" version="1.1" viewBox="0 0 2964 1767" width="2964px" zoomAndPan="magnify"><defs/><g><rect fill="#F1F1F1" height="36.2969" rx="12.5" ry="12.5" style="stroke:#181818;stroke-width:1.5;" width="119.7363" x="1598.8906" y="864.4531"/><text fill="#000000" font-family="sans-serif" font-size="14" lengthAdjust="spacing" textLength="99.7363" x="1608.8906" y="887.4482">Pet World App</text><rect fill="#F1F1F1" height="36.2969" rx="12.5" ry="12.5" style="stroke:#181818;stroke-width:1.5;" width="147.2783" x="1768.627" y="864.4531"/><text fill="#000000" font-family="sans-serif" font-size="14" lengthAdjust="spacing" textLength="127.2783" x="1778.627" y="887.4482">Unregistered User</text><rect fill="#F1F1F1" height="36.2969" rx="12.5" ry="12.5" style="stroke:#181818;stroke-width:1.5;" width="108.1699" x="1965.9053" y="160.7422"/><text fill="#000000" font-family="sans-serif" font-size="14" lengthAdjust="spacing" textLength="88.1699" x="1975.9053" y="183.7373">Regisntation</text><rect fill="#F1F1F1" height="36.2969" rx="12.5" ry="12.5" style="stroke:#181818;stroke-width:1.5;" width="140.7637" x="2124.0752" y="160.7422"/><text fill="#000000" font-family="sans-serif" font-size="14" lengthAdjust="spacing" textLength="120.7637" x="2134.0752" y="183.7373">Account Creation</text><rect fill="#F1F1F1" height="36.2969" rx="12.5" ry="12.5" style="stroke:#181818;stroke-width:1.5;" width="145.1523" x="2314.8389" y="76.2969"/><text fill="#000000" font-family="sans-serif" font-size="14" lengthAdjust="spacing" textLength="125.1523" x="2324.8389" y="99.292">Name + Surname</text><path d="M2264.8389,178.8906 L2274.8389,178.8906 C2289.8389,178.8906 2289.8389,94.4453 2304.8389,94.4453 L2314.8389,94.4453 " fill="none" style="stroke:#181818;stroke-width:1.0;"/><rect fill="#F1F1F1" height="36.2969" rx="12.5" ry="12.5" style="stroke:#181818;stroke-width:1.5;" width="58.8418" x="2314.8389" y="132.5938"/><text fill="#000000" font-family="sans-serif" font-size="14" lengthAdjust="spacing" textLength="38.8418" x="2324.8389" y="155.5889">Email</text><path d="M2264.8389,178.8906 L2274.8389,178.8906 C2289.8389,178.8906 2289.8389,150.7422 2304.8389,150.7422 L2314.8389,150.7422 " fill="none" style="stroke:#181818;stroke-width:1.0;"/><rect fill="#F1F1F1" height="36.2969" rx="12.5" ry="12.5" style="stroke:#181818;stroke-width:1.5;" width="86.2676" x="2314.8389" y="188.8906"/><text fill="#000000" font-family="sans-serif" font-size="14" lengthAdjust="spacing" textLength="66.2676" x="2324.8389" y="211.8857">Password</text><path d="M2264.8389,178.8906 L2274.8389,178.8906 C2289.8389,178.8906 2289.8389,207.0391 2304.8389,207.0391 L2314.8389,207.0391 " fill="none" style="stroke:#181818;stroke-width:1.0;"/><rect fill="#F1F1F1" height="36.2969" rx="12.5" ry="12.5" style="stroke:#181818;stroke-width:1.5;" width="75.5693" x="2314.8389" y="245.1875"/><text fill="#000000" font-family="sans-serif" font-size="14" lengthAdjust="spacing" textLength="55.5693" x="2324.8389" y="268.1826">Locaton</text><path d="M2264.8389,178.8906 L2274.8389,178.8906 C2289.8389,178.8906 2289.8389,263.3359 2304.8389,263.3359 L2314.8389,263.3359 " fill="none" style="stroke:#181818;stroke-width:1.0;"/><path d="M2074.0752,178.8906 L2084.0752,178.8906 C2099.0752,178.8906 2099.0752,178.8906 2114.0752,178.8906 L2124.0752,178.8906 " fill="none" style="stroke:#181818;stroke-width:1.0;"/><path d="M1915.9053,882.6016 L1925.9053,882.6016 C1940.9053,882.6016 1940.9053,178.8906 1955.9053,178.8906 L1965.9053,178.8906 " fill="none" style="stroke:#181818;stroke-width:1.0;"/><rect fill="#F1F1F1" height="36.2969" rx="12.5" ry="12.5" style="stroke:#181818;stroke-width:1.5;" width="153.9229" x="1965.9053" y="920.75"/><text fill="#000000" font-family="sans-serif" font-size="14" lengthAdjust="spacing" textLength="133.9229" x="1975.9053" y="943.7451">Search Functionaly</text><rect fill="#F1F1F1" height="36.2969" rx="12.5" ry="12.5" style="stroke:#181818;stroke-width:1.5;" width="176.96" x="2169.8281" y="301.4844"/><text fill="#000000" font-family="sans-serif" font-size="14" lengthAdjust="spacing" textLength="156.96" x="2179.8281" y="324.4795">Search page (Catalog)</text><path d="M2119.8281,938.8984 L2129.8281,938.8984 C2144.8281,938.8984 2144.8281,319.6328 2159.8281,319.6328 L2169.8281,319.6328 " fill="none" style="stroke:#181818;stroke-width:1.0;"/><rect fill="#F1F1F1" height="36.2969" rx="12.5" ry="12.5" style="stroke:#181818;stroke-width:1.5;" width="112.7158" x="2169.8281" y="414.0781"/><text fill="#000000" font-family="sans-serif" font-size="14" lengthAdjust="spacing" textLength="92.7158" x="2179.8281" y="437.0732">Search filters</text><rect fill="#F1F1F1" height="36.2969" rx="12.5" ry="12.5" style="stroke:#181818;stroke-width:1.5;" width="290.457" x="2332.5439" y="357.7813"/><text fill="#000000" font-family="sans-serif" font-size="14" lengthAdjust="spacing" textLength="270.457" x="2342.5439" y="380.7764">&#1079;&#1072; &#1076;&#1072;&#1090;&#1086;&#1102; (&#1085;&#1086;&#1074;&#1110; &#1072;&#1073;&#1086; &#1089;&#1090;&#1072;&#1088;&#1110; &#1085;&#1072; &#1087;&#1086;&#1095;&#1072;&#1090;&#1082;&#1091;)</text><path d="M2282.5439,432.2266 L2292.5439,432.2266 C2307.5439,432.2266 2307.5439,375.9297 2322.5439,375.9297 L2332.5439,375.9297 " fill="none" style="stroke:#181818;stroke-width:1.0;"/><rect fill="#F1F1F1" height="36.2969" rx="12.5" ry="12.5" style="stroke:#181818;stroke-width:1.5;" width="311.7783" x="2332.5439" y="414.0781"/><text fill="#000000" font-family="sans-serif" font-size="14" lengthAdjust="spacing" textLength="291.7783" x="2342.5439" y="437.0732">&#1079;&#1072; &#1094;&#1110;&#1085;&#1086;&#1102; (&#1074;&#1110;&#1076; &#1076;&#1086;&#1088;&#1086;&#1075;&#1080;&#1093; &#1072;&#1073;&#1086; &#1074;&#1110;&#1076; &#1076;&#1077;&#1096;&#1077;&#1074;&#1080;&#1093;)</text><path d="M2282.5439,432.2266 L2292.5439,432.2266 C2307.5439,432.2266 2307.5439,432.2266 2322.5439,432.2266 L2332.5439,432.2266 " fill="none" style="stroke:#181818;stroke-width:1.0;"/><rect fill="#F1F1F1" height="36.2969" rx="12.5" ry="12.5" style="stroke:#181818;stroke-width:1.5;" width="117.3984" x="2332.5439" y="470.375"/><text fill="#000000" font-family="sans-serif" font-size="14" lengthAdjust="spacing" textLength="97.3984" x="2342.5439" y="493.3701">&#1040;&#1082;&#1090;&#1091;&#1072;&#1083;&#1100;&#1085;&#1110;&#1089;&#1090;&#1100;</text><path d="M2282.5439,432.2266 L2292.5439,432.2266 C2307.5439,432.2266 2307.5439,488.5234 2322.5439,488.5234 L2332.5439,488.5234 " fill="none" style="stroke:#181818;stroke-width:1.0;"/><path d="M2119.8281,938.8984 L2129.8281,938.8984 C2144.8281,938.8984 2144.8281,432.2266 2159.8281,432.2266 L2169.8281,432.2266 " fill="none" style="stroke:#181818;stroke-width:1.0;"/><rect fill="#F1F1F1" height="36.2969" rx="12.5" ry="12.5" style="stroke:#181818;stroke-width:1.5;" width="68.4053" x="2169.8281" y="977.0469"/><text fill="#000000" font-family="sans-serif" font-size="14" lengthAdjust="spacing" textLength="48.4053" x="2179.8281" y="1000.042">Search</text><rect fill="#F1F1F1" height="36.2969" rx="12.5" ry="12.5" style="stroke:#181818;stroke-width:1.5;" width="114.0557" x="2288.2334" y="723.7109"/><text fill="#000000" font-family="sans-serif" font-size="14" lengthAdjust="spacing" textLength="94.0557" x="2298.2334" y="746.7061">&#1042;&#1080;&#1076; &#1090;&#1074;&#1072;&#1088;&#1080;&#1085;&#1080;</text><rect fill="#F1F1F1" height="36.2969" rx="12.5" ry="12.5" style="stroke:#181818;stroke-width:1.5;" width="64.6455" x="2452.2891" y="526.6719"/><text fill="#000000" font-family="sans-serif" font-size="14" lengthAdjust="spacing" textLength="44.6455" x="2462.2891" y="549.667">&#1055;&#1090;&#1072;&#1093;&#1080;</text><path d="M2402.2891,741.8594 L2412.2891,741.8594 C2427.2891,741.8594 2427.2891,544.8203 2442.2891,544.8203 L2452.2891,544.8203 " fill="none" style="stroke:#181818;stroke-width:1.0;"/><rect fill="#F1F1F1" height="36.2969" rx="12.5" ry="12.5" style="stroke:#181818;stroke-width:1.5;" width="80.5049" x="2452.2891" y="582.9688"/><text fill="#000000" font-family="sans-serif" font-size="14" lengthAdjust="spacing" textLength="60.5049" x="2462.2891" y="605.9639">&#1043;&#1088;&#1080;&#1079;&#1091;&#1085;&#1080;</text><path d="M2402.2891,741.8594 L2412.2891,741.8594 C2427.2891,741.8594 2427.2891,601.1172 2442.2891,601.1172 L2452.2891,601.1172 " fill="none" style="stroke:#181818;stroke-width:1.0;"/><rect fill="#F1F1F1" height="36.2969" rx="12.5" ry="12.5" style="stroke:#181818;stroke-width:1.5;" width="55.7588" x="2452.2891" y="639.2656"/><text fill="#000000" font-family="sans-serif" font-size="14" lengthAdjust="spacing" textLength="35.7588" x="2462.2891" y="662.2607">&#1050;&#1086;&#1090;&#1080;</text><path d="M2402.2891,741.8594 L2412.2891,741.8594 C2427.2891,741.8594 2427.2891,657.4141 2442.2891,657.4141 L2452.2891,657.4141 " fill="none" style="stroke:#181818;stroke-width:1.0;"/><rect fill="#F1F1F1" height="36.2969" rx="12.5" ry="12.5" style="stroke:#181818;stroke-width:1.5;" width="73.1084" x="2452.2891" y="695.5625"/><text fill="#000000" font-family="sans-serif" font-size="14" lengthAdjust="spacing" textLength="53.1084" x="2462.2891" y="718.5576">&#1057;&#1086;&#1073;&#1072;&#1082;&#1080;</text><path d="M2402.2891,741.8594 L2412.2891,741.8594 C2427.2891,741.8594 2427.2891,713.7109 2442.2891,713.7109 L2452.2891,713.7109 " fill="none" style="stroke:#181818;stroke-width:1.0;"/><rect fill="#F1F1F1" height="36.2969" rx="12.5" ry="12.5" style="stroke:#181818;stroke-width:1.5;" width="74.7422" x="2452.2891" y="751.8594"/><text fill="#000000" font-family="sans-serif" font-size="14" lengthAdjust="spacing" textLength="54.7422" x="2462.2891" y="774.8545">&#1060;&#1088;&#1077;&#1090;&#1082;&#1072;</text><path d="M2402.2891,741.8594 L2412.2891,741.8594 C2427.2891,741.8594 2427.2891,770.0078 2442.2891,770.0078 L2452.2891,770.0078 " fill="none" style="stroke:#181818;stroke-width:1.0;"/><rect fill="#F1F1F1" height="36.2969" rx="12.5" ry="12.5" style="stroke:#181818;stroke-width:1.5;" width="80.1904" x="2452.2891" y="808.1563"/><text fill="#000000" font-family="sans-serif" font-size="14" lengthAdjust="spacing" textLength="60.1904" x="2462.2891" y="831.1514">&#1056;&#1077;&#1087;&#1090;&#1080;&#1083;&#1110;&#1111;</text><path d="M2402.2891,741.8594 L2412.2891,741.8594 C2427.2891,741.8594 2427.2891,826.3047 2442.2891,826.3047 L2452.2891,826.3047 " fill="none" style="stroke:#181818;stroke-width:1.0;"/><rect fill="#F1F1F1" height="36.2969" rx="12.5" ry="12.5" style="stroke:#181818;stroke-width:1.5;" width="145.8291" x="2452.2891" y="864.4531"/><text fill="#000000" font-family="sans-serif" font-size="14" lengthAdjust="spacing" textLength="125.8291" x="2462.2891" y="887.4482">&#1057;&#1080;&#1074;&#1110;&#1081;&#1089;&#1082;&#1110; &#1090;&#1074;&#1072;&#1088;&#1080;&#1085;&#1080;</text><path d="M2402.2891,741.8594 L2412.2891,741.8594 C2427.2891,741.8594 2427.2891,882.6016 2442.2891,882.6016 L2452.2891,882.6016 " fill="none" style="stroke:#181818;stroke-width:1.0;"/><rect fill="#F1F1F1" height="36.2969" rx="12.5" ry="12.5" style="stroke:#181818;stroke-width:1.5;" width="54.4668" x="2452.2891" y="920.75"/><text fill="#000000" font-family="sans-serif" font-size="14" lengthAdjust="spacing" textLength="34.4668" x="2462.2891" y="943.7451">&#1110;&#1085;&#1096;&#1077;</text><path d="M2402.2891,741.8594 L2412.2891,741.8594 C2427.2891,741.8594 2427.2891,938.8984 2442.2891,938.8984 L2452.2891,938.8984 " fill="none" style="stroke:#181818;stroke-width:1.0;"/><path d="M2238.2334,995.1953 L2248.2334,995.1953 C2263.2334,995.1953 2263.2334,741.8594 2278.2334,741.8594 L2288.2334,741.8594 " fill="none" style="stroke:#181818;stroke-width:1.0;"/><rect fill="#F1F1F1" height="36.2969" rx="12.5" ry="12.5" style="stroke:#181818;stroke-width:1.5;" width="140.4766" x="2288.2334" y="977.0469"/><text fill="#000000" font-family="sans-serif" font-size="14" lengthAdjust="spacing" textLength="120.4766" x="2298.2334" y="1000.042">&#1055;&#1086;&#1088;&#1086;&#1076;&#1072; &#1090;&#1074;&#1072;&#1088;&#1080;&#1085;&#1080;</text><path d="M2238.2334,995.1953 L2248.2334,995.1953 C2263.2334,995.1953 2263.2334,995.1953 2278.2334,995.1953 L2288.2334,995.1953 " fill="none" style="stroke:#181818;stroke-width:1.0;"/><rect fill="#F1F1F1" height="36.2969" rx="12.5" ry="12.5" style="stroke:#181818;stroke-width:1.5;" width="238.9277" x="2288.2334" y="1033.3438"/><text fill="#000000" font-family="sans-serif" font-size="14" lengthAdjust="spacing" textLength="218.9277" x="2298.2334" y="1056.3389">&#1058;&#1077;&#1088;&#1080;&#1090;&#1086;&#1088;&#1110;&#1072;&#1083;&#1100;&#1085;&#1077; &#1088;&#1086;&#1079;&#1090;&#1072;&#1096;&#1091;&#1074;&#1072;&#1085;&#1085;&#1103;</text><path d="M2238.2334,995.1953 L2248.2334,995.1953 C2263.2334,995.1953 2263.2334,1051.4922 2278.2334,1051.4922 L2288.2334,1051.4922 " fill="none" style="stroke:#181818;stroke-width:1.0;"/><rect fill="#F1F1F1" height="36.2969" rx="12.5" ry="12.5" style="stroke:#181818;stroke-width:1.5;" width="62.916" x="2288.2334" y="1089.6406"/><text fill="#000000" font-family="sans-serif" font-size="14" lengthAdjust="spacing" textLength="42.916" x="2298.2334" y="1112.6357">&#1057;&#1090;&#1072;&#1090;&#1100;</text><path d="M2238.2334,995.1953 L2248.2334,995.1953 C2263.2334,995.1953 2263.2334,1107.7891 2278.2334,1107.7891 L2288.2334,1107.7891 " fill="none" style="stroke:#181818;stroke-width:1.0;"/><rect fill="#F1F1F1" height="36.2969" rx="12.5" ry="12.5" style="stroke:#181818;stroke-width:1.5;" width="41.9502" x="2288.2334" y="1145.9375"/><text fill="#000000" font-family="sans-serif" font-size="14" lengthAdjust="spacing" textLength="21.9502" x="2298.2334" y="1168.9326">&#1042;&#1110;&#1082;</text><path d="M2238.2334,995.1953 L2248.2334,995.1953 C2263.2334,995.1953 2263.2334,1164.0859 2278.2334,1164.0859 L2288.2334,1164.0859 " fill="none" style="stroke:#181818;stroke-width:1.0;"/><rect fill="#F1F1F1" height="36.2969" rx="12.5" ry="12.5" style="stroke:#181818;stroke-width:1.5;" width="664.5605" x="2288.2334" y="1202.2344"/><text fill="#000000" font-family="sans-serif" font-size="14" lengthAdjust="spacing" textLength="644.5605" x="2298.2334" y="1225.2295">&#1056;&#1086;&#1079;&#1084;&#1110;&#1088; &#1087;&#1086; &#1074;&#1072;&#1075;&#1086;&#1074;&#1110;&#1081; &#1082;&#1072;&#1090;&#1077;&#1075;&#1086;&#1088;&#1110;&#1111; (&#1084;&#1072;&#1083;&#1077;&#1085;&#1100;&#1082;&#1080;&#1081;, &#1089;&#1077;&#1088;&#1077;&#1076;&#1085;&#1110;&#1081;, &#1074;&#1077;&#1083;&#1080;&#1082;&#1080;&#1081;) &#1062;&#1077; &#1087;&#1110;&#1076;&#1110;&#1081;&#1076;&#1077; &#1083;&#1080;&#1096;&#1077; &#1076;&#1083;&#1103; &#1089;&#1086;&#1073;&#1072;&#1082;</text><path d="M2238.2334,995.1953 L2248.2334,995.1953 C2263.2334,995.1953 2263.2334,1220.3828 2278.2334,1220.3828 L2288.2334,1220.3828 " fill="none" style="stroke:#181818;stroke-width:1.0;"/><rect fill="#F1F1F1" height="36.2969" rx="12.5" ry="12.5" style="stroke:#181818;stroke-width:1.5;" width="60.2295" x="2288.2334" y="1258.5313"/><text fill="#000000" font-family="sans-serif" font-size="14" lengthAdjust="spacing" textLength="40.2295" x="2298.2334" y="1281.5264">&#1050;&#1086;&#1083;&#1110;&#1088;</text><path d="M2238.2334,995.1953 L2248.2334,995.1953 C2263.2334,995.1953 2263.2334,1276.6797 2278.2334,1276.6797 L2288.2334,1276.6797 " fill="none" style="stroke:#181818;stroke-width:1.0;"/><rect fill="#F1F1F1" height="36.2969" rx="12.5" ry="12.5" style="stroke:#181818;stroke-width:1.5;" width="405.5332" x="2288.2334" y="1314.8281"/><text fill="#000000" font-family="sans-serif" font-size="14" lengthAdjust="spacing" textLength="385.5332" x="2298.2334" y="1337.8232">&#1055;&#1086;&#1082;&#1091;&#1087;&#1082;&#1072; /&#1042;&#1110;&#1076;&#1076;&#1072;&#1084; &#1076;&#1072;&#1088;&#1084;&#1072; /&#1055;&#1086;&#1096;&#1091;&#1082; &#1087;&#1072;&#1088;&#1080; &#1076;&#1083;&#1103; &#1087;&#1086;&#1090;&#1086;&#1084;&#1089;&#1090;&#1074;&#1072;</text><path d="M2238.2334,995.1953 L2248.2334,995.1953 C2263.2334,995.1953 2263.2334,1332.9766 2278.2334,1332.9766 L2288.2334,1332.9766 " fill="none" style="stroke:#181818;stroke-width:1.0;"/><rect fill="#F1F1F1" height="36.2969" rx="12.5" ry="12.5" style="stroke:#181818;stroke-width:1.5;" width="379.6934" x="2288.2334" y="1371.125"/><text fill="#000000" font-family="sans-serif" font-size="14" lengthAdjust="spacing" textLength="359.6934" x="2298.2334" y="1394.1201">&#1044;&#1086;&#1074;&#1078;&#1080;&#1085;&#1072; &#1074;&#1086;&#1074;&#1085;&#1080; (&#1087;&#1110;&#1076;&#1110;&#1081;&#1076;&#1077; &#1090;&#1110;&#1083;&#1100;&#1082;&#1080; &#1076;&#1083;&#1103; &#1082;&#1086;&#1090;&#1110;&#1074;, &#1089;&#1086;&#1073;&#1072;&#1082;)</text><path d="M2238.2334,995.1953 L2248.2334,995.1953 C2263.2334,995.1953 2263.2334,1389.2734 2278.2334,1389.2734 L2288.2334,1389.2734 " fill="none" style="stroke:#181818;stroke-width:1.0;"/><rect fill="#F1F1F1" height="36.2969" rx="12.5" ry="12.5" style="stroke:#181818;stroke-width:1.5;" width="338.4863" x="2288.2334" y="1427.4219"/><text fill="#000000" font-family="sans-serif" font-size="14" lengthAdjust="spacing" textLength="318.4863" x="2298.2334" y="1450.417">&#1053;&#1072;&#1103;&#1074;&#1085;&#1110;&#1089;&#1090;&#1100; &#1097;&#1077;&#1087;&#1083;&#1077;&#1085;&#1100;, &#1087;&#1072;&#1089;&#1087;&#1086;&#1088;&#1090;&#1072;, &#1089;&#1090;&#1077;&#1088;&#1080;&#1083;&#1110;&#1079;&#1072;&#1094;&#1110;&#1111;</text><path d="M2238.2334,995.1953 L2248.2334,995.1953 C2263.2334,995.1953 2263.2334,1445.5703 2278.2334,1445.5703 L2288.2334,1445.5703 " fill="none" style="stroke:#181818;stroke-width:1.0;"/><path d="M2119.8281,938.8984 L2129.8281,938.8984 C2144.8281,938.8984 2144.8281,995.1953 2159.8281,995.1953 L2169.8281,995.1953 " fill="none" style="stroke:#181818;stroke-width:1.0;"/><rect fill="#F1F1F1" height="36.2969" rx="12.5" ry="12.5" style="stroke:#181818;stroke-width:1.5;" width="156.7529" x="2169.8281" y="1511.8672"/><text fill="#000000" font-family="sans-serif" font-size="14" lengthAdjust="spacing" textLength="136.7529" x="2179.8281" y="1534.8623">Search results view</text><rect fill="#F1F1F1" height="36.2969" rx="12.5" ry="12.5" style="stroke:#181818;stroke-width:1.5;" width="96.9795" x="2376.5811" y="1483.7188"/><text fill="#000000" font-family="sans-serif" font-size="14" lengthAdjust="spacing" textLength="76.9795" x="2386.5811" y="1506.7139">Cards view</text><path d="M2326.5811,1530.0156 L2336.5811,1530.0156 C2351.5811,1530.0156 2351.5811,1501.8672 2366.5811,1501.8672 L2376.5811,1501.8672 " fill="none" style="stroke:#181818;stroke-width:1.0;"/><rect fill="#F1F1F1" height="36.2969" rx="12.5" ry="12.5" style="stroke:#181818;stroke-width:1.5;" width="153.4512" x="2376.5811" y="1540.0156"/><text fill="#000000" font-family="sans-serif" font-size="14" lengthAdjust="spacing" textLength="133.4512" x="2386.5811" y="1563.0107">1 column grid view</text><path d="M2326.5811,1530.0156 L2336.5811,1530.0156 C2351.5811,1530.0156 2351.5811,1558.1641 2366.5811,1558.1641 L2376.5811,1558.1641 " fill="none" style="stroke:#181818;stroke-width:1.0;"/><path d="M2119.8281,938.8984 L2129.8281,938.8984 C2144.8281,938.8984 2144.8281,1530.0156 2159.8281,1530.0156 L2169.8281,1530.0156 " fill="none" style="stroke:#181818;stroke-width:1.0;"/><path d="M1915.9053,882.6016 L1925.9053,882.6016 C1940.9053,882.6016 1940.9053,938.8984 1955.9053,938.8984 L1965.9053,938.8984 " fill="none" style="stroke:#181818;stroke-width:1.0;"/><rect fill="#F1F1F1" height="36.2969" rx="12.5" ry="12.5" style="stroke:#181818;stroke-width:1.5;" width="106.2354" x="1965.9053" y="1624.4609"/><text fill="#000000" font-family="sans-serif" font-size="14" lengthAdjust="spacing" textLength="86.2354" x="1975.9053" y="1647.4561">View an add</text><rect fill="#F1F1F1" height="36.2969" rx="12.5" ry="12.5" style="stroke:#181818;stroke-width:1.5;" width="69.1709" x="2122.1406" y="1596.3125"/><text fill="#000000" font-family="sans-serif" font-size="14" lengthAdjust="spacing" textLength="49.1709" x="2132.1406" y="1619.3076">Ad info</text><path d="M2072.1406,1642.6094 L2082.1406,1642.6094 C2097.1406,1642.6094 2097.1406,1614.4609 2112.1406,1614.4609 L2122.1406,1614.4609 " fill="none" style="stroke:#181818;stroke-width:1.0;"/><rect fill="#F1F1F1" height="36.2969" rx="12.5" ry="12.5" style="stroke:#181818;stroke-width:1.5;" width="100.8691" x="2122.1406" y="1652.6094"/><text fill="#000000" font-family="sans-serif" font-size="14" lengthAdjust="spacing" textLength="76.4189" x="2132.1406" y="1675.6045">Owner info</text><path d="M2072.1406,1642.6094 L2082.1406,1642.6094 C2097.1406,1642.6094 2097.1406,1670.7578 2112.1406,1670.7578 L2122.1406,1670.7578 " fill="none" style="stroke:#181818;stroke-width:1.0;"/><path d="M1915.9053,882.6016 L1925.9053,882.6016 C1940.9053,882.6016 1940.9053,1642.6094 1955.9053,1642.6094 L1965.9053,1642.6094 " fill="none" style="stroke:#181818;stroke-width:1.0;"/><path d="M1718.627,882.6016 L1728.627,882.6016 C1743.627,882.6016 1743.627,882.6016 1758.627,882.6016 L1768.627,882.6016 " fill="none" style="stroke:#181818;stroke-width:1.0;"/><rect fill="#F1F1F1" height="36.2969" rx="12.5" ry="12.5" style="stroke:#181818;stroke-width:1.5;" width="130.7559" x="1418.1348" y="864.4531"/><text fill="#000000" font-family="sans-serif" font-size="14" lengthAdjust="spacing" textLength="110.7559" x="1428.1348" y="887.4482">Registered user</text><rect fill="#F1F1F1" height="36.2969" rx="12.5" ry="12.5" style="stroke:#181818;stroke-width:1.5;" width="122.7715" x="1245.3633" y="48.1484"/><text fill="#000000" font-family="sans-serif" font-size="14" lengthAdjust="spacing" textLength="102.7715" x="1255.3633" y="71.1436">Authentication</text><rect fill="#F1F1F1" height="36.2969" rx="12.5" ry="12.5" style="stroke:#181818;stroke-width:1.5;" width="58.0146" x="1137.3486" y="20"/><text fill="#000000" font-family="sans-serif" font-size="14" lengthAdjust="spacing" textLength="38.0146" x="1147.3486" y="42.9951">Login</text><rect fill="#F1F1F1" height="36.2969" rx="12.5" ry="12.5" style="stroke:#181818;stroke-width:1.5;" width="146.1846" x="941.1641" y="20"/><text fill="#000000" font-family="sans-serif" font-size="14" lengthAdjust="spacing" textLength="126.1846" x="951.1641" y="42.9951">Email + password</text><path d="M1137.3486,38.1484 L1127.3486,38.1484 C1112.3486,38.1484 1112.3486,38.1484 1097.3486,38.1484 L1087.3486,38.1484 " fill="none" style="stroke:#181818;stroke-width:1.0;"/><path d="M1245.3633,66.2969 L1235.3633,66.2969 C1220.3633,66.2969 1220.3633,38.1484 1205.3633,38.1484 L1195.3633,38.1484 " fill="none" style="stroke:#181818;stroke-width:1.0;"/><rect fill="#F1F1F1" height="36.2969" rx="12.5" ry="12.5" style="stroke:#181818;stroke-width:1.5;" width="132.9092" x="1062.4541" y="76.2969"/><text fill="#000000" font-family="sans-serif" font-size="14" lengthAdjust="spacing" textLength="112.9092" x="1072.4541" y="99.292">forgot Password</text><path d="M1245.3633,66.2969 L1235.3633,66.2969 C1220.3633,66.2969 1220.3633,94.4453 1205.3633,94.4453 L1195.3633,94.4453 " fill="none" style="stroke:#181818;stroke-width:1.0;"/><path d="M1418.1348,882.6016 L1408.1348,882.6016 C1393.1348,882.6016 1393.1348,66.2969 1378.1348,66.2969 L1368.1348,66.2969 " fill="none" style="stroke:#181818;stroke-width:1.0;"/><rect fill="#F1F1F1" height="36.2969" rx="12.5" ry="12.5" style="stroke:#181818;stroke-width:1.5;" width="100.8896" x="1267.2451" y="273.3359"/><text fill="#000000" font-family="sans-serif" font-size="14" lengthAdjust="spacing" textLength="80.8896" x="1277.2451" y="296.3311">User profile</text><rect fill="#F1F1F1" height="36.2969" rx="12.5" ry="12.5" style="stroke:#181818;stroke-width:1.5;" width="162.3174" x="1054.9277" y="217.0391"/><text fill="#000000" font-family="sans-serif" font-size="14" lengthAdjust="spacing" textLength="142.3174" x="1064.9277" y="240.0342">Profile management</text><rect fill="#F1F1F1" height="36.2969" rx="12.5" ry="12.5" style="stroke:#181818;stroke-width:1.5;" width="133.4219" x="871.5059" y="132.5938"/><text fill="#000000" font-family="sans-serif" font-size="14" lengthAdjust="spacing" textLength="113.4219" x="881.5059" y="155.5889">Name, Surname</text><path d="M1054.9277,235.1875 L1044.9277,235.1875 C1029.9277,235.1875 1029.9277,150.7422 1014.9277,150.7422 L1004.9277,150.7422 " fill="none" style="stroke:#181818;stroke-width:1.0;"/><rect fill="#F1F1F1" height="36.2969" rx="12.5" ry="12.5" style="stroke:#181818;stroke-width:1.5;" width="79.459" x="925.4688" y="188.8906"/><text fill="#000000" font-family="sans-serif" font-size="14" lengthAdjust="spacing" textLength="59.459" x="935.4688" y="211.8857">Location</text><path d="M1054.9277,235.1875 L1044.9277,235.1875 C1029.9277,235.1875 1029.9277,207.0391 1014.9277,207.0391 L1004.9277,207.0391 " fill="none" style="stroke:#181818;stroke-width:1.0;"/><rect fill="#F1F1F1" height="36.2969" rx="12.5" ry="12.5" style="stroke:#181818;stroke-width:1.5;" width="122.457" x="882.4707" y="245.1875"/><text fill="#000000" font-family="sans-serif" font-size="14" lengthAdjust="spacing" textLength="102.457" x="892.4707" y="268.1826">Phone number</text><path d="M1054.9277,235.1875 L1044.9277,235.1875 C1029.9277,235.1875 1029.9277,263.3359 1014.9277,263.3359 L1004.9277,263.3359 " fill="none" style="stroke:#181818;stroke-width:1.0;"/><rect fill="#F1F1F1" height="36.2969" rx="12.5" ry="12.5" style="stroke:#181818;stroke-width:1.5;" width="58.8418" x="946.0859" y="301.4844"/><text fill="#000000" font-family="sans-serif" font-size="14" lengthAdjust="spacing" textLength="38.8418" x="956.0859" y="324.4795">Email</text><path d="M1054.9277,235.1875 L1044.9277,235.1875 C1029.9277,235.1875 1029.9277,319.6328 1014.9277,319.6328 L1004.9277,319.6328 " fill="none" style="stroke:#181818;stroke-width:1.0;"/><path d="M1267.2451,291.4844 L1257.2451,291.4844 C1242.2451,291.4844 1242.2451,235.1875 1227.2451,235.1875 L1217.2451,235.1875 " fill="none" style="stroke:#181818;stroke-width:1.0;"/><rect fill="#F1F1F1" height="36.2969" rx="12.5" ry="12.5" style="stroke:#181818;stroke-width:1.5;" width="195.041" x="1022.2041" y="385.9297"/><text fill="#000000" font-family="sans-serif" font-size="14" lengthAdjust="spacing" textLength="175.041" x="1032.2041" y="408.9248">View the list of own aads</text><rect fill="#F1F1F1" height="36.2969" rx="12.5" ry="12.5" style="stroke:#181818;stroke-width:1.5;" width="92.7617" x="879.4424" y="357.7813"/><text fill="#000000" font-family="sans-serif" font-size="14" lengthAdjust="spacing" textLength="72.7617" x="889.4424" y="380.7764">Active ads</text><path d="M1022.2041,404.0781 L1012.2041,404.0781 C997.2041,404.0781 997.2041,375.9297 982.2041,375.9297 L972.2041,375.9297 " fill="none" style="stroke:#181818;stroke-width:1.0;"/><rect fill="#F1F1F1" height="36.2969" rx="12.5" ry="12.5" style="stroke:#181818;stroke-width:1.5;" width="112.75" x="859.4541" y="414.0781"/><text fill="#000000" font-family="sans-serif" font-size="14" lengthAdjust="spacing" textLength="92.75" x="869.4541" y="437.0732">Deactive add</text><path d="M1022.2041,404.0781 L1012.2041,404.0781 C997.2041,404.0781 997.2041,432.2266 982.2041,432.2266 L972.2041,432.2266 " fill="none" style="stroke:#181818;stroke-width:1.0;"/><path d="M1267.2451,291.4844 L1257.2451,291.4844 C1242.2451,291.4844 1242.2451,404.0781 1227.2451,404.0781 L1217.2451,404.0781 " fill="none" style="stroke:#181818;stroke-width:1.0;"/><path d="M1418.1348,882.6016 L1408.1348,882.6016 C1393.1348,882.6016 1393.1348,291.4844 1378.1348,291.4844 L1368.1348,291.4844 " fill="none" style="stroke:#181818;stroke-width:1.0;"/><rect fill="#F1F1F1" height="36.2969" rx="12.5" ry="12.5" style="stroke:#181818;stroke-width:1.5;" width="245.0938" x="1123.041" y="1089.6406"/><text fill="#000000" font-family="sans-serif" font-size="14" lengthAdjust="spacing" textLength="225.0938" x="1133.041" y="1112.6357">Pet Asvertisement Management</text><rect fill="#F1F1F1" height="36.2969" rx="12.5" ry="12.5" style="stroke:#181818;stroke-width:1.5;" width="137.7148" x="935.3262" y="1089.6406"/><text fill="#000000" font-family="sans-serif" font-size="14" lengthAdjust="spacing" textLength="117.7148" x="945.3262" y="1112.6357">Ad creation form</text><rect fill="#F1F1F1" height="36.2969" rx="12.5" ry="12.5" style="stroke:#181818;stroke-width:1.5;" width="105.8799" x="779.4463" y="611.1172"/><text fill="#000000" font-family="sans-serif" font-size="14" lengthAdjust="spacing" textLength="85.8799" x="789.4463" y="634.1123">General info</text><rect fill="#F1F1F1" height="36.2969" rx="12.5" ry="12.5" style="stroke:#181818;stroke-width:1.5;" width="57.3379" x="672.1084" y="470.375"/><text fill="#000000" font-family="sans-serif" font-size="14" lengthAdjust="spacing" textLength="37.3379" x="682.1084" y="493.3701">&#1060;&#1086;&#1090;&#1086;</text><path d="M779.4463,629.2656 L769.4463,629.2656 C754.4463,629.2656 754.4463,488.5234 739.4463,488.5234 L729.4463,488.5234 " fill="none" style="stroke:#181818;stroke-width:1.0;"/><rect fill="#F1F1F1" height="36.2969" rx="12.5" ry="12.5" style="stroke:#181818;stroke-width:1.5;" width="190.3311" x="539.1152" y="526.6719"/><text fill="#000000" font-family="sans-serif" font-size="14" lengthAdjust="spacing" textLength="170.3311" x="549.1152" y="549.667">&#1042;&#1110;&#1076;&#1076;&#1072;&#1084;/&#1087;&#1088;&#1086;&#1076;&#1072;&#1084;/&#1086;&#1088;&#1077;&#1085;&#1076;&#1072;</text><path d="M779.4463,629.2656 L769.4463,629.2656 C754.4463,629.2656 754.4463,544.8203 739.4463,544.8203 L729.4463,544.8203 " fill="none" style="stroke:#181818;stroke-width:1.0;"/><rect fill="#F1F1F1" height="36.2969" rx="12.5" ry="12.5" style="stroke:#181818;stroke-width:1.5;" width="114.0557" x="615.3906" y="582.9688"/><text fill="#000000" font-family="sans-serif" font-size="14" lengthAdjust="spacing" textLength="94.0557" x="625.3906" y="605.9639">&#1042;&#1080;&#1076; &#1090;&#1074;&#1072;&#1088;&#1080;&#1085;&#1080;</text><path d="M779.4463,629.2656 L769.4463,629.2656 C754.4463,629.2656 754.4463,601.1172 739.4463,601.1172 L729.4463,601.1172 " fill="none" style="stroke:#181818;stroke-width:1.0;"/><rect fill="#F1F1F1" height="36.2969" rx="12.5" ry="12.5" style="stroke:#181818;stroke-width:1.5;" width="62.916" x="666.5303" y="639.2656"/><text fill="#000000" font-family="sans-serif" font-size="14" lengthAdjust="spacing" textLength="42.916" x="676.5303" y="662.2607">&#1057;&#1090;&#1072;&#1090;&#1100;</text><path d="M779.4463,629.2656 L769.4463,629.2656 C754.4463,629.2656 754.4463,657.4141 739.4463,657.4141 L729.4463,657.4141 " fill="none" style="stroke:#181818;stroke-width:1.0;"/><rect fill="#F1F1F1" height="36.2969" rx="12.5" ry="12.5" style="stroke:#181818;stroke-width:1.5;" width="238.9277" x="490.5186" y="695.5625"/><text fill="#000000" font-family="sans-serif" font-size="14" lengthAdjust="spacing" textLength="218.9277" x="500.5186" y="718.5576">&#1058;&#1077;&#1088;&#1080;&#1090;&#1086;&#1088;&#1110;&#1072;&#1083;&#1100;&#1085;&#1077; &#1088;&#1086;&#1079;&#1090;&#1072;&#1096;&#1091;&#1074;&#1072;&#1085;&#1085;&#1103;</text><path d="M779.4463,629.2656 L769.4463,629.2656 C754.4463,629.2656 754.4463,713.7109 739.4463,713.7109 L729.4463,713.7109 " fill="none" style="stroke:#181818;stroke-width:1.0;"/><rect fill="#F1F1F1" height="36.2969" rx="12.5" ry="12.5" style="stroke:#181818;stroke-width:1.5;" width="41.9502" x="687.4961" y="751.8594"/><text fill="#000000" font-family="sans-serif" font-size="14" lengthAdjust="spacing" textLength="21.9502" x="697.4961" y="774.8545">&#1042;&#1110;&#1082;</text><path d="M779.4463,629.2656 L769.4463,629.2656 C754.4463,629.2656 754.4463,770.0078 739.4463,770.0078 L729.4463,770.0078 " fill="none" style="stroke:#181818;stroke-width:1.0;"/><path d="M935.3262,1107.7891 L925.3262,1107.7891 C910.3262,1107.7891 910.3262,629.2656 895.3262,629.2656 L885.3262,629.2656 " fill="none" style="stroke:#181818;stroke-width:1.0;"/><rect fill="#F1F1F1" height="36.2969" rx="12.5" ry="12.5" style="stroke:#181818;stroke-width:1.5;" width="153.8477" x="731.4785" y="1033.3438"/><text fill="#000000" font-family="sans-serif" font-size="14" lengthAdjust="spacing" textLength="133.8477" x="741.4785" y="1056.3389">Details about a pet</text><rect fill="#F1F1F1" height="36.2969" rx="12.5" ry="12.5" style="stroke:#181818;stroke-width:1.5;" width="114.0557" x="567.4229" y="808.1563"/><text fill="#000000" font-family="sans-serif" font-size="14" lengthAdjust="spacing" textLength="94.0557" x="577.4229" y="831.1514">&#1042;&#1080;&#1076; &#1090;&#1074;&#1072;&#1088;&#1080;&#1085;&#1080;</text><path d="M731.4785,1051.4922 L721.4785,1051.4922 C706.4785,1051.4922 706.4785,826.3047 691.4785,826.3047 L681.4785,826.3047 " fill="none" style="stroke:#181818;stroke-width:1.0;"/><rect fill="#F1F1F1" height="36.2969" rx="12.5" ry="12.5" style="stroke:#181818;stroke-width:1.5;" width="64.6455" x="616.833" y="864.4531"/><text fill="#000000" font-family="sans-serif" font-size="14" lengthAdjust="spacing" textLength="44.6455" x="626.833" y="887.4482">&#1055;&#1090;&#1072;&#1093;&#1080;</text><path d="M731.4785,1051.4922 L721.4785,1051.4922 C706.4785,1051.4922 706.4785,882.6016 691.4785,882.6016 L681.4785,882.6016 " fill="none" style="stroke:#181818;stroke-width:1.0;"/><rect fill="#F1F1F1" height="36.2969" rx="12.5" ry="12.5" style="stroke:#181818;stroke-width:1.5;" width="80.5049" x="600.9736" y="920.75"/><text fill="#000000" font-family="sans-serif" font-size="14" lengthAdjust="spacing" textLength="60.5049" x="610.9736" y="943.7451">&#1043;&#1088;&#1080;&#1079;&#1091;&#1085;&#1080;</text><path d="M731.4785,1051.4922 L721.4785,1051.4922 C706.4785,1051.4922 706.4785,938.8984 691.4785,938.8984 L681.4785,938.8984 " fill="none" style="stroke:#181818;stroke-width:1.0;"/><rect fill="#F1F1F1" height="36.2969" rx="12.5" ry="12.5" style="stroke:#181818;stroke-width:1.5;" width="55.7588" x="625.7197" y="977.0469"/><text fill="#000000" font-family="sans-serif" font-size="14" lengthAdjust="spacing" textLength="35.7588" x="635.7197" y="1000.042">&#1050;&#1086;&#1090;&#1080;</text><path d="M731.4785,1051.4922 L721.4785,1051.4922 C706.4785,1051.4922 706.4785,995.1953 691.4785,995.1953 L681.4785,995.1953 " fill="none" style="stroke:#181818;stroke-width:1.0;"/><rect fill="#F1F1F1" height="36.2969" rx="12.5" ry="12.5" style="stroke:#181818;stroke-width:1.5;" width="73.1084" x="608.3701" y="1033.3438"/><text fill="#000000" font-family="sans-serif" font-size="14" lengthAdjust="spacing" textLength="53.1084" x="618.3701" y="1056.3389">&#1057;&#1086;&#1073;&#1072;&#1082;&#1080;</text><path d="M731.4785,1051.4922 L721.4785,1051.4922 C706.4785,1051.4922 706.4785,1051.4922 691.4785,1051.4922 L681.4785,1051.4922 " fill="none" style="stroke:#181818;stroke-width:1.0;"/><rect fill="#F1F1F1" height="36.2969" rx="12.5" ry="12.5" style="stroke:#181818;stroke-width:1.5;" width="74.7422" x="606.7363" y="1089.6406"/><text fill="#000000" font-family="sans-serif" font-size="14" lengthAdjust="spacing" textLength="54.7422" x="616.7363" y="1112.6357">&#1060;&#1088;&#1077;&#1090;&#1082;&#1072;</text><path d="M731.4785,1051.4922 L721.4785,1051.4922 C706.4785,1051.4922 706.4785,1107.7891 691.4785,1107.7891 L681.4785,1107.7891 " fill="none" style="stroke:#181818;stroke-width:1.0;"/><rect fill="#F1F1F1" height="36.2969" rx="12.5" ry="12.5" style="stroke:#181818;stroke-width:1.5;" width="80.1904" x="601.2881" y="1145.9375"/><text fill="#000000" font-family="sans-serif" font-size="14" lengthAdjust="spacing" textLength="60.1904" x="611.2881" y="1168.9326">&#1056;&#1077;&#1087;&#1090;&#1080;&#1083;&#1110;&#1111;</text><path d="M731.4785,1051.4922 L721.4785,1051.4922 C706.4785,1051.4922 706.4785,1164.0859 691.4785,1164.0859 L681.4785,1164.0859 " fill="none" style="stroke:#181818;stroke-width:1.0;"/><rect fill="#F1F1F1" height="36.2969" rx="12.5" ry="12.5" style="stroke:#181818;stroke-width:1.5;" width="145.8291" x="535.6494" y="1202.2344"/><text fill="#000000" font-family="sans-serif" font-size="14" lengthAdjust="spacing" textLength="125.8291" x="545.6494" y="1225.2295">&#1057;&#1080;&#1074;&#1110;&#1081;&#1089;&#1082;&#1110; &#1090;&#1074;&#1072;&#1088;&#1080;&#1085;&#1080;</text><path d="M731.4785,1051.4922 L721.4785,1051.4922 C706.4785,1051.4922 706.4785,1220.3828 691.4785,1220.3828 L681.4785,1220.3828 " fill="none" style="stroke:#181818;stroke-width:1.0;"/><rect fill="#F1F1F1" height="36.2969" rx="12.5" ry="12.5" style="stroke:#181818;stroke-width:1.5;" width="54.4668" x="627.0117" y="1258.5313"/><text fill="#000000" font-family="sans-serif" font-size="14" lengthAdjust="spacing" textLength="34.4668" x="637.0117" y="1281.5264">&#1110;&#1085;&#1096;&#1077;</text><path d="M731.4785,1051.4922 L721.4785,1051.4922 C706.4785,1051.4922 706.4785,1276.6797 691.4785,1276.6797 L681.4785,1276.6797 " fill="none" style="stroke:#181818;stroke-width:1.0;"/><path d="M935.3262,1107.7891 L925.3262,1107.7891 C910.3262,1107.7891 910.3262,1051.4922 895.3262,1051.4922 L885.3262,1051.4922 " fill="none" style="stroke:#181818;stroke-width:1.0;"/><rect fill="#F1F1F1" height="36.2969" rx="12.5" ry="12.5" style="stroke:#181818;stroke-width:1.5;" width="140.4766" x="744.8496" y="1089.6406"/><text fill="#000000" font-family="sans-serif" font-size="14" lengthAdjust="spacing" textLength="120.4766" x="754.8496" y="1112.6357">&#1055;&#1086;&#1088;&#1086;&#1076;&#1072; &#1090;&#1074;&#1072;&#1088;&#1080;&#1085;&#1080;</text><path d="M935.3262,1107.7891 L925.3262,1107.7891 C910.3262,1107.7891 910.3262,1107.7891 895.3262,1107.7891 L885.3262,1107.7891 " fill="none" style="stroke:#181818;stroke-width:1.0;"/><rect fill="#F1F1F1" height="36.2969" rx="12.5" ry="12.5" style="stroke:#181818;stroke-width:1.5;" width="238.9277" x="646.3984" y="1314.8281"/><text fill="#000000" font-family="sans-serif" font-size="14" lengthAdjust="spacing" textLength="218.9277" x="656.3984" y="1337.8232">&#1058;&#1077;&#1088;&#1080;&#1090;&#1086;&#1088;&#1110;&#1072;&#1083;&#1100;&#1085;&#1077; &#1088;&#1086;&#1079;&#1090;&#1072;&#1096;&#1091;&#1074;&#1072;&#1085;&#1085;&#1103;</text><path d="M935.3262,1107.7891 L925.3262,1107.7891 C910.3262,1107.7891 910.3262,1332.9766 895.3262,1332.9766 L885.3262,1332.9766 " fill="none" style="stroke:#181818;stroke-width:1.0;"/><rect fill="#F1F1F1" height="36.2969" rx="12.5" ry="12.5" style="stroke:#181818;stroke-width:1.5;" width="62.916" x="822.4102" y="1371.125"/><text fill="#000000" font-family="sans-serif" font-size="14" lengthAdjust="spacing" textLength="42.916" x="832.4102" y="1394.1201">&#1057;&#1090;&#1072;&#1090;&#1100;</text><path d="M935.3262,1107.7891 L925.3262,1107.7891 C910.3262,1107.7891 910.3262,1389.2734 895.3262,1389.2734 L885.3262,1389.2734 " fill="none" style="stroke:#181818;stroke-width:1.0;"/><rect fill="#F1F1F1" height="36.2969" rx="12.5" ry="12.5" style="stroke:#181818;stroke-width:1.5;" width="41.9502" x="843.376" y="1427.4219"/><text fill="#000000" font-family="sans-serif" font-size="14" lengthAdjust="spacing" textLength="21.9502" x="853.376" y="1450.417">&#1042;&#1110;&#1082;</text><path d="M935.3262,1107.7891 L925.3262,1107.7891 C910.3262,1107.7891 910.3262,1445.5703 895.3262,1445.5703 L885.3262,1445.5703 " fill="none" style="stroke:#181818;stroke-width:1.0;"/><rect fill="#F1F1F1" height="36.2969" rx="12.5" ry="12.5" style="stroke:#181818;stroke-width:1.5;" width="405.5332" x="479.793" y="1483.7188"/><text fill="#000000" font-family="sans-serif" font-size="14" lengthAdjust="spacing" textLength="385.5332" x="489.793" y="1506.7139">&#1055;&#1086;&#1082;&#1091;&#1087;&#1082;&#1072; /&#1042;&#1110;&#1076;&#1076;&#1072;&#1084; &#1076;&#1072;&#1088;&#1084;&#1072; /&#1055;&#1086;&#1096;&#1091;&#1082; &#1087;&#1072;&#1088;&#1080; &#1076;&#1083;&#1103; &#1087;&#1086;&#1090;&#1086;&#1084;&#1089;&#1090;&#1074;&#1072;</text><path d="M935.3262,1107.7891 L925.3262,1107.7891 C910.3262,1107.7891 910.3262,1501.8672 895.3262,1501.8672 L885.3262,1501.8672 " fill="none" style="stroke:#181818;stroke-width:1.0;"/><rect fill="#F1F1F1" height="36.2969" rx="12.5" ry="12.5" style="stroke:#181818;stroke-width:1.5;" width="338.4863" x="546.8398" y="1540.0156"/><text fill="#000000" font-family="sans-serif" font-size="14" lengthAdjust="spacing" textLength="318.4863" x="556.8398" y="1563.0107">&#1053;&#1072;&#1103;&#1074;&#1085;&#1110;&#1089;&#1090;&#1100; &#1097;&#1077;&#1087;&#1083;&#1077;&#1085;&#1100;, &#1087;&#1072;&#1089;&#1087;&#1086;&#1088;&#1090;&#1072;, &#1089;&#1090;&#1077;&#1088;&#1080;&#1083;&#1110;&#1079;&#1072;&#1094;&#1110;&#1111;</text><path d="M935.3262,1107.7891 L925.3262,1107.7891 C910.3262,1107.7891 910.3262,1558.1641 895.3262,1558.1641 L885.3262,1558.1641 " fill="none" style="stroke:#181818;stroke-width:1.0;"/><rect fill="#F1F1F1" height="36.2969" rx="12.5" ry="12.5" style="stroke:#181818;stroke-width:1.5;" width="160.7656" x="724.5605" y="1652.6094"/><text fill="#000000" font-family="sans-serif" font-size="14" lengthAdjust="spacing" textLength="140.7656" x="734.5605" y="1675.6045">Pet appearance info</text><rect fill="#F1F1F1" height="36.2969" rx="12.5" ry="12.5" style="stroke:#181818;stroke-width:1.5;" width="664.5605" x="10" y="1596.3125"/><text fill="#000000" font-family="sans-serif" font-size="14" lengthAdjust="spacing" textLength="644.5605" x="20" y="1619.3076">&#1056;&#1086;&#1079;&#1084;&#1110;&#1088; &#1087;&#1086; &#1074;&#1072;&#1075;&#1086;&#1074;&#1110;&#1081; &#1082;&#1072;&#1090;&#1077;&#1075;&#1086;&#1088;&#1110;&#1111; (&#1084;&#1072;&#1083;&#1077;&#1085;&#1100;&#1082;&#1080;&#1081;, &#1089;&#1077;&#1088;&#1077;&#1076;&#1085;&#1110;&#1081;, &#1074;&#1077;&#1083;&#1080;&#1082;&#1080;&#1081;) &#1062;&#1077; &#1087;&#1110;&#1076;&#1110;&#1081;&#1076;&#1077; &#1083;&#1080;&#1096;&#1077; &#1076;&#1083;&#1103; &#1089;&#1086;&#1073;&#1072;&#1082;</text><path d="M724.5605,1670.7578 L714.5605,1670.7578 C699.5605,1670.7578 699.5605,1614.4609 684.5605,1614.4609 L674.5605,1614.4609 " fill="none" style="stroke:#181818;stroke-width:1.0;"/><rect fill="#F1F1F1" height="36.2969" rx="12.5" ry="12.5" style="stroke:#181818;stroke-width:1.5;" width="60.2295" x="614.3311" y="1652.6094"/><text fill="#000000" font-family="sans-serif" font-size="14" lengthAdjust="spacing" textLength="40.2295" x="624.3311" y="1675.6045">&#1050;&#1086;&#1083;&#1110;&#1088;</text><path d="M724.5605,1670.7578 L714.5605,1670.7578 C699.5605,1670.7578 699.5605,1670.7578 684.5605,1670.7578 L674.5605,1670.7578 " fill="none" style="stroke:#181818;stroke-width:1.0;"/><rect fill="#F1F1F1" height="36.2969" rx="12.5" ry="12.5" style="stroke:#181818;stroke-width:1.5;" width="379.6934" x="294.8672" y="1708.9063"/><text fill="#000000" font-family="sans-serif" font-size="14" lengthAdjust="spacing" textLength="359.6934" x="304.8672" y="1731.9014">&#1044;&#1086;&#1074;&#1078;&#1080;&#1085;&#1072; &#1074;&#1086;&#1074;&#1085;&#1080; (&#1087;&#1110;&#1076;&#1110;&#1081;&#1076;&#1077; &#1090;&#1110;&#1083;&#1100;&#1082;&#1080; &#1076;&#1083;&#1103; &#1082;&#1086;&#1090;&#1110;&#1074;, &#1089;&#1086;&#1073;&#1072;&#1082;)</text><path d="M724.5605,1670.7578 L714.5605,1670.7578 C699.5605,1670.7578 699.5605,1727.0547 684.5605,1727.0547 L674.5605,1727.0547 " fill="none" style="stroke:#181818;stroke-width:1.0;"/><path d="M935.3262,1107.7891 L925.3262,1107.7891 C910.3262,1107.7891 910.3262,1670.7578 895.3262,1670.7578 L885.3262,1670.7578 " fill="none" style="stroke:#181818;stroke-width:1.0;"/><rect fill="#F1F1F1" height="36.2969" rx="12.5" ry="12.5" style="stroke:#181818;stroke-width:1.5;" width="157.5732" x="727.7529" y="1708.9063"/><text fill="#000000" font-family="sans-serif" font-size="14" lengthAdjust="spacing" textLength="137.5732" x="737.7529" y="1731.9014">Created ad preview</text><path d="M935.3262,1107.7891 L925.3262,1107.7891 C910.3262,1107.7891 910.3262,1727.0547 895.3262,1727.0547 L885.3262,1727.0547 " fill="none" style="stroke:#181818;stroke-width:1.0;"/><path d="M1123.041,1107.7891 L1113.041,1107.7891 C1098.041,1107.7891 1098.041,1107.7891 1083.041,1107.7891 L1073.041,1107.7891 " fill="none" style="stroke:#181818;stroke-width:1.0;"/><rect fill="#F1F1F1" height="36.2969" rx="12.5" ry="12.5" style="stroke:#181818;stroke-width:1.5;" width="110.9727" x="962.0684" y="1145.9375"/><text fill="#000000" font-family="sans-serif" font-size="14" lengthAdjust="spacing" textLength="90.9727" x="972.0684" y="1168.9326">Vew ad page</text><path d="M1123.041,1107.7891 L1113.041,1107.7891 C1098.041,1107.7891 1098.041,1164.0859 1083.041,1164.0859 L1073.041,1164.0859 " fill="none" style="stroke:#181818;stroke-width:1.0;"/><rect fill="#F1F1F1" height="36.2969" rx="12.5" ry="12.5" style="stroke:#181818;stroke-width:1.5;" width="90.4443" x="982.5967" y="1202.2344"/><text fill="#000000" font-family="sans-serif" font-size="14" lengthAdjust="spacing" textLength="70.4443" x="992.5967" y="1225.2295">ad editing</text><path d="M1123.041,1107.7891 L1113.041,1107.7891 C1098.041,1107.7891 1098.041,1220.3828 1083.041,1220.3828 L1073.041,1220.3828 " fill="none" style="stroke:#181818;stroke-width:1.0;"/><rect fill="#F1F1F1" height="36.2969" rx="12.5" ry="12.5" style="stroke:#181818;stroke-width:1.5;" width="128.7529" x="944.2881" y="1258.5313"/><text fill="#000000" font-family="sans-serif" font-size="14" lengthAdjust="spacing" textLength="108.7529" x="954.2881" y="1281.5264">ad deactivaiton</text><path d="M1123.041,1107.7891 L1113.041,1107.7891 C1098.041,1107.7891 1098.041,1276.6797 1083.041,1276.6797 L1073.041,1276.6797 " fill="none" style="stroke:#181818;stroke-width:1.0;"/><rect fill="#F1F1F1" height="36.2969" rx="12.5" ry="12.5" style="stroke:#181818;stroke-width:1.5;" width="129.3271" x="943.7139" y="1314.8281"/><text fill="#000000" font-family="sans-serif" font-size="14" lengthAdjust="spacing" textLength="109.3271" x="953.7139" y="1337.8232">activate an add</text><path d="M1123.041,1107.7891 L1113.041,1107.7891 C1098.041,1107.7891 1098.041,1332.9766 1083.041,1332.9766 L1073.041,1332.9766 " fill="none" style="stroke:#181818;stroke-width:1.0;"/><path d="M1418.1348,882.6016 L1408.1348,882.6016 C1393.1348,882.6016 1393.1348,1107.7891 1378.1348,1107.7891 L1368.1348,1107.7891 " fill="none" style="stroke:#181818;stroke-width:1.0;"/><path d="M1598.8906,882.6016 L1588.8906,882.6016 C1573.8906,882.6016 1573.8906,882.6016 1558.8906,882.6016 L1548.8906,882.6016 " fill="none" style="stroke:#181818;stroke-width:1.0;"/><!--SRC=[pLRHRXD757ttLzp7HBO18zIWF94cW9GcnI9D-ZpnJfoLx5bhTpOHRquGb4geGRGoKgMAKg4-cn0tYOd3Byp-KS-TsLclMwYgjaXzspbpxvrppzmzkxSIBMBT3LNG5RrAbPfIqzTHt0begOTrbJPLBDjXecKi0zfCP0omIlSPKrheC58CL6cfrOfIfMavbbEqIb-AhgGgRQInmbCEtkwAi9C_DqMIx4Tna2_NefRGBfisf8XRktGdLIskA3eFt54vtXDjINFBGejEr9wVsTe9Eo2Sv3NDgHcIEJ73xD1SPj_Hd9cOItES3SWCpHjpITa1TePPdv49nxv7t3SsVfmzd2-NoHvd0qwtPL32d73bowoFYc_DMVR8rvnkZh8dPcIEURCezGo53xE7Y7sNFJMJRC0KigVb9dpeStE6Eg1op1Inc9WpjuVDbvRuenBolOqvHUrot8-WU5XQlmBTDpXzNC9U8tF4BPjXWVqCvkyv4pm7sOjI_fbjy3mxG2U3Zz1ZgRXvtyhBNAWJ5l836MH-0GD0zg9m7LuVCoARU6hRVOBca0juaXtvp5Tsosl8kY5zN2dwGBAvG0zzUxja2xnrOs3EYPj6WH53V73s0jTxmSS3cu02X3BdDKoA9JX22nDEh76X4QBENCGycLz15fhXyZc0xvzudtNWQNYN7N6LNFxAz7wimlsIL3nxu0fcTDLsSyB2cGitodscXmtMb0KPSrzMJt-AdM88YROFdDg- -0_Sj_dDIZ_a3dY9Mq3FiyIXvy3UmBXKTinbWH_NIeqKa_qJI1nnEJ_Jb7tBG-ILh3cU1vPTdo-jvju_U_4i0hzd_9hbu-RVwLWcQKSdj1VA_VomPH47Cq23Mb4dxIfgns5GRD0M7aWe4a6GcrL0eTg9tEBUlfAnNLEbNdVMvkmkPRkh0rjAzQvKEcmvQwipjXQrG_TOTuO6c-jvCxFeJXIt8prrECROGQaNHt0ewQAQRa5TeM1eNHoJ5sNhh1NEMSyFBL50xcwa9Acqk-s8UYgkicqRnAc3XYZQeMWV6eWWoKENOAjxagR0YXGUScpvQx2KxCbOXucbHkkpB5d9Lkxut6ythtHNGbFHSIhN7MPUktairgMPleh1ovs15vVs7PlmSXhz8H_qczEttoF_m4dAlCQ591fw9YIserIJe9xKVu_Hr9azCklC7lNEN7HISkP2k98pU-oFpZpD_qjdpiCAP_PiF-xC_rBFFztDhBwVoEZoul-f6UMl75u9qUl1auHgoTa1_zz-PKh3bdzcFF99FWMkjlqJX8kA08OdhHaxMs8p3kplcmEma46eGzKkre5p8X5gRxTkhQNtyLiIlwpvRskbsH5ARwwl4QmgOIjgNBb-xVgDAmjp6qBZ0zAZQmlKQ2msRYus5cZpgsNYxVdAtDtc6YLH6kCc0vXa76wdR6NpbLMn9-W-VcZ3hboaUpsfLbU-y03TLdjX72bhWwjRwzE0psxKFm_vn1XCQ6kziY9t13vRo6X50JfSnEbtwZShQqArKoYmI59LbldFENw0lOtV0G00]--></g></svg>