<?xml version="1.0" encoding="UTF-8" standalone="no"?>
<!-- Created with Inkscape (http://www.inkscape.org/) -->

<svg
   version="1.1"
   id="svg2"
   width="2666.6667"
   height="2666.6667"
   viewBox="0 0 2666.6667 2666.6667"
   sodipodi:docname="wind2.svg"
   inkscape:version="1.2.2 (b0a8486541, 2022-12-01)"
   xmlns:inkscape="http://www.inkscape.org/namespaces/inkscape"
   xmlns:sodipodi="http://sodipodi.sourceforge.net/DTD/sodipodi-0.dtd"
   xmlns="http://www.w3.org/2000/svg"
   xmlns:svg="http://www.w3.org/2000/svg">
  <defs
     id="defs6">
    <clipPath
       clipPathUnits="userSpaceOnUse"
       id="clipPath20">
      <path
         d="M 0,2000 H 2000 V 0 H 0 Z"
         id="path18" />
    </clipPath>
    <clipPath
       clipPathUnits="userSpaceOnUse"
       id="clipPath32">
      <path
         d="M 0,2000 H 2000 V 0 H 0 Z"
         id="path30" />
    </clipPath>
    <clipPath
       clipPathUnits="userSpaceOnUse"
       id="clipPath124">
      <path
         d="M 735.421,1146.41 H 870.418 V 1017.76 H 735.421 Z"
         id="path122" />
    </clipPath>
    <clipPath
       clipPathUnits="userSpaceOnUse"
       id="clipPath140">
      <path
         d="m 1040.56,1158.05 h 135 V 1029.4 h -135 z"
         id="path138" />
    </clipPath>
  </defs>
  <sodipodi:namedview
     id="namedview4"
     pagecolor="#ffffff"
     bordercolor="#000000"
     borderopacity="0.25"
     inkscape:showpageshadow="2"
     inkscape:pageopacity="0.0"
     inkscape:pagecheckerboard="0"
     inkscape:deskcolor="#d1d1d1"
     showgrid="false"
     inkscape:zoom="0.31387498"
     inkscape:cx="853.84313"
     inkscape:cy="1334.9264"
     inkscape:window-width="1920"
     inkscape:window-height="1003"
     inkscape:window-x="0"
     inkscape:window-y="0"
     inkscape:window-maximized="1"
     inkscape:current-layer="g10">
    <inkscape:page
       x="0"
       y="0"
       id="page8"
       width="2666.6667"
       height="2666.6667" />
  </sodipodi:namedview>
  <g
     id="g10"
     inkscape:groupmode="layer"
     inkscape:label="Page 1"
     transform="matrix(1.3333333,0,0,-1.3333333,0,2666.6667)">
    <path
       d="M 0,1.772 H 1997.637 V 2000 H 0 Z"
       style="fill:#d0ecfc;fill-opacity:1;fill-rule:nonzero;stroke:none"
       id="path12" />
    <g
       id="g14">
      <g
         id="g16"
         clip-path="url(#clipPath20)">
        <g
           id="g22"
           transform="translate(1656.8835,1005.1159)">
          <path
             d="m 0,0 c 0,-364.092 -295.155,-659.247 -659.246,-659.247 -364.092,0 -659.247,295.155 -659.247,659.247 0,364.092 295.155,659.247 659.247,659.247 C -295.155,659.247 0,364.092 0,0"
             style="fill:#ffffff;fill-opacity:1;fill-rule:nonzero;stroke:none"
             id="path24" />
        </g>
      </g>
    </g>
    <g
       id="g26">
      <g
         id="g28"
         clip-path="url(#clipPath32)">
        <g
           id="g34"
           transform="translate(1530.432,213.3836)">
          <path
             d="m 0,0 c 0,-19.309 -237.483,-34.961 -530.432,-34.961 -292.95,0 -530.432,15.652 -530.432,34.961 0,19.309 237.482,34.961 530.432,34.961 C -237.483,34.961 0,19.309 0,0"
             style="fill:#a2c6dd;fill-opacity:1;fill-rule:nonzero;stroke:none"
             id="path36" />
        </g>
        <g
           id="g38"
           transform="translate(1479.0253,929.6703)">
          <path
             d="m 0,0 c -0.155,1.356 -0.309,2.709 -0.463,4.059 -0.154,1.35 -0.293,2.698 -0.551,4.025 -0.462,2.661 -0.921,5.31 -1.379,7.946 -1.18,5.217 -2.304,10.389 -3.893,15.376 -3.007,10.009 -6.743,19.559 -11.336,28.375 -0.559,1.108 -1.115,2.213 -1.67,3.313 -0.613,1.07 -1.224,2.137 -1.833,3.201 -1.245,2.106 -2.377,4.265 -3.698,6.271 -1.317,2.006 -2.624,3.996 -3.92,5.971 -1.281,1.983 -2.756,3.804 -4.109,5.683 -2.675,3.786 -5.716,7.176 -8.533,10.619 -1.507,1.634 -3,3.252 -4.479,4.855 -0.741,0.796 -1.48,1.589 -2.214,2.378 -0.771,0.751 -1.538,1.499 -2.301,2.243 -7.386,7.241 -14.916,13.478 -22.338,18.801 0.287,0.18 0.585,0.382 0.905,0.624 1.62,1.276 3.89,3.275 6.074,6.273 4.676,5.825 10.024,15.248 13.94,27.671 3.817,12.398 6.071,27.81 4.806,44.432 -0.644,8.304 -2.259,16.844 -4.673,25.382 -2.603,8.484 -6.149,16.887 -10.599,24.891 -4.621,7.899 -10.077,15.281 -16.131,21.913 -6.188,6.487 -12.839,12.316 -19.821,17.166 -13.983,9.688 -28.915,15.654 -42.074,18.438 -13.222,2.716 -24.595,2.369 -32.251,0.395 -3.526,-0.744 -6.282,-2.058 -8.2,-3.344 -0.927,5.378 -2.209,10.814 -3.751,16.29 -1.578,5.686 -3.612,11.353 -5.872,17.026 -2.314,5.653 -5.009,11.246 -7.996,16.762 -3.052,5.481 -6.448,10.849 -10.157,16.056 -3.772,5.162 -7.866,10.141 -12.254,14.883 -4.446,4.684 -9.161,9.105 -14.093,13.223 -4.978,4.056 -10.152,7.82 -15.476,11.249 -5.36,3.365 -10.832,6.447 -16.4,9.149 -5.589,2.647 -11.204,5.068 -16.873,7.025 -5.66,1.977 -11.309,3.675 -16.924,4.961 -5.597,1.359 -11.156,2.301 -16.58,3.025 -10.865,1.366 -21.244,1.571 -30.738,0.874 -9.497,-0.724 -18.098,-2.332 -25.511,-4.409 -7.423,-2.059 -13.633,-4.69 -18.512,-7.259 -3.537,-1.909 -6.35,-3.799 -8.448,-5.581 -1.186,2.271 -2.409,4.543 -3.673,6.816 -1.188,2.282 -2.598,4.45 -3.904,6.704 -1.36,2.22 -2.622,4.528 -4.094,6.717 -2.892,4.414 -5.759,8.936 -8.979,13.284 -1.601,2.179 -3.101,4.459 -4.818,6.588 -1.684,2.158 -3.378,4.326 -5.079,6.505 -1.679,2.201 -3.556,4.253 -5.343,6.402 -1.818,2.121 -3.599,4.295 -5.55,6.333 -1.919,2.07 -3.845,4.148 -5.78,6.235 -1.98,2.044 -4.036,4.031 -6.068,6.059 l -3.072,3.03 -3.203,2.917 c -2.153,1.932 -4.261,3.935 -6.482,5.823 -8.838,7.612 -18.317,14.718 -28.249,21.371 -10.029,6.513 -20.571,12.444 -31.521,17.731 -11.028,5.128 -22.456,9.55 -34.163,13.202 -11.762,3.463 -23.741,6.138 -35.799,8.003 -12.077,1.688 -24.194,2.613 -36.223,2.761 -12.021,-0.021 -23.936,-0.678 -35.608,-2.124 -2.919,-0.342 -5.806,-0.844 -8.695,-1.262 -1.443,-0.221 -2.884,-0.441 -4.322,-0.66 -1.427,-0.276 -2.852,-0.551 -4.274,-0.826 -2.841,-0.568 -5.682,-1.088 -8.49,-1.699 -2.794,-0.673 -5.577,-1.343 -8.348,-2.01 -2.783,-0.624 -5.497,-1.456 -8.214,-2.225 -2.706,-0.808 -5.438,-1.489 -8.082,-2.402 -2.653,-0.885 -5.294,-1.765 -7.921,-2.641 -2.64,-0.836 -5.178,-1.917 -7.748,-2.861 -5.151,-1.869 -10.099,-4.08 -15.012,-6.195 -2.469,-1.027 -4.825,-2.27 -7.217,-3.388 -2.364,-1.175 -4.77,-2.224 -7.051,-3.489 -18.491,-9.619 -34.916,-20.65 -48.932,-32.177 -13.989,-11.579 -25.567,-23.615 -34.812,-35.037 -9.292,-11.402 -16.051,-22.343 -21.006,-31.583 -1.202,-2.339 -2.313,-4.56 -3.333,-6.658 -1.045,-2.081 -1.803,-4.162 -2.582,-6.043 -1.396,-3.506 -2.489,-6.532 -3.131,-9.189 -2.07,1.057 -4.193,2.093 -6.443,3.035 -1.519,0.677 -3.061,1.364 -4.627,2.062 -1.57,0.697 -3.159,1.424 -4.829,1.993 -3.326,1.205 -6.748,2.446 -10.26,3.719 -1.749,0.679 -3.588,1.121 -5.425,1.675 -1.845,0.527 -3.712,1.06 -5.602,1.6 -1.899,0.505 -3.796,1.143 -5.765,1.547 -1.968,0.423 -3.956,0.852 -5.966,1.285 -16.087,3.436 -33.995,5.383 -52.995,4.842 -18.983,-0.531 -39.061,-3.561 -59.027,-9.806 -19.981,-6.217 -39.675,-15.731 -57.767,-28.053 -18.114,-12.31 -34.672,-27.402 -48.827,-44.465 -14.058,-17.145 -25.695,-36.242 -34.312,-56.286 -8.634,-20.028 -14.212,-41.04 -16.546,-61.676 -2.364,-20.63 -1.599,-40.74 1.354,-59.319 0.989,-6.246 2.241,-12.303 3.679,-18.186 -3.694,-0.253 -7.99,-0.83 -12.879,-1.839 -8.595,-1.826 -18.847,-5.131 -30.012,-10.409 -11.137,-5.307 -23.119,-12.685 -34.949,-22.415 -11.762,-9.781 -23.364,-21.925 -33.466,-36.482 -10.097,-14.532 -18.684,-31.505 -24.253,-50.285 -5.605,-18.785 -7.964,-39.22 -6.76,-59.636 1.22,-20.429 5.885,-40.858 13.607,-60.023 7.779,-19.143 18.614,-37.022 31.87,-52.487 13.261,-15.446 29.034,-28.408 45.935,-37.962 16.876,-9.578 34.625,-15.802 51.763,-19.294 17.161,-3.506 33.721,-4.305 48.794,-3.37 15.088,1.02 28.69,3.761 40.327,7.339 11.637,3.618 21.329,7.956 28.911,12.161 7.281,4.092 12.634,7.88 16.157,10.865 6.445,-8.516 14.642,-17.886 24.662,-27.445 8.49,-8.129 18.298,-16.343 29.317,-24.208 11.015,-7.864 23.216,-15.43 36.501,-22.077 26.445,-13.484 57.327,-23.217 89.099,-26.764 l 5.964,-0.555 2.981,-0.27 2.988,-0.174 5.971,-0.326 6.169,-0.097 c 8.234,0.024 16.462,0.572 24.525,1.843 8.058,1.286 15.943,3.167 23.533,5.572 7.594,2.408 14.834,5.451 21.72,8.802 6.902,3.338 13.355,7.174 19.423,11.202 6.093,4.004 11.714,8.332 16.967,12.738 2.077,1.716 4.056,3.475 5.99,5.244 0.539,-0.603 1.097,-1.216 1.687,-1.847 7.926,-8.826 21.36,-19.479 39.578,-28.785 18.221,-9.166 41.275,-16.797 66.873,-19.834 3.208,-0.296 6.442,-0.594 9.699,-0.894 l 2.45,-0.206 2.468,-0.073 c 1.649,-0.044 3.303,-0.088 4.962,-0.133 1.66,-0.039 3.324,-0.078 4.994,-0.117 1.669,-0.075 3.345,0.084 5.024,0.119 3.358,0.146 6.734,0.292 10.123,0.439 13.538,1.135 27.191,3.553 40.535,7.242 13.266,3.969 26.087,9.172 38.113,15.371 2.938,1.667 5.865,3.328 8.777,4.98 1.435,0.857 2.931,1.605 4.301,2.55 1.387,0.914 2.771,1.825 4.151,2.733 1.376,0.912 2.747,1.82 4.114,2.725 l 2.042,1.359 1.958,1.464 c 2.589,1.965 5.159,3.915 7.708,5.849 1.967,1.574 3.877,3.177 5.755,4.793 1.219,-1.916 3.405,-4.041 6.509,-6.319 5.901,-4.217 15.117,-8.82 26.98,-12.668 11.85,-3.847 26.347,-6.834 42.362,-8.108 16.01,-1.354 33.51,-0.749 51.163,1.772 8.809,1.359 17.691,3.024 26.395,5.38 4.383,1.052 8.667,2.471 12.971,3.734 2.123,0.726 4.243,1.451 6.358,2.174 l 3.158,1.103 3.114,1.203 c 8.326,3.094 16.275,6.828 23.894,10.631 1.878,1.006 3.744,2.007 5.595,2.999 0.922,0.502 1.84,1.001 2.754,1.499 0.897,0.529 1.791,1.056 2.682,1.58 1.774,1.055 3.532,2.1 5.274,3.135 1.701,1.102 3.386,2.193 5.054,3.272 13.279,8.711 24.423,18.068 32.989,26.755 3.799,3.839 7.061,7.528 9.869,10.966 1.009,-0.21 2.019,-0.42 3.033,-0.631 1.275,-0.247 2.575,-0.386 3.868,-0.584 2.594,-0.361 5.201,-0.725 7.822,-1.09 l 1.971,-0.269 2.004,-0.173 c 1.339,-0.113 2.682,-0.226 4.027,-0.34 2.692,-0.166 5.402,-0.294 8.122,-0.373 2.718,0 5.456,-0.109 8.194,0.014 21.931,0.494 44.432,5.023 65.759,13.678 l 3.994,1.646 3.944,1.788 c 2.649,1.154 5.207,2.526 7.812,3.801 5.125,2.727 10.215,5.578 15.098,8.809 9.841,6.33 19.06,13.784 27.472,22.114 8.389,8.351 15.88,17.692 22.194,27.756 1.522,2.554 3.108,5.063 4.472,7.704 0.696,1.31 1.427,2.6 2.086,3.928 l 1.927,4.006 c 0.668,1.324 1.23,2.689 1.786,4.055 l 1.682,4.089 c 1.186,2.699 2.054,5.501 2.986,8.273 3.651,11.108 5.985,22.471 7.126,33.754 C 1.245,-22.05 1.112,-10.861 0,0"
             style="fill:#b4dcf3;fill-opacity:1;fill-rule:nonzero;stroke:none"
             id="path40" />
        </g>
        <g
           id="g42"
           transform="translate(1356.1549,1067.4352)">
          <path
             d="m 0,0 c 0,0 70.658,-77.194 15.483,-182.944 -55.174,-105.751 -165.522,-96.555 -172.44,-100.571 -43.7,-49.994 -126.42,-23.572 -132.456,19.706 -84.2,-80.865 -182.476,-38.68 -251.444,21.093 22.989,55.174 -9.196,114.946 -9.196,114.946 0,0 -59.772,-142.534 -234.49,-170.121 -174.719,-27.587 -206.904,151.729 -206.904,151.729 0,0 -36.782,-59.772 -119.544,-36.782 -44.761,12.433 -64.389,71.051 -74.934,121.286 -7.037,-11.887 -13.002,-25.084 -17.226,-39.327 -5.605,-18.785 -7.964,-39.22 -6.76,-59.636 1.221,-20.429 5.886,-40.858 13.607,-60.023 7.779,-19.143 18.614,-37.022 31.87,-52.487 13.261,-15.446 29.034,-28.408 45.935,-37.962 16.876,-9.578 34.625,-15.802 51.764,-19.294 17.16,-3.506 33.72,-4.305 48.794,-3.369 15.087,1.02 28.69,3.76 40.326,7.338 11.637,3.618 21.329,7.956 28.912,12.162 7.28,4.091 12.634,7.88 16.157,10.864 6.444,-8.516 14.641,-17.886 24.661,-27.445 8.49,-8.129 18.299,-16.343 29.318,-24.208 11.014,-7.864 23.215,-15.43 36.5,-22.077 26.446,-13.484 57.328,-23.217 89.099,-26.764 l 5.965,-0.555 2.98,-0.27 2.988,-0.174 5.971,-0.326 6.169,-0.097 c 8.234,0.024 16.462,0.572 24.525,1.843 8.059,1.286 15.943,3.168 23.534,5.572 7.593,2.408 14.833,5.451 21.72,8.802 6.901,3.338 13.354,7.174 19.423,11.202 6.092,4.004 11.714,8.333 16.967,12.738 2.077,1.716 4.055,3.475 5.989,5.244 0.54,-0.603 1.097,-1.216 1.687,-1.847 7.926,-8.826 21.36,-19.479 39.578,-28.785 18.222,-9.166 41.276,-16.797 66.874,-19.834 3.207,-0.296 6.441,-0.593 9.698,-0.894 l 2.451,-0.206 2.467,-0.073 c 1.649,-0.044 3.303,-0.088 4.962,-0.133 1.66,-0.038 3.325,-0.077 4.994,-0.117 1.67,-0.075 3.345,0.085 5.024,0.12 3.359,0.145 6.734,0.292 10.123,0.438 13.538,1.135 27.192,3.553 40.535,7.242 13.266,3.969 26.087,9.172 38.114,15.371 2.938,1.668 5.864,3.328 8.776,4.98 1.436,0.857 2.931,1.605 4.301,2.551 1.388,0.913 2.772,1.824 4.152,2.732 1.375,0.912 2.747,1.82 4.114,2.726 l 2.042,1.359 1.958,1.464 c 2.589,1.964 5.159,3.914 7.708,5.848 1.966,1.574 3.876,3.177 5.755,4.793 1.219,-1.915 3.404,-4.041 6.508,-6.319 5.901,-4.216 15.117,-8.82 26.98,-12.668 11.85,-3.846 26.347,-6.834 42.362,-8.108 16.011,-1.354 33.511,-0.749 51.163,1.772 8.809,1.359 17.691,3.024 26.396,5.38 4.382,1.052 8.667,2.472 12.97,3.734 2.124,0.726 4.243,1.451 6.358,2.174 l 3.159,1.103 3.113,1.203 c 8.326,3.095 16.275,6.828 23.894,10.631 1.878,1.006 3.744,2.007 5.596,2.999 0.921,0.502 1.839,1.002 2.753,1.499 0.898,0.529 1.792,1.056 2.682,1.581 1.774,1.054 3.532,2.099 5.274,3.134 1.702,1.102 3.387,2.193 5.054,3.273 13.279,8.71 24.423,18.067 32.989,26.754 3.799,3.839 7.062,7.528 9.869,10.966 1.009,-0.21 2.019,-0.42 3.033,-0.63 1.275,-0.248 2.575,-0.387 3.869,-0.585 2.593,-0.361 5.201,-0.724 7.822,-1.09 l 1.97,-0.269 2.005,-0.173 c 1.339,-0.113 2.681,-0.226 4.026,-0.34 2.693,-0.166 5.402,-0.293 8.122,-0.373 2.718,0 5.456,-0.109 8.195,0.014 21.93,0.494 44.431,5.023 65.758,13.678 l 3.994,1.646 3.945,1.788 c 2.649,1.154 5.207,2.526 7.812,3.801 5.125,2.727 10.215,5.578 15.097,8.809 9.841,6.33 19.06,13.784 27.472,22.114 8.389,8.351 15.881,17.692 22.195,27.756 1.522,2.554 3.107,5.063 4.471,7.704 0.696,1.31 1.427,2.6 2.086,3.928 l 1.928,4.006 c 0.667,1.324 1.23,2.689 1.786,4.056 l 1.681,4.088 c 1.186,2.699 2.055,5.501 2.986,8.273 3.652,11.108 5.985,22.471 7.127,33.754 1.04,11.294 0.906,22.483 -0.206,33.344 -0.154,1.356 -0.309,2.709 -0.463,4.059 -0.154,1.35 -0.293,2.698 -0.55,4.026 -0.462,2.66 -0.922,5.309 -1.38,7.946 -1.18,5.216 -2.303,10.388 -3.893,15.375 -3.007,10.009 -6.742,19.559 -11.336,28.376 -0.558,1.107 -1.115,2.212 -1.67,3.312 -0.613,1.071 -1.224,2.137 -1.833,3.201 -1.245,2.107 -2.376,4.265 -3.698,6.271 -1.317,2.006 -2.624,3.996 -3.92,5.971 -1.28,1.983 -2.755,3.805 -4.109,5.683 -2.674,3.786 -5.716,7.176 -8.532,10.619 -1.507,1.634 -3.001,3.252 -4.479,4.855 -0.742,0.796 -1.48,1.589 -2.215,2.378 -0.771,0.751 -1.538,1.499 -2.301,2.243 -7.386,7.242 -14.916,13.478 -22.337,18.801 0.286,0.18 0.585,0.382 0.905,0.624 1.62,1.276 3.89,3.275 6.073,6.273 4.676,5.825 10.024,15.248 13.94,27.671 3.817,12.398 6.071,27.81 4.807,44.432 -0.645,8.304 -2.26,16.844 -4.673,25.383 -2.604,8.483 -6.15,16.886 -10.6,24.89 -4.621,7.899 -10.076,15.281 -16.13,21.913 -6.188,6.487 -12.839,12.316 -19.822,17.166 C 66.01,53.555 0,0 0,0"
             style="fill:#8fc8e5;fill-opacity:1;fill-rule:nonzero;stroke:none"
             id="path44" />
        </g>
        <g
           id="g46"
           transform="translate(357.5642,975.6886)">
          <path
             d="m 0,0 c 2.052,31.426 89.905,115.706 89.905,124.901 -114.115,0 -141.926,74.531 -147.492,126.236 -8.576,-19.957 -14.122,-40.885 -16.447,-61.441 -2.364,-20.629 -1.599,-40.739 1.354,-59.319 0.989,-6.246 2.241,-12.302 3.679,-18.185 -3.663,-0.251 -7.922,-0.823 -12.759,-1.817 C -68.862,65.428 -41.281,26.58 0,0"
             style="fill:#8fc8e5;fill-opacity:1;fill-rule:nonzero;stroke:none"
             id="path48" />
        </g>
        <g
           id="g50"
           transform="translate(1102.5466,1187.7075)">
          <path
             d="m 0,0 c 0,0 105.737,59.091 118.607,158.891 -2.927,1.653 -5.883,3.218 -8.868,4.666 -5.589,2.647 -11.204,5.069 -16.874,7.026 -5.659,1.977 -11.309,3.675 -16.923,4.961 -5.597,1.358 -11.156,2.301 -16.58,3.025 -10.866,1.365 -21.245,1.571 -30.738,0.874 -9.498,-0.724 -18.099,-2.332 -25.512,-4.41 -7.423,-2.058 -13.632,-4.689 -18.511,-7.258 -3.537,-1.91 -6.35,-3.8 -8.449,-5.581 -1.186,2.271 -2.409,4.543 -3.672,6.816 -1.189,2.281 -2.598,4.45 -3.905,6.704 -1.359,2.22 -2.621,4.528 -4.094,6.717 -2.891,4.414 -5.758,8.936 -8.978,13.284 -1.601,2.179 -3.101,4.459 -4.818,6.588 -1.685,2.158 -3.378,4.326 -5.08,6.505 -1.678,2.201 -3.556,4.253 -5.342,6.401 -1.818,2.122 -3.6,4.296 -5.551,6.334 -1.918,2.07 -3.845,4.148 -5.779,6.235 -1.98,2.043 -4.037,4.031 -6.068,6.059 l -2.797,2.758 c -16.892,-6.952 -27.699,-12.436 -27.699,-12.436 0,0 91.421,-63.476 107.631,-224.159"
             style="fill:#8fc8e5;fill-opacity:1;fill-rule:nonzero;stroke:none"
             id="path52" />
        </g>
        <g
           id="g54"
           transform="translate(883.3323,1277.769)">
          <path
             d="M 0,0 C 5.505,-2.707 11.138,-5.383 16.936,-8.017 11.389,-4.393 5.73,-1.785 0,0"
             style="fill:#8fc8e5;fill-opacity:1;fill-rule:nonzero;stroke:none"
             id="path56" />
        </g>
        <g
           id="g58"
           transform="translate(700.3516,1224.7321)">
          <path
             d="M 0,0 C 25.572,-38.359 110.249,75.692 182.981,53.037 73.226,107.008 21.396,175.228 20.727,242.538 c -1.811,-0.866 -3.622,-1.706 -5.361,-2.67 -18.492,-9.619 -34.917,-20.649 -48.933,-32.177 -13.988,-11.579 -25.566,-23.615 -34.812,-35.037 -9.291,-11.402 -16.051,-22.343 -21.006,-31.582 -1.201,-2.34 -2.313,-4.56 -3.332,-6.658 -1.045,-2.081 -1.803,-4.163 -2.582,-6.043 -1.396,-3.507 -2.49,-6.533 -3.132,-9.189 -2.069,1.056 -4.192,2.092 -6.443,3.034 -1.518,0.677 -3.061,1.365 -4.627,2.063 -1.569,0.696 -3.159,1.423 -4.828,1.992 -3.326,1.206 -6.748,2.446 -10.26,3.719 -1.75,0.679 -3.589,1.121 -5.425,1.675 -1.845,0.527 -3.713,1.06 -5.602,1.6 -1.899,0.505 -3.797,1.144 -5.766,1.547 -1.967,0.424 -3.956,0.852 -5.966,1.285 -13.811,2.95 -28.972,4.79 -45.007,4.913 C -141.409,129.238 -50.9,95.438 0,0"
             style="fill:#8fc8e5;fill-opacity:1;fill-rule:nonzero;stroke:none"
             id="path60" />
        </g>
        <g
           id="g62"
           transform="translate(870.5852,970.5948)">
          <path
             d="m 0,0 c 0.079,-1.053 4.346,-2.097 11.927,-1.398 3.762,0.404 8.36,1.214 13.431,2.918 5.072,1.683 10.651,4.161 16.327,7.632 5.661,3.485 11.405,7.958 16.83,13.418 5.398,5.476 10.457,11.961 14.676,19.354 2.141,3.68 3.973,7.631 5.645,11.723 1.618,4.117 2.939,8.429 3.987,12.87 0.979,4.459 1.631,9.05 1.931,13.713 0.226,4.67 0.076,9.395 -0.458,14.101 -0.618,4.695 -1.614,9.333 -2.97,13.839 -1.425,4.479 -3.181,8.818 -5.234,12.958 -2.113,4.102 -4.471,8.023 -7.082,11.684 -2.654,3.622 -5.445,7.075 -8.477,10.184 -6.014,6.267 -12.669,11.441 -19.444,15.515 -6.797,4.051 -13.704,7.028 -20.301,9.005 -6.609,1.959 -12.895,2.915 -18.467,3.15 -5.576,0.256 -10.443,-0.315 -14.33,-1.142 -7.817,-1.779 -11.647,-4.676 -11.195,-6.821 0.463,-2.304 4.809,-3.151 11.584,-4.391 6.772,-1.246 16.122,-3.158 26.396,-7.709 5.12,-2.283 10.44,-5.208 15.676,-8.831 5.215,-3.646 10.333,-8.021 14.952,-13.1 2.337,-2.518 4.463,-5.274 6.514,-8.111 2.004,-2.872 3.811,-5.903 5.458,-9.033 1.583,-3.16 2.953,-6.432 4.105,-9.783 1.08,-3.372 1.915,-6.816 2.506,-10.302 0.505,-3.498 0.766,-7.041 0.769,-10.6 -0.072,-3.56 -0.38,-7.12 -0.931,-10.644 C 63.203,66.685 62.394,63.21 61.339,59.824 60.229,56.46 59.015,53.144 57.518,49.995 54.592,43.672 50.94,37.873 46.941,32.767 42.916,27.677 38.566,23.255 34.193,19.556 29.807,15.874 25.411,12.917 21.33,10.559 17.251,8.181 13.454,6.504 10.276,5.128 3.888,2.473 -0.11,1.208 0,0"
             style="fill:#3190ad;fill-opacity:1;fill-rule:nonzero;stroke:none"
             id="path64" />
        </g>
        <g
           id="g66"
           transform="translate(1049.0631,973.6884)">
          <path
             d="M 0,0 C 0.145,0.551 -0.488,1.349 -1.752,2.342 -3.001,3.378 -4.954,4.399 -7.24,6.044 -11.926,9 -18.308,13.475 -24.767,19.843 c -6.396,6.414 -12.824,14.792 -17.551,24.66 -2.351,4.941 -4.17,10.244 -5.577,15.671 -1.226,5.478 -1.883,11.078 -1.958,16.64 0.123,5.569 0.826,11.107 2.058,16.482 1.419,5.335 3.21,10.497 5.485,15.296 4.582,9.586 10.655,17.652 16.546,23.958 5.962,6.258 11.709,10.838 15.848,14.244 2.005,1.864 3.71,3.19 4.729,4.608 1.033,1.374 1.461,2.633 1.11,3.716 -0.352,1.084 -1.428,1.789 -3.216,2.126 -1.768,0.295 -4.34,0.424 -7.346,-0.275 -6.136,-1.072 -14.519,-4.549 -23.091,-11.041 -8.491,-6.52 -17.07,-16.11 -23.305,-28.202 -3.104,-6.048 -5.517,-12.716 -7.256,-19.703 -1.56,-7.043 -2.283,-14.41 -2.068,-21.796 0.412,-7.381 1.757,-14.632 3.887,-21.474 2.307,-6.778 5.238,-13.159 8.779,-18.874 7.113,-11.422 16.232,-20.178 24.94,-26.066 8.791,-5.851 17.089,-8.904 23.034,-10.027 2.918,-0.726 5.362,-0.732 6.998,-0.709 C -1.069,-0.856 -0.145,-0.551 0,0"
             style="fill:#3190ad;fill-opacity:1;fill-rule:nonzero;stroke:none"
             id="path68" />
        </g>
        <g
           id="g70"
           transform="translate(957.3749,1175.791)">
          <path
             d="m 0,0 c -18.669,0 -34.367,17.941 -40.841,37.4 -1.954,5.871 -3.456,11.986 -4.908,17.901 -3.303,13.449 -6.423,26.15 -14.409,36.246 -11.481,14.511 -33.082,21.334 -53.756,16.976 -22.695,-4.782 -39.873,-20.448 -50.288,-32.746 l -5.94,5.029 c 11.202,13.229 29.771,30.097 54.623,35.334 23.489,4.953 48.194,-2.989 61.464,-19.764 9.038,-11.423 12.508,-25.554 15.864,-39.218 1.416,-5.765 2.881,-11.727 4.735,-17.301 C -25.482,15.894 -8.552,5.784 4.068,8.17 L 5.517,0.523 C 3.655,0.17 1.813,0 0,0"
             style="fill:#3190ad;fill-opacity:1;fill-rule:nonzero;stroke:none"
             id="path72" />
        </g>
        <g
           id="g74"
           transform="translate(1451.5754,899.4678)">
          <path
             d="m 0,0 c -1.354,-9.328 -3.648,-18.568 -6.922,-27.458 -0.836,-2.217 -1.593,-4.469 -2.64,-6.598 l -1.458,-3.241 c -0.477,-1.085 -0.956,-2.17 -1.531,-3.206 l -1.637,-3.154 c -0.557,-1.045 -1.183,-2.057 -1.768,-3.089 -1.141,-2.081 -2.491,-4.049 -3.756,-6.063 -5.293,-7.921 -11.502,-15.306 -18.469,-21.96 -6.99,-6.631 -14.639,-12.632 -22.851,-17.756 -4.063,-2.624 -8.323,-4.933 -12.596,-7.169 -2.185,-1.033 -4.309,-2.172 -6.531,-3.111 l -3.295,-1.474 -3.343,-1.352 c -17.837,-7.149 -36.675,-11.012 -54.89,-11.677 -2.279,-0.145 -4.545,-0.07 -6.803,-0.119 -2.255,0.03 -4.5,0.095 -6.731,0.185 -1.113,0.072 -2.223,0.144 -3.331,0.216 l -1.661,0.103 -1.667,0.198 c -2.222,0.257 -4.433,0.513 -6.631,0.767 -1.099,0.138 -2.203,0.215 -3.29,0.399 -1.085,0.198 -2.168,0.395 -3.247,0.592 -2.163,0.386 -4.312,0.77 -6.449,1.151 -2.135,0.398 -4.218,1.006 -6.312,1.486 -2.084,0.53 -4.18,0.962 -6.223,1.549 -16.381,4.628 -31.357,11.157 -44.608,18.39 -13.245,7.262 -24.865,15.106 -34.717,22.741 -2.506,1.858 -4.779,3.846 -7.084,5.649 -1.145,0.914 -2.27,1.81 -3.374,2.69 -1.064,0.927 -2.108,1.836 -3.131,2.727 -2.075,1.77 -4.065,3.469 -5.967,5.091 -1.833,1.698 -3.602,3.308 -5.304,4.825 -3.471,2.978 -6.376,5.837 -9.082,8.209 -1.341,1.196 -2.641,2.264 -3.812,3.265 -1.144,1.022 -2.217,1.931 -3.219,2.722 -4.003,3.163 -6.838,4.445 -8.246,3.477 -1.409,-0.969 -1.119,-4.022 0.738,-8.99 0.464,-1.242 1.026,-2.603 1.684,-4.08 0.685,-1.456 1.525,-2.983 2.433,-4.64 1.842,-3.296 3.994,-7.096 6.832,-11.035 1.385,-1.998 2.869,-4.092 4.447,-6.28 1.66,-2.111 3.437,-4.296 5.3,-6.574 0.938,-1.136 1.895,-2.296 2.871,-3.477 1.035,-1.128 2.091,-2.277 3.165,-3.447 2.184,-2.311 4.366,-4.805 6.82,-7.175 9.64,-9.676 21.625,-19.607 35.909,-28.854 14.287,-9.213 30.995,-17.629 49.836,-23.74 1.694,-0.556 3.428,-1.034 5.166,-1.518 -1.022,-0.668 -2.059,-1.342 -3.131,-2.026 -9.577,-6.14 -21.13,-12.827 -34.17,-19.037 -1.628,-0.773 -3.273,-1.554 -4.935,-2.343 -1.684,-0.736 -3.385,-1.479 -5.1,-2.228 -0.854,-0.377 -1.711,-0.756 -2.572,-1.136 -0.874,-0.352 -1.751,-0.706 -2.632,-1.061 -1.757,-0.711 -3.527,-1.426 -5.309,-2.147 -7.204,-2.687 -14.591,-5.389 -22.246,-7.583 l -2.855,-0.871 -2.891,-0.784 c -1.926,-0.523 -3.857,-1.048 -5.792,-1.573 -3.915,-0.88 -7.785,-1.953 -11.735,-2.699 -7.839,-1.744 -15.777,-2.958 -23.611,-4.054 -15.702,-1.991 -31.124,-2.831 -45.363,-2.558 -14.244,0.198 -27.3,1.268 -38.45,2.438 -11.152,1.17 -20.421,2.357 -27.245,2.482 -0.833,0.027 -1.629,0.034 -2.388,0.023 12.972,12.532 23.465,25.828 31.418,38.394 10.708,17.163 16.906,32.863 19.793,44.154 0.375,1.404 0.729,2.733 1.063,3.984 0.344,1.242 0.486,2.475 0.692,3.588 0.368,2.245 0.613,4.166 0.731,5.742 0.238,3.153 -0.032,4.928 -0.846,5.187 -0.815,0.259 -2.175,-0.996 -3.984,-3.524 -0.904,-1.264 -1.921,-2.846 -3.037,-4.718 -0.58,-0.927 -1.091,-1.964 -1.797,-3.002 -0.669,-1.049 -1.379,-2.164 -2.129,-3.342 -5.67,-9.514 -14.15,-22.715 -26.083,-36.818 -12.021,-14.006 -27.625,-28.829 -46.392,-41.455 -2.377,-1.521 -4.774,-3.054 -7.188,-4.599 l -1.81,-1.157 -1.883,-1.052 c -1.254,-0.705 -2.513,-1.412 -3.775,-2.121 -1.257,-0.711 -2.518,-1.425 -3.783,-2.14 -1.243,-0.752 -2.601,-1.303 -3.897,-1.969 -2.615,-1.281 -5.243,-2.569 -7.882,-3.862 -10.744,-4.748 -21.951,-8.68 -33.359,-11.694 -11.487,-2.733 -23.163,-4.544 -34.761,-5.445 -2.908,-0.11 -5.803,-0.221 -8.685,-0.33 -1.441,-0.028 -2.874,-0.187 -4.311,-0.116 -1.436,0.029 -2.867,0.058 -4.294,0.087 -1.427,0.023 -2.85,0.047 -4.268,0.07 l -2.124,0.028 -2.113,0.155 c -2.813,0.203 -5.606,0.405 -8.376,0.604 -22.146,2.105 -42.433,7.429 -59.343,13.461 -16.788,6.134 -30.322,12.843 -40.107,17.539 3.236,3.433 6.299,6.836 9.109,10.251 15.082,18.027 24.833,34.77 30.863,46.773 5.954,12.073 8.164,19.514 6.727,20.348 -1.516,0.885 -6.686,-4.829 -15.179,-14.825 -8.55,-9.925 -20.459,-24.242 -36.449,-39.151 -3.958,-3.761 -8.263,-7.443 -12.734,-11.178 -4.545,-3.641 -9.253,-7.36 -14.318,-10.793 -5.034,-3.472 -10.305,-6.84 -15.868,-9.868 -5.546,-3.057 -11.314,-5.918 -17.342,-8.313 -6.018,-2.412 -12.219,-4.557 -18.615,-6.162 -6.395,-1.601 -12.94,-2.78 -19.579,-3.505 -6.643,-0.71 -13.385,-0.84 -20.14,-0.596 l -5.082,0.272 -5.266,0.479 -2.633,0.239 -2.627,0.328 -5.251,0.645 c -27.958,3.966 -55.131,12.709 -79.09,24.311 -12.028,5.708 -23.254,12.122 -33.619,18.691 -10.369,6.569 -19.854,13.344 -28.374,19.951 -17.079,13.191 -30.365,25.555 -40.115,34.035 -9.725,8.499 -16.116,13.08 -18.961,11.078 -2.746,-1.926 -0.823,-9.847 5.954,-21.754 2.093,-3.658 4.668,-7.685 7.723,-11.98 -4.172,-1.507 -9.853,-3.667 -16.996,-6.011 -7.775,-2.511 -17.309,-5.08 -28.352,-6.979 -11.046,-1.861 -23.625,-2.937 -37.236,-2.535 -13.599,0.484 -28.23,2.464 -43.029,6.654 -14.785,4.173 -29.725,10.573 -43.554,19.486 -13.816,8.875 -26.498,20.355 -37.195,33.845 -10.671,13.501 -19.358,28.914 -25.558,45.231 -6.143,16.341 -9.79,33.562 -10.719,50.561 -0.902,17.014 0.974,33.722 5.313,49.181 4.325,15.503 11.043,29.848 19.032,42.484 7.99,12.656 17.232,23.604 26.642,32.85 9.476,9.194 19.107,16.695 28.116,22.722 9.031,5.997 17.384,10.62 24.446,14.254 4.016,2.046 7.587,3.812 10.654,5.383 2.154,-7.072 4.567,-13.839 7.188,-20.224 0.775,-1.881 1.541,-3.743 2.299,-5.584 0.737,-1.848 1.692,-3.584 2.514,-5.346 0.854,-1.747 1.697,-3.474 2.531,-5.18 0.856,-1.693 1.602,-3.41 2.565,-4.998 1.837,-3.207 3.627,-6.331 5.368,-9.369 0.835,-1.532 1.81,-2.96 2.751,-4.374 0.94,-1.412 1.867,-2.802 2.778,-4.171 3.507,-5.553 7.474,-10.287 10.915,-14.772 0.436,-0.556 0.868,-1.107 1.296,-1.651 0.462,-0.519 0.92,-1.032 1.372,-1.54 0.909,-1.01 1.798,-1.998 2.667,-2.963 1.746,-1.911 3.411,-3.734 4.991,-5.464 3.314,-3.318 6.439,-6.111 9.115,-8.549 0.676,-0.602 1.327,-1.181 1.952,-1.737 0.669,-0.511 1.311,-1.002 1.925,-1.47 1.234,-0.929 2.366,-1.755 3.394,-2.476 4.111,-2.885 6.546,-4.093 7.124,-3.464 0.579,0.629 -0.694,3.094 -3.53,7.094 -0.709,1 -1.516,2.096 -2.416,3.283 -0.453,0.59 -0.926,1.207 -1.419,1.85 -0.46,0.673 -0.938,1.373 -1.435,2.1 -1.978,2.909 -4.37,6.121 -6.917,9.789 -1.209,1.88 -2.483,3.861 -3.818,5.939 -0.672,1.029 -1.359,2.081 -2.061,3.158 -0.351,0.536 -0.706,1.078 -1.065,1.626 -0.326,0.571 -0.655,1.148 -0.988,1.731 -2.613,4.69 -5.721,9.541 -8.355,15.124 -0.696,1.369 -1.402,2.761 -2.12,4.174 -0.72,1.409 -1.473,2.824 -2.088,4.341 -1.307,2.98 -2.651,6.046 -4.032,9.193 -0.739,1.544 -1.262,3.214 -1.895,4.852 -0.613,1.646 -1.234,3.312 -1.862,4.997 -0.6,1.693 -1.332,3.354 -1.848,5.12 -0.54,1.754 -1.086,3.528 -1.638,5.32 -4.428,14.298 -7.856,30.17 -9.366,47.085 -1.52,16.899 -1.11,34.834 1.902,52.854 2.983,18.007 8.652,36.097 16.84,53.361 8.171,17.263 18.827,33.67 31.414,48.39 12.685,14.639 27.272,27.558 42.989,38.131 15.718,10.591 32.532,18.794 49.584,24.382 17.065,5.62 34.378,8.718 50.949,9.841 16.584,1.135 32.42,0.305 46.892,-1.659 1.813,-0.242 3.608,-0.481 5.383,-0.717 1.782,-0.208 3.498,-0.646 5.224,-0.947 1.723,-0.327 3.426,-0.65 5.108,-0.97 1.678,-0.339 3.37,-0.562 4.976,-1.017 3.252,-0.797 6.422,-1.574 9.502,-2.328 1.561,-0.331 3.047,-0.813 4.522,-1.263 1.478,-0.444 2.935,-0.882 4.368,-1.313 5.815,-1.551 11.01,-3.667 15.99,-5.3 0.62,-0.21 1.235,-0.418 1.843,-0.624 0.591,-0.241 1.176,-0.48 1.755,-0.716 1.164,-0.468 2.302,-0.925 3.414,-1.373 2.234,-0.887 4.382,-1.716 6.44,-2.487 4.023,-1.7 7.603,-3.304 10.852,-4.535 0.815,-0.307 1.6,-0.603 2.354,-0.886 0.736,-0.315 1.443,-0.618 2.119,-0.907 1.364,-0.565 2.631,-1.049 3.797,-1.449 4.662,-1.597 7.698,-1.853 8.732,-0.493 1.035,1.361 -0.14,4.098 -3.376,8.115 -0.809,1.004 -1.746,2.087 -2.809,3.248 -0.539,0.573 -1.102,1.172 -1.689,1.797 -0.63,0.566 -1.286,1.157 -1.967,1.769 -2.762,2.405 -5.983,5.173 -9.779,8.016 -1.942,1.342 -4.009,2.738 -6.196,4.186 -1.098,0.72 -2.221,1.456 -3.37,2.209 -0.578,0.373 -1.162,0.75 -1.753,1.131 -0.611,0.341 -1.227,0.686 -1.851,1.034 -0.52,0.282 -1.062,0.585 -1.59,0.876 1.72,1.953 3.807,4.253 6.094,6.994 1.263,1.469 2.475,3.127 3.946,4.778 1.445,1.666 2.952,3.445 4.517,5.331 6.416,7.435 14.129,16.391 23.838,25.754 9.667,9.385 21.127,19.331 34.499,28.944 13.403,9.563 28.72,18.754 45.688,26.816 2.089,1.07 4.299,1.93 6.46,2.919 2.188,0.933 4.335,1.994 6.589,2.845 4.481,1.762 8.974,3.641 13.645,5.199 2.331,0.788 4.625,1.719 7.014,2.411 2.372,0.737 4.756,1.479 7.151,2.224 2.384,0.781 4.846,1.333 7.28,2.021 2.445,0.648 4.883,1.366 7.381,1.882 2.485,0.566 4.981,1.134 7.486,1.705 2.515,0.515 5.057,0.947 7.596,1.434 1.271,0.235 2.545,0.472 3.82,0.709 1.283,0.184 2.569,0.369 3.856,0.553 2.577,0.351 5.152,0.794 7.751,1.083 10.394,1.236 20.961,1.804 31.602,1.872 10.64,-0.101 21.329,-0.842 31.976,-2.198 10.621,-1.532 21.161,-3.725 31.531,-6.56 10.314,-3.024 20.45,-6.689 30.316,-10.966 9.795,-4.441 19.311,-9.435 28.454,-14.958 9.053,-5.666 17.787,-11.73 26.021,-18.282 2.069,-1.622 4.036,-3.361 6.055,-5.025 l 3.005,-2.515 2.891,-2.628 c 1.915,-1.76 3.86,-3.477 5.738,-5.251 1.841,-1.816 3.674,-3.625 5.499,-5.427 1.864,-1.767 3.569,-3.674 5.316,-5.526 1.717,-1.88 3.53,-3.662 5.154,-5.597 1.653,-1.911 3.299,-3.812 4.935,-5.704 1.676,-1.864 3.143,-3.879 4.717,-5.795 3.167,-3.821 6.009,-7.821 8.902,-11.72 1.473,-1.932 2.742,-3.984 4.115,-5.951 1.32,-2 2.75,-3.917 3.964,-5.949 10.196,-15.968 18.342,-32.059 24.589,-47.463 6.195,-15.43 10.511,-30.14 13.508,-43.394 3.046,-13.261 4.518,-25.085 5.597,-34.873 0.237,-2.456 0.46,-4.781 0.671,-6.968 0.255,-2.194 0.28,-4.251 0.443,-6.172 0.266,-3.843 0.59,-7.135 0.712,-9.808 0.373,-5.354 0.971,-8.299 1.82,-8.393 0.849,-0.095 1.952,2.665 3.274,8.009 0.725,2.668 1.245,5.998 1.814,9.937 0.256,1.97 0.647,4.092 0.804,6.364 0.175,2.278 0.36,4.699 0.556,7.256 0.54,10.239 0.618,22.809 -1.054,37.121 -1.624,14.305 -4.746,30.374 -10.041,47.41 -3.59,11.42 -8.194,23.264 -13.838,35.249 2.301,-0.006 4.958,0.12 7.947,0.318 9.89,0.64 23.529,1.83 39.644,0.859 8.048,-0.505 16.689,-1.555 25.659,-3.346 4.476,-0.938 9.048,-1.989 13.635,-3.349 4.605,-1.287 9.221,-2.878 13.844,-4.636 18.476,-7.048 36.751,-18.1 51.465,-32.77 14.775,-14.603 26.068,-32.943 33.215,-51.644 1.783,-4.677 3.391,-9.358 4.684,-14.032 1.365,-4.657 2.41,-9.302 3.327,-13.857 1.751,-9.124 2.702,-17.932 3.038,-26.127 0.633,-16.408 -1.186,-30.245 -2.741,-40.004 -1.576,-9.766 -2.641,-15.623 -1.018,-16.363 1.476,-0.685 5.709,3.797 10.617,13.232 4.861,9.401 10.124,23.955 12.358,42.363 1.094,9.185 1.419,19.287 0.68,29.965 -0.158,2.056 -0.359,4.14 -0.587,6.237 1.651,-0.915 3.671,-1.735 6.018,-2.744 6.458,-2.418 15.315,-5.196 25.3,-9.412 9.944,-4.298 21.024,-10.13 31.554,-18.075 5.255,-3.985 10.27,-8.544 15.062,-13.435 4.646,-5.027 8.928,-10.463 12.74,-16.216 3.639,-5.858 6.818,-12.05 9.461,-18.44 2.456,-6.458 4.51,-13.025 5.901,-19.589 2.757,-13.13 3.205,-25.975 2.471,-37.036 -0.822,-11.06 -2.733,-20.363 -4.2,-27.006 -0.574,-3.403 -1.278,-6.022 -1.382,-8.047 -0.016,-0.215 -0.024,-0.419 -0.031,-0.618 -3.588,2.443 -7.144,4.696 -10.63,6.712 -11.811,6.854 -22.693,11.612 -31.895,14.693 -2.262,0.862 -4.498,1.436 -6.555,2.071 -2.078,0.583 -3.985,1.223 -5.834,1.604 -3.676,0.813 -6.767,1.551 -9.352,1.863 -5.158,0.66 -7.968,0.605 -8.19,-0.22 -0.223,-0.825 2.136,-2.421 6.666,-4.656 2.271,-1.098 5.005,-2.604 8.266,-4.152 1.641,-0.747 3.325,-1.746 5.165,-2.678 1.819,-0.983 3.801,-1.896 5.791,-3.084 8.119,-4.384 17.635,-10.252 27.773,-17.838 10.149,-7.562 20.73,-17.153 30.701,-28.778 0.626,-0.723 1.256,-1.449 1.889,-2.179 0.595,-0.761 1.193,-1.525 1.794,-2.294 1.199,-1.532 2.41,-3.08 3.632,-4.642 2.242,-3.272 4.712,-6.458 6.802,-9.976 1.062,-1.746 2.25,-3.429 3.237,-5.252 1.009,-1.806 2.025,-3.627 3.05,-5.461 1.033,-1.826 1.864,-3.766 2.821,-5.657 0.465,-0.95 0.931,-1.905 1.4,-2.862 0.414,-0.984 0.829,-1.972 1.246,-2.963 3.468,-7.855 6.162,-16.29 8.246,-25.015 1.129,-4.347 1.821,-8.835 2.606,-13.329 0.271,-2.266 0.542,-4.542 0.815,-6.829 0.168,-1.138 0.22,-2.29 0.29,-3.443 0.073,-1.151 0.145,-2.304 0.218,-3.46 C 1.58,18.744 1.253,9.345 0,0 m 27.45,30.203 c -0.155,1.355 -0.309,2.708 -0.463,4.059 -0.155,1.349 -0.294,2.697 -0.551,4.025 -0.462,2.661 -0.922,5.31 -1.379,7.946 -1.18,5.217 -2.304,10.388 -3.894,15.375 -3.007,10.009 -6.742,19.56 -11.335,28.376 -0.559,1.108 -1.115,2.212 -1.67,3.312 -0.613,1.071 -1.225,2.138 -1.834,3.201 -1.245,2.107 -2.376,4.266 -3.697,6.271 -1.317,2.006 -2.624,3.997 -3.92,5.972 -1.281,1.982 -2.756,3.804 -4.109,5.683 -2.675,3.786 -5.716,7.175 -8.533,10.618 -1.507,1.634 -3,3.253 -4.479,4.855 -0.742,0.797 -1.48,1.589 -2.214,2.378 -0.771,0.752 -1.538,1.499 -2.302,2.243 -7.385,7.242 -14.916,13.479 -22.337,18.801 0.287,0.181 0.585,0.382 0.905,0.624 1.62,1.276 3.89,3.275 6.073,6.273 4.677,5.826 10.025,15.248 13.941,27.671 3.817,12.398 6.071,27.81 4.806,44.432 -0.645,8.304 -2.26,16.844 -4.673,25.383 -2.603,8.483 -6.149,16.887 -10.599,24.891 -4.621,7.898 -10.077,15.28 -16.131,21.912 -6.188,6.487 -12.839,12.316 -19.821,17.167 -13.983,9.688 -28.916,15.654 -42.074,18.438 -13.223,2.716 -24.596,2.368 -32.251,0.395 -3.526,-0.744 -6.283,-2.059 -8.2,-3.344 -0.927,5.377 -2.209,10.814 -3.751,16.29 -1.578,5.686 -3.613,11.352 -5.872,17.025 -2.314,5.654 -5.01,11.246 -7.997,16.762 -3.051,5.482 -6.447,10.849 -10.156,16.056 -3.772,5.162 -7.867,10.142 -12.254,14.883 -4.446,4.684 -9.161,9.105 -14.094,13.224 -4.978,4.056 -10.151,7.819 -15.475,11.248 -5.36,3.365 -10.832,6.448 -16.4,9.149 -5.589,2.647 -11.204,5.068 -16.873,7.026 -5.66,1.977 -11.31,3.675 -16.924,4.961 -5.597,1.358 -11.156,2.3 -16.58,3.024 -10.865,1.366 -21.245,1.572 -30.738,0.875 -9.497,-0.725 -18.099,-2.332 -25.512,-4.41 -7.422,-2.058 -13.632,-4.69 -18.511,-7.259 -3.537,-1.909 -6.35,-3.799 -8.449,-5.58 -1.185,2.27 -2.409,4.543 -3.672,6.816 -1.189,2.281 -2.598,4.45 -3.904,6.704 -1.36,2.22 -2.622,4.528 -4.095,6.717 -2.891,4.414 -5.758,8.935 -8.978,13.283 -1.601,2.18 -3.101,4.459 -4.818,6.589 -1.685,2.157 -3.378,4.326 -5.079,6.504 -1.679,2.202 -3.557,4.254 -5.343,6.402 -1.818,2.121 -3.6,4.296 -5.55,6.334 -1.919,2.069 -3.846,4.148 -5.78,6.235 -1.98,2.043 -4.036,4.031 -6.068,6.059 l -3.073,3.03 -3.202,2.917 c -2.153,1.932 -4.261,3.935 -6.482,5.823 -8.839,7.612 -18.317,14.718 -28.25,21.37 -10.028,6.514 -20.571,12.445 -31.521,17.732 -11.027,5.127 -22.455,9.549 -34.162,13.201 -11.762,3.464 -23.741,6.138 -35.799,8.003 -12.077,1.688 -24.195,2.614 -36.223,2.761 -12.021,-0.02 -23.936,-0.678 -35.608,-2.123 -2.919,-0.343 -5.806,-0.845 -8.695,-1.263 -1.443,-0.22 -2.884,-0.44 -4.322,-0.66 -1.427,-0.275 -2.852,-0.551 -4.274,-0.826 -2.841,-0.567 -5.682,-1.088 -8.49,-1.698 -2.794,-0.673 -5.577,-1.343 -8.348,-2.011 -2.783,-0.624 -5.497,-1.456 -8.215,-2.224 -2.705,-0.809 -5.437,-1.489 -8.081,-2.403 -2.653,-0.884 -5.294,-1.765 -7.921,-2.64 -2.64,-0.837 -5.178,-1.918 -7.749,-2.862 -5.15,-1.868 -10.098,-4.08 -15.011,-6.194 -2.47,-1.027 -4.825,-2.27 -7.217,-3.388 -2.365,-1.175 -4.771,-2.225 -7.051,-3.49 -18.492,-9.619 -34.916,-20.649 -48.933,-32.177 -13.988,-11.579 -25.566,-23.614 -34.812,-35.037 -9.291,-11.402 -16.05,-22.342 -21.006,-31.582 -1.201,-2.339 -2.313,-4.56 -3.332,-6.658 -1.045,-2.081 -1.803,-4.163 -2.582,-6.043 -1.396,-3.507 -2.489,-6.532 -3.132,-9.189 -2.069,1.056 -4.192,2.092 -6.443,3.034 -1.518,0.677 -3.06,1.365 -4.627,2.063 -1.569,0.697 -3.158,1.423 -4.828,1.992 -3.326,1.206 -6.748,2.446 -10.26,3.719 -1.75,0.68 -3.589,1.121 -5.425,1.675 -1.845,0.527 -3.713,1.061 -5.602,1.6 -1.899,0.506 -3.796,1.144 -5.766,1.547 -1.967,0.424 -3.956,0.852 -5.965,1.285 -16.087,3.437 -33.995,5.383 -52.995,4.842 -18.983,-0.53 -39.061,-3.561 -59.027,-9.806 -19.981,-6.216 -39.675,-15.73 -57.767,-28.053 -18.114,-12.31 -34.672,-27.402 -48.828,-44.465 -14.057,-17.145 -25.695,-36.241 -34.311,-56.286 -8.634,-20.028 -14.212,-41.04 -16.546,-61.676 -2.364,-20.629 -1.599,-40.739 1.353,-59.319 0.989,-6.246 2.242,-12.302 3.679,-18.186 -3.693,-0.252 -7.99,-0.829 -12.878,-1.839 -8.595,-1.825 -18.848,-5.131 -30.012,-10.409 -11.138,-5.306 -23.119,-12.685 -34.949,-22.414 -11.763,-9.782 -23.364,-21.925 -33.466,-36.483 -10.097,-14.532 -18.684,-31.504 -24.253,-50.285 -5.606,-18.784 -7.964,-39.22 -6.76,-59.636 1.22,-20.428 5.885,-40.857 13.607,-60.022 7.778,-19.143 18.614,-37.023 31.87,-52.488 13.261,-15.446 29.034,-28.408 45.935,-37.962 16.875,-9.578 34.624,-15.802 51.763,-19.294 17.16,-3.506 33.72,-4.304 48.794,-3.369 15.088,1.02 28.69,3.76 40.327,7.338 11.636,3.619 21.329,7.956 28.911,12.162 7.281,4.091 12.634,7.88 16.157,10.864 6.444,-8.515 14.641,-17.886 24.661,-27.445 8.491,-8.129 18.299,-16.342 29.318,-24.207 11.014,-7.864 23.216,-15.43 36.501,-22.078 26.445,-13.483 57.327,-23.217 89.099,-26.764 l 5.964,-0.554 2.981,-0.271 2.988,-0.174 5.971,-0.326 6.168,-0.096 c 8.235,0.024 16.463,0.571 24.526,1.843 8.058,1.286 15.943,3.167 23.533,5.572 7.593,2.408 14.834,5.45 21.72,8.802 6.902,3.338 13.354,7.174 19.423,11.202 6.093,4.003 11.714,8.332 16.967,12.737 2.077,1.717 4.055,3.475 5.989,5.244 0.54,-0.602 1.098,-1.215 1.688,-1.847 7.926,-8.825 21.36,-19.478 39.578,-28.784 18.221,-9.167 41.275,-16.798 66.873,-19.835 3.207,-0.295 6.441,-0.593 9.699,-0.893 l 2.45,-0.207 2.468,-0.072 c 1.648,-0.044 3.302,-0.089 4.962,-0.133 1.659,-0.039 3.324,-0.078 4.994,-0.117 1.669,-0.076 3.345,0.084 5.024,0.119 3.358,0.146 6.734,0.292 10.122,0.439 13.539,1.134 27.192,3.552 40.535,7.242 13.267,3.969 26.088,9.171 38.114,15.371 2.938,1.667 5.865,3.328 8.777,4.98 1.435,0.857 2.931,1.604 4.3,2.55 1.388,0.913 2.772,1.825 4.152,2.733 1.376,0.911 2.747,1.819 4.114,2.725 l 2.042,1.359 1.958,1.464 c 2.589,1.964 5.159,3.914 7.708,5.848 1.967,1.574 3.877,3.177 5.755,4.794 1.219,-1.916 3.405,-4.042 6.508,-6.319 5.902,-4.217 15.118,-8.82 26.981,-12.669 11.85,-3.846 26.347,-6.833 42.362,-8.107 16.01,-1.355 33.51,-0.749 51.163,1.772 8.809,1.359 17.691,3.024 26.395,5.379 4.383,1.053 8.667,2.472 12.971,3.734 2.123,0.726 4.243,1.452 6.358,2.175 l 3.158,1.103 3.114,1.203 c 8.326,3.094 16.275,6.827 23.894,10.63 1.878,1.007 3.744,2.007 5.595,3 0.921,0.501 1.839,1.001 2.753,1.499 0.898,0.529 1.792,1.055 2.683,1.58 1.773,1.054 3.532,2.1 5.274,3.135 1.701,1.101 3.386,2.192 5.053,3.272 13.28,8.71 24.424,18.068 32.989,26.755 3.8,3.838 7.062,7.527 9.87,10.965 1.009,-0.209 2.019,-0.419 3.032,-0.63 1.276,-0.247 2.576,-0.387 3.869,-0.584 2.594,-0.362 5.201,-0.725 7.822,-1.09 l 1.97,-0.269 2.005,-0.174 c 1.339,-0.113 2.681,-0.226 4.027,-0.339 2.692,-0.167 5.401,-0.294 8.122,-0.374 2.718,0 5.456,-0.109 8.194,0.014 21.931,0.494 44.432,5.023 65.759,13.679 l 3.993,1.646 3.945,1.787 c 2.649,1.154 5.207,2.526 7.812,3.801 5.125,2.727 10.215,5.578 15.098,8.809 9.841,6.33 19.06,13.785 27.472,22.114 8.389,8.352 15.88,17.693 22.194,27.757 1.522,2.554 3.107,5.063 4.471,7.703 0.697,1.311 1.428,2.601 2.087,3.929 l 1.927,4.006 c 0.668,1.323 1.23,2.688 1.786,4.055 l 1.681,4.088 c 1.187,2.7 2.055,5.501 2.986,8.273 3.652,11.108 5.986,22.472 7.127,33.754 1.04,11.294 0.906,22.483 -0.205,33.345"
             style="fill:#61acc9;fill-opacity:1;fill-rule:nonzero;stroke:none"
             id="path76" />
        </g>
        <g
           id="g78"
           transform="translate(990.0164,1050.0135)">
          <path
             d="m 0,0 c 0,-22.854 -9.263,-41.381 -20.69,-41.381 -11.427,0 -20.691,18.527 -20.691,41.381 0,22.854 9.264,41.381 20.691,41.381 C -9.263,41.381 0,22.854 0,0"
             style="fill:#1b1b4c;fill-opacity:1;fill-rule:nonzero;stroke:none"
             id="path80" />
        </g>
        <g
           id="g82"
           transform="translate(891.1625,1197.1448)">
          <path
             d="m 0,0 c 0,-22.854 -9.263,-41.381 -20.69,-41.381 -11.427,0 -20.691,18.527 -20.691,41.381 0,22.854 9.264,41.381 20.691,41.381 C -9.263,41.381 0,22.854 0,0"
             style="fill:#3e3e7c;fill-opacity:1;fill-rule:nonzero;stroke:none"
             id="path84" />
        </g>
        <g
           id="g86"
           transform="translate(1035.5999,1171.6949)">
          <path
             d="m 0,0 c 0,-11.338 -10.719,-20.529 -23.941,-20.529 -13.223,0 -23.941,9.191 -23.941,20.529 0,11.338 10.718,20.529 23.941,20.529 C -10.719,20.529 0,11.338 0,0"
             style="fill:#3e3e7c;fill-opacity:1;fill-rule:nonzero;stroke:none"
             id="path88" />
        </g>
        <g
           id="g90"
           transform="translate(875.893,1194.2985)">
          <path
             d="M 0,0 C -9.182,0 -9.197,-14.27 0,-14.27 9.182,-14.27 9.197,0 0,0"
             style="fill:#ffffff;fill-opacity:1;fill-rule:nonzero;stroke:none"
             id="path92" />
        </g>
        <g
           id="g94"
           transform="translate(1023.0244,1182.804)">
          <path
             d="M 0,0 C -9.182,0 -9.197,-14.27 0,-14.27 9.182,-14.27 9.197,0 0,0"
             style="fill:#ffffff;fill-opacity:1;fill-rule:nonzero;stroke:none"
             id="path96" />
        </g>
        <g
           id="g98"
           transform="translate(993.3009,941.8126)">
          <path
             d="m 0,0 c -9.451,16.671 -15.401,27.774 -18.971,33.442 -3.532,5.688 -4.65,5.97 -3.61,1.432 1.033,-4.539 4.231,-13.896 9.766,-27.266 5.554,-13.357 13.468,-30.727 24.31,-51.01 5.436,-10.131 11.539,-21.024 18.613,-32.386 1.785,-2.833 3.599,-5.712 5.442,-8.637 0.923,-1.462 1.854,-2.936 2.792,-4.421 0.941,-1.483 1.866,-2.993 2.891,-4.452 4.033,-5.88 8.125,-11.983 12.468,-18.156 17.541,-24.566 38.866,-50.476 64.394,-75.884 3.211,-3.155 6.382,-6.409 9.709,-9.556 3.378,-3.096 6.783,-6.218 10.215,-9.365 1.718,-1.572 3.442,-3.15 5.173,-4.735 1.791,-1.518 3.588,-3.043 5.392,-4.573 3.617,-3.05 7.262,-6.124 10.932,-9.219 15.041,-11.937 30.817,-23.904 47.996,-34.636 8.411,-5.638 17.398,-10.576 26.328,-15.797 l 1.68,-0.972 c 0.567,-0.314 1.148,-0.602 1.722,-0.905 l 3.458,-1.795 c 2.309,-1.198 4.623,-2.398 6.943,-3.601 2.32,-1.202 4.646,-2.406 6.977,-3.614 1.154,-0.627 2.364,-1.146 3.557,-1.702 l 3.592,-1.65 c 4.798,-2.198 9.616,-4.407 14.453,-6.624 4.942,-1.982 9.904,-3.971 14.884,-5.968 2.5,-0.978 4.97,-2.032 7.508,-2.95 2.542,-0.904 5.09,-1.81 7.642,-2.717 2.541,-0.94 5.143,-1.712 7.72,-2.573 2.586,-0.833 5.164,-1.71 7.786,-2.453 41.716,-12.678 86.471,-19.179 131.581,-18.244 45.073,0.898 90.559,9.295 132.753,25.873 2.656,0.979 5.239,2.148 7.859,3.213 l 3.914,1.635 c 1.3,0.556 2.578,1.164 3.867,1.744 2.567,1.183 5.152,2.322 7.698,3.543 2.529,1.256 5.057,2.511 7.582,3.765 l 1.893,0.942 1.862,1.003 3.72,2.006 c 2.482,1.331 4.963,2.658 7.374,4.108 2.426,1.423 4.849,2.844 7.271,4.264 2.374,1.499 4.746,2.996 7.116,4.491 9.443,6.017 18.564,12.594 27.224,19.787 8.661,7.181 16.822,15.04 24.147,23.65 3.663,4.32 7.132,8.733 10.327,13.48 3.173,4.72 6.11,9.568 8.684,14.573 2.56,5.01 4.874,10.114 6.854,15.318 1.951,5.214 3.66,10.488 5.046,15.823 5.523,21.335 6.321,43.466 2.314,64.344 -3.981,20.876 -12.943,40.424 -26.099,56.071 l -2.516,2.881 c -0.836,0.958 -1.75,1.839 -2.62,2.758 -1.723,1.857 -3.617,3.519 -5.437,5.241 -0.934,0.833 -1.901,1.624 -2.849,2.434 -0.945,0.813 -1.9,1.608 -2.896,2.347 -0.984,0.754 -1.966,1.506 -2.946,2.256 -1.011,0.705 -2.02,1.409 -3.027,2.112 l -1.512,1.047 -1.55,0.979 c -1.034,0.648 -2.066,1.295 -3.096,1.941 -1.057,0.599 -2.111,1.197 -3.163,1.793 l -1.578,0.891 -1.608,0.821 c -1.073,0.544 -2.143,1.086 -3.211,1.628 -1.09,0.495 -2.177,0.989 -3.261,1.483 -2.152,1.024 -4.388,1.826 -6.569,2.722 -8.837,3.31 -17.867,5.57 -26.855,6.82 -8.999,1.186 -17.952,1.38 -26.637,0.572 -8.681,-0.871 -17.082,-2.734 -24.949,-5.53 -7.88,-2.766 -15.159,-6.611 -21.679,-11.111 -6.537,-4.511 -12.257,-9.861 -16.992,-15.623 -4.752,-5.765 -8.578,-11.937 -11.592,-18.197 -6.03,-12.548 -8.847,-25.362 -9.602,-37.155 -0.405,-5.907 -0.156,-11.589 0.429,-16.941 0.247,-2.683 0.752,-5.27 1.173,-7.789 0.583,-2.496 1.061,-4.937 1.793,-7.251 2.625,-9.328 6.635,-17.034 10.842,-23.063 4.227,-6.047 8.42,-9.961 11.619,-12.571 3.25,-2.582 5.624,-3.793 6.833,-4.231 1.22,-0.427 1.371,0.025 0.579,1.249 -0.397,0.612 -1.03,1.417 -1.89,2.399 -0.845,0.999 -1.807,2.295 -3.025,3.713 -2.269,2.998 -5.191,6.903 -7.977,12.127 -2.79,5.207 -5.435,11.72 -7.279,19.492 -1.781,7.776 -2.728,16.839 -2,26.746 0.74,9.873 3.027,20.637 7.778,31.134 4.698,10.471 11.82,20.708 21.633,28.607 1.223,0.986 2.529,1.877 3.791,2.841 1.348,0.884 2.718,1.774 4.103,2.648 1.443,0.784 2.843,1.661 4.333,2.404 0.746,0.368 1.495,0.737 2.247,1.107 l 1.129,0.555 1.165,0.492 c 6.189,2.702 12.905,4.703 19.975,5.904 7.084,1.139 14.504,1.481 22.061,0.992 7.557,-0.515 15.233,-1.944 22.82,-4.167 7.566,-2.296 15.04,-5.433 22.125,-9.467 7.054,-4.075 13.791,-8.949 19.719,-14.766 11.888,-11.428 20.804,-26.842 25.619,-43.996 4.851,-17.154 5.687,-36.059 2.439,-54.624 -3.236,-18.554 -10.556,-36.833 -21.818,-52.473 -5.688,-7.879 -12.336,-15.309 -19.694,-22.178 -7.348,-6.888 -15.364,-13.286 -23.852,-19.244 -4.241,-2.981 -8.588,-5.886 -13.051,-8.624 -4.393,-2.849 -8.972,-5.415 -13.51,-8.065 -9.205,-5.078 -18.637,-9.827 -28.327,-14.089 -9.718,-4.19 -19.618,-8.04 -29.716,-11.38 -10.117,-3.277 -20.366,-6.213 -30.752,-8.631 -41.555,-9.693 -84.845,-11.987 -126.738,-7.84 -10.474,1.056 -20.882,2.412 -31.147,4.279 -2.572,0.436 -5.138,0.885 -7.683,1.424 -2.549,0.515 -5.096,1.029 -7.638,1.542 -5.051,1.18 -10.117,2.242 -15.095,3.586 -10.005,2.498 -19.816,5.474 -29.455,8.699 -2.404,0.826 -4.803,1.65 -7.197,2.473 -2.366,0.913 -4.726,1.824 -7.082,2.733 -4.705,1.839 -9.417,3.607 -14.064,5.477 -36.87,15.717 -70.643,35.206 -99.982,57.113 -29.459,21.754 -55.021,45.133 -76.663,68.171 -2.657,2.927 -5.282,5.82 -7.876,8.677 -1.298,1.429 -2.588,2.85 -3.87,4.261 -1.273,1.42 -2.587,2.788 -3.777,4.248 -4.838,5.77 -9.644,11.322 -14.164,16.843 -4.414,5.61 -8.7,11.057 -12.852,16.333 -3.976,5.415 -7.822,10.654 -11.533,15.708 -0.464,0.633 -0.926,1.262 -1.385,1.889 -0.439,0.641 -0.875,1.279 -1.309,1.914 -0.869,1.271 -1.73,2.529 -2.583,3.776 -1.707,2.492 -3.381,4.936 -5.021,7.331 -3.316,4.766 -6.361,9.429 -9.225,13.908 -5.74,8.95 -10.752,17.174 -15.103,24.509 C 9.781,-17.65 3.724,-6.528 0,0"
             style="fill:#276689;fill-opacity:1;fill-rule:nonzero;stroke:none"
             id="path100" />
        </g>
        <g
           id="g102"
           transform="translate(1304.1655,597.208)">
          <path
             d="m 0,0 c -2.989,1.015 -5.734,1.926 -8.239,2.736 -1.261,0.387 -2.432,0.81 -3.54,1.219 -1.115,0.395 -2.169,0.768 -3.161,1.12 -3.983,1.383 -7.046,2.33 -9.228,2.861 -4.367,1.063 -5.211,0.461 -2.882,-1.635 4.701,-4.025 21.722,-15.11 50.092,-26.514 3.565,-1.365 7.282,-2.788 11.142,-4.266 1.94,-0.716 3.892,-1.524 5.928,-2.196 2.037,-0.671 4.109,-1.353 6.217,-2.048 2.11,-0.69 4.256,-1.391 6.436,-2.104 2.184,-0.701 4.387,-1.471 6.675,-2.065 4.56,-1.262 9.255,-2.562 14.078,-3.897 19.403,-4.919 41.237,-9.086 64.977,-11.455 23.728,-2.38 49.356,-2.96 76.042,-0.961 3.335,0.272 6.687,0.546 10.058,0.821 l 2.531,0.211 2.527,0.316 c 1.687,0.211 3.378,0.423 5.074,0.636 3.391,0.428 6.798,0.859 10.222,1.291 3.415,0.487 6.824,1.136 10.26,1.704 3.431,0.598 6.882,1.159 10.338,1.8 3.445,0.727 6.916,1.405 10.377,2.187 3.449,0.827 6.932,1.578 10.389,2.484 1.729,0.451 3.46,0.904 5.195,1.357 1.737,0.443 3.47,0.912 5.194,1.425 27.689,7.815 55.251,18.847 81.405,33.151 26.118,14.341 50.795,32.023 72.484,52.699 21.666,20.68 40.179,44.483 54.167,70.026 0.914,1.573 1.724,3.202 2.556,4.814 0.828,1.614 1.655,3.225 2.481,4.833 1.605,3.241 3.077,6.534 4.608,9.781 1.416,3.319 2.795,6.649 4.155,9.963 1.219,3.368 2.485,6.704 3.636,10.06 4.515,13.461 7.707,27.06 9.734,40.496 4.031,26.889 3.509,53.087 -0.463,76.937 -1.97,11.932 -4.76,23.29 -8.162,33.941 -0.436,1.327 -0.87,2.649 -1.301,3.962 -0.423,1.316 -0.858,2.62 -1.36,3.894 -0.967,2.556 -1.922,5.085 -2.867,7.585 -1.054,2.454 -2.096,4.88 -3.125,7.276 -0.259,0.598 -0.517,1.194 -0.774,1.787 -0.282,0.584 -0.563,1.165 -0.844,1.745 -0.561,1.158 -1.119,2.308 -1.674,3.452 -0.555,1.14 -1.107,2.274 -1.655,3.4 -0.596,1.102 -1.189,2.198 -1.777,3.285 -1.202,2.162 -2.307,4.33 -3.546,6.388 -1.25,2.048 -2.482,4.067 -3.696,6.056 -0.59,1.002 -1.233,1.963 -1.886,2.907 -0.644,0.947 -1.284,1.887 -1.919,2.819 -2.461,3.774 -5.205,7.182 -7.728,10.531 -1.282,1.661 -2.669,3.198 -3.961,4.75 -1.33,1.522 -2.541,3.085 -3.913,4.466 -10.513,11.439 -20.743,19.448 -29.035,24.782 -2.11,1.292 -3.996,2.417 -5.666,3.382 -0.418,0.239 -0.822,0.47 -1.212,0.693 -0.406,0.2 -0.796,0.393 -1.173,0.579 -0.759,0.358 -1.461,0.688 -2.104,0.991 -2.589,1.177 -4.319,1.788 -5.264,1.879 -1.887,0.184 -0.642,-1.71 3.239,-5.326 3.884,-3.607 10.203,-9.274 17.865,-17.375 7.645,-8.109 16.471,-18.87 24.976,-32.577 1.048,-1.723 2.047,-3.519 3.104,-5.316 0.525,-0.901 1.054,-1.809 1.588,-2.725 0.493,-0.94 0.99,-1.887 1.491,-2.842 0.988,-1.917 2.036,-3.838 3.026,-5.827 0.944,-2.014 1.902,-4.057 2.873,-6.13 3.739,-8.356 7.235,-17.394 10.197,-27.096 5.797,-19.429 9.622,-41.453 9.98,-64.988 0.37,-23.501 -2.726,-48.511 -10.377,-73.052 -3.822,-12.293 -8.801,-24.29 -14.963,-36.163 C 483.7,127.083 476.547,115.567 468.475,104.549 452.371,82.465 432.42,62.567 410.254,45.467 388.095,28.323 363.63,14.082 338.355,2.793 313.073,-8.51 286.961,-16.867 261.218,-22.38 c -25.807,-5.493 -51.207,-8.356 -75.248,-9.23 -24.048,-0.872 -46.753,0.19 -67.371,2.62 -1.29,0.138 -2.578,0.239 -3.85,0.403 -1.27,0.18 -2.532,0.359 -3.787,0.537 -2.511,0.355 -4.991,0.705 -7.439,1.05 -2.447,0.358 -4.874,0.656 -7.25,1.048 -2.37,0.432 -4.708,0.858 -7.012,1.279 -2.306,0.418 -4.579,0.83 -6.818,1.237 -1.12,0.202 -2.232,0.403 -3.334,0.602 -1.098,0.223 -2.179,0.482 -3.256,0.718 -4.308,0.958 -8.475,1.885 -12.496,2.78 -1.004,0.232 -2.009,0.423 -2.986,0.681 -0.978,0.259 -1.945,0.516 -2.904,0.77 -1.919,0.506 -3.801,1.003 -5.644,1.49 -1.845,0.484 -3.652,0.959 -5.42,1.423 -1.768,0.468 -3.509,0.887 -5.168,1.429 -3.342,1.017 -6.526,1.985 -9.543,2.903 -1.512,0.455 -2.982,0.897 -4.41,1.327 -0.714,0.216 -1.417,0.428 -2.11,0.637 -0.683,0.236 -1.356,0.468 -2.018,0.697 -5.297,1.823 -9.927,3.387 -13.829,4.67 C 7.359,-2.704 5.652,-1.986 4.091,-1.444 2.538,-0.88 1.172,-0.398 0,0"
             style="fill:#276689;fill-opacity:1;fill-rule:nonzero;stroke:none"
             id="path104" />
        </g>
        <g
           id="g106"
           transform="translate(1597.498,1002.4628)">
          <path
             d="M 0,0 C 0.844,0.064 1.657,0.154 2.433,0.202 3.21,0.241 3.95,0.278 4.655,0.314 6.07,0.396 7.354,0.491 8.506,0.601 10.8,0.745 12.561,0.899 13.818,1.172 16.331,1.697 16.796,2.539 15.336,3.677 13.871,4.778 10.511,6.366 5.318,7.694 4.669,7.866 3.994,8.045 3.294,8.231 2.591,8.401 1.856,8.532 1.097,8.685 c -1.519,0.297 -3.145,0.598 -4.876,0.901 -3.468,0.441 -7.354,0.932 -11.622,1.069 -8.528,0.368 -18.589,-0.156 -29.614,-2.167 -11.011,-2.033 -22.946,-5.614 -35.113,-10.932 -6.078,-2.674 -12.182,-5.821 -18.303,-9.332 -6.068,-3.592 -12.121,-7.587 -18.074,-11.993 -5.915,-4.453 -11.716,-9.324 -17.337,-14.58 -5.632,-5.249 -10.983,-10.98 -16.114,-17.027 -10.271,-12.068 -19.294,-25.833 -26.554,-40.547 -3.532,-7.399 -6.859,-14.946 -9.469,-22.779 -1.433,-3.866 -2.514,-7.863 -3.691,-11.815 -0.589,-1.976 -1.003,-4.009 -1.507,-6.009 -0.464,-2.012 -1.013,-3.998 -1.349,-6.041 -0.376,-2.03 -0.752,-4.058 -1.128,-6.084 -0.205,-1.009 -0.339,-2.033 -0.467,-3.057 l -0.399,-3.066 c -0.618,-4.069 -0.837,-8.193 -1.13,-12.279 l -0.099,-1.533 -0.022,-1.541 -0.037,-3.074 -0.032,-3.065 -0.012,-1.529 0.075,-1.533 c 0.106,-2.039 0.211,-4.073 0.316,-6.102 l 0.082,-1.519 0.17,-1.515 0.354,-3.022 c 0.819,-8.052 2.687,-15.906 4.9,-23.465 0.648,-1.866 1.295,-3.724 1.938,-5.574 0.329,-0.921 0.635,-1.846 0.983,-2.754 0.39,-0.894 0.779,-1.786 1.167,-2.676 0.781,-1.772 1.559,-3.536 2.333,-5.292 0.842,-1.739 1.751,-3.473 2.67,-5.158 7.564,-13.44 17.648,-24.238 28.418,-32.246 10.77,-8.045 22.201,-13.405 32.971,-16.41 10.776,-3.063 20.899,-3.601 29.291,-2.776 8.423,0.924 15.108,3.193 19.79,5.667 4.688,2.5 6.841,4.647 7.295,5.789 0.44,1.17 -0.894,1.554 -3.595,1.29 -2.732,-0.175 -6.881,-0.954 -12.394,-1.224 -2.76,-0.09 -5.83,-0.219 -9.217,0.027 -1.687,0.039 -3.455,0.297 -5.285,0.454 -1.831,0.285 -3.73,0.514 -5.685,0.94 -3.91,0.776 -8.058,1.878 -12.349,3.413 -4.283,1.558 -8.706,3.535 -13.145,5.987 -8.859,4.902 -17.866,11.701 -25.593,20.512 -3.865,4.392 -7.417,9.256 -10.461,14.526 -0.745,1.324 -1.462,2.673 -2.168,4.033 -0.329,0.69 -0.658,1.382 -0.989,2.076 l -0.499,1.041 -0.442,1.109 c -1.141,2.973 -2.521,5.887 -3.393,9.036 -0.484,1.555 -1.016,3.102 -1.482,4.678 -0.385,1.604 -0.772,3.214 -1.16,4.83 l -0.596,2.427 -0.414,2.485 c -0.284,1.66 -0.569,3.325 -0.855,4.995 -0.176,1.694 -0.352,3.393 -0.529,5.096 l -0.268,2.562 c -0.08,0.857 -0.076,1.726 -0.119,2.59 -0.069,1.732 -0.138,3.469 -0.208,5.209 -0.017,1.745 0.066,3.502 0.088,5.26 0.257,14.083 3.02,28.479 7.236,42.455 2.241,6.953 4.706,13.874 7.755,20.528 2.94,6.704 6.298,13.19 9.975,19.399 7.326,12.468 16.114,23.834 25.538,33.93 4.739,5.027 9.675,9.699 14.68,14.062 5.007,4.367 10.184,8.284 15.322,11.938 5.158,3.629 10.383,6.816 15.507,9.753 1.301,0.696 2.59,1.385 3.866,2.068 0.639,0.342 1.275,0.683 1.908,1.021 0.644,0.314 1.285,0.626 1.923,0.936 1.276,0.623 2.54,1.239 3.789,1.849 1.272,0.561 2.529,1.117 3.772,1.666 9.963,4.385 19.457,7.303 27.89,9.226 8.438,1.919 15.818,2.929 21.719,3.38 0.738,0.072 1.453,0.141 2.144,0.208 0.691,0.037 1.359,0.073 2.001,0.107 1.29,0.082 2.48,0.158 3.566,0.227 C -3.09,-0.143 -1.326,-0.129 0,0"
             style="fill:#276689;fill-opacity:1;fill-rule:nonzero;stroke:none"
             id="path108" />
        </g>
        <g
           id="g110"
           transform="translate(970.9162,939.4894)">
          <path
             d="m 0,0 c -6.769,16.452 -10.116,21.34 -10.653,16.823 -0.267,-2.256 0.169,-6.858 1.231,-13.513 0.266,-1.664 0.571,-3.456 0.913,-5.371 0.39,-1.902 0.842,-3.92 1.323,-6.059 0.97,-4.276 2.093,-9.025 3.383,-14.202 5.512,-20.58 14.452,-47.814 28.018,-78.16 1.748,-3.768 3.526,-7.601 5.333,-11.495 0.909,-1.945 1.825,-3.906 2.748,-5.881 0.982,-1.945 1.972,-3.905 2.968,-5.879 2.002,-3.945 4.032,-7.945 6.088,-11.996 2.181,-3.985 4.389,-8.02 6.623,-12.1 1.122,-2.038 2.251,-4.087 3.385,-6.146 1.196,-2.025 2.399,-4.059 3.607,-6.104 2.43,-4.082 4.843,-8.23 7.367,-12.359 5.212,-8.153 10.378,-16.541 16.105,-24.706 5.519,-8.307 11.571,-16.392 17.57,-24.616 3.088,-4.046 6.254,-8.059 9.4,-12.106 1.595,-2.007 3.119,-4.074 4.781,-6.037 1.642,-1.978 3.286,-3.958 4.932,-5.94 1.648,-1.981 3.298,-3.964 4.949,-5.948 0.832,-0.987 1.64,-1.994 2.492,-2.964 l 2.567,-2.905 c 3.428,-3.868 6.86,-7.74 10.293,-11.614 7.099,-7.532 14.089,-15.169 21.488,-22.356 7.215,-7.367 14.821,-14.28 22.254,-21.244 7.673,-6.708 15.16,-13.498 22.959,-19.742 1.93,-1.583 3.853,-3.162 5.77,-4.736 l 2.878,-2.346 c 0.979,-0.755 1.956,-1.509 2.932,-2.261 3.905,-3.001 7.782,-5.981 11.627,-8.936 3.872,-2.919 7.822,-5.669 11.677,-8.462 1.936,-1.386 3.862,-2.765 5.778,-4.137 1.935,-1.346 3.9,-2.631 5.834,-3.936 3.878,-2.588 7.715,-5.149 11.506,-7.68 3.87,-2.406 7.694,-4.783 11.466,-7.129 1.887,-1.166 3.762,-2.324 5.624,-3.474 1.882,-1.117 3.777,-2.184 5.645,-3.262 3.742,-2.139 7.428,-4.245 11.052,-6.316 3.642,-2.037 7.309,-3.893 10.863,-5.781 1.783,-0.933 3.549,-1.857 5.299,-2.772 1.748,-0.914 3.474,-1.828 5.23,-2.646 3.49,-1.667 6.907,-3.301 10.247,-4.897 3.341,-1.589 6.595,-3.15 9.853,-4.505 3.239,-1.384 6.394,-2.732 9.462,-4.043 3.067,-1.305 6.045,-2.568 8.999,-3.644 5.878,-2.21 11.364,-4.286 16.495,-6.048 10.355,-3.316 19.023,-5.977 25.955,-7.309 13.767,-2.886 15.952,-1.747 9.378,2.391 -1.645,1.035 -3.839,2.257 -6.542,3.653 -1.352,0.698 -2.83,1.439 -4.431,2.221 -0.801,0.387 -1.632,0.789 -2.492,1.204 -0.851,0.434 -1.731,0.882 -2.638,1.345 -3.631,1.848 -7.723,3.869 -12.24,6.046 -1.128,0.545 -2.282,1.102 -3.462,1.671 -1.165,0.599 -2.355,1.212 -3.569,1.837 -2.432,1.236 -4.962,2.521 -7.584,3.854 -20.938,10.689 -47.418,25.094 -75.902,43.766 -3.531,2.377 -7.113,4.788 -10.741,7.231 -1.806,1.234 -3.666,2.414 -5.462,3.711 -1.803,1.288 -3.616,2.583 -5.44,3.886 -3.635,2.622 -7.374,5.189 -11.046,7.929 -3.655,2.76 -7.347,5.55 -11.071,8.363 -3.769,2.758 -7.377,5.789 -11.102,8.729 -3.692,2.981 -7.493,5.887 -11.125,9.046 -3.677,3.107 -7.376,6.233 -11.096,9.376 -3.635,3.24 -7.289,6.498 -10.958,9.768 -29.211,26.33 -57.097,56.101 -81.474,86.952 -12.15,15.448 -23.651,31.009 -33.91,46.593 -1.302,1.936 -2.599,3.863 -3.889,5.78 -1.275,1.927 -2.472,3.89 -3.703,5.818 -2.448,3.868 -4.869,7.696 -7.263,11.479 -2.286,3.849 -4.546,7.652 -6.775,11.405 -1.116,1.877 -2.225,3.742 -3.326,5.594 -1.049,1.881 -2.091,3.748 -3.125,5.602 -16.669,29.607 -29.221,56.869 -38.102,78.31 -1.107,2.682 -2.274,5.231 -3.227,7.74 -0.98,2.501 -1.92,4.898 -2.817,7.186 -0.908,2.287 -1.772,4.465 -2.592,6.529 -0.414,1.032 -0.817,2.035 -1.208,3.01 -0.367,0.983 -0.722,1.936 -1.067,2.86 C 3.574,-8.659 1.432,-3.196 0,0"
             style="fill:#276689;fill-opacity:1;fill-rule:nonzero;stroke:none"
             id="path112" />
        </g>
        <g
           id="g114"
           transform="translate(1556.028,500.7854)">
          <path
             d="m 0,0 c -10.203,-3.08 -13.393,-5.307 -10.759,-6.793 2.622,-1.461 11.084,-2.363 23.865,-1.928 12.751,0.55 29.82,2.509 49.23,6.967 2.417,0.593 4.875,1.196 7.373,1.809 1.248,0.312 2.507,0.626 3.774,0.943 1.256,0.355 2.522,0.713 3.797,1.074 2.548,0.73 5.133,1.471 7.75,2.221 2.59,0.834 5.214,1.679 7.867,2.534 1.325,0.432 2.658,0.867 3.998,1.305 1.325,0.478 2.657,0.958 3.996,1.441 2.674,0.976 5.385,1.936 8.097,2.965 5.379,2.166 10.888,4.288 16.325,6.769 5.498,2.344 10.921,5.031 16.416,7.679 5.409,2.818 10.907,5.578 16.248,8.682 5.413,2.973 10.676,6.255 15.966,9.485 5.19,3.392 10.424,6.716 15.433,10.332 5.094,3.49 9.958,7.262 14.826,10.932 4.745,3.838 9.51,7.564 13.981,11.534 4.565,3.855 8.861,7.911 13.105,11.861 2.106,1.994 4.119,4.053 6.145,6.053 1.007,1.006 2.01,2.007 3.007,3.003 0.983,1.01 1.933,2.045 2.891,3.059 1.902,2.038 3.783,4.054 5.642,6.046 1.79,2.053 3.559,4.082 5.303,6.084 0.867,1.003 1.727,2 2.582,2.99 0.824,1.015 1.643,2.024 2.456,3.024 1.61,2.01 3.195,3.989 4.755,5.936 1.537,1.962 2.97,3.957 4.406,5.884 1.414,1.946 2.85,3.811 4.144,5.729 1.292,1.914 2.558,3.789 3.795,5.622 1.228,1.834 2.43,3.622 3.508,5.434 1.089,1.799 2.15,3.552 3.181,5.256 1.024,1.706 2.011,3.364 2.884,5.029 1.778,3.305 3.424,6.397 4.839,9.315 2.72,5.913 4.837,10.914 5.959,15.052 2.36,8.194 1.265,9.95 -2.342,6.914 -1.826,-1.509 -4.201,-4.273 -7.251,-7.969 -1.548,-1.833 -3.235,-3.918 -5.049,-6.234 -0.892,-1.168 -1.861,-2.363 -2.882,-3.598 -1.003,-1.246 -2.046,-2.542 -3.127,-3.885 -8.638,-10.734 -19.873,-24.316 -33.691,-38.672 -3.526,-3.517 -7.026,-7.263 -10.852,-10.855 -1.897,-1.811 -3.771,-3.69 -5.736,-5.512 -1.976,-1.812 -3.971,-3.643 -5.984,-5.49 C 211.725,100.75 203.149,93.349 193.992,86.364 175.804,72.24 155.803,59.157 135.536,48.136 125.394,42.651 115.252,37.532 105.221,33.12 c -1.249,-0.565 -2.492,-1.128 -3.73,-1.687 -1.241,-0.55 -2.495,-1.051 -3.732,-1.577 C 95.278,28.815 92.824,27.783 90.398,26.765 87.945,25.812 85.52,24.871 83.128,23.942 81.931,23.476 80.742,23.013 79.561,22.553 78.369,22.125 77.185,21.701 76.01,21.28 57.225,14.458 40.189,9.72 26.876,6.48 23.558,5.605 20.454,4.933 17.62,4.284 14.784,3.654 12.228,2.968 9.942,2.501 5.379,1.513 1.994,0.668 0,0"
             style="fill:#276689;fill-opacity:1;fill-rule:nonzero;stroke:none"
             id="path116" />
        </g>
        <g
           id="g118">
          <g
             id="g120" />
          <g
             id="g132">
            <g
               clip-path="url(#clipPath124)"
               id="g130">
              <g
                 transform="translate(868.857,1066.9294)"
                 id="g128">
                <path
                   d="m 0,0 c -7.934,-34.517 -43.887,-55.712 -80.303,-47.342 -36.417,8.371 -59.506,43.138 -51.572,77.655 7.933,34.516 43.887,55.712 80.303,47.341 C -15.156,69.284 7.934,34.517 0,0"
                   style="fill:#ffccd9;fill-opacity:1;fill-rule:nonzero;stroke:none"
                   id="path126" />
              </g>
            </g>
          </g>
        </g>
        <g
           id="g134">
          <g
             id="g136" />
          <g
             id="g148">
            <g
               clip-path="url(#clipPath140)"
               id="g146">
              <g
                 transform="translate(1174.0001,1078.5679)"
                 id="g144">
                <path
                   d="m 0,0 c -7.934,-34.517 -43.887,-55.712 -80.303,-47.341 -36.417,8.37 -59.506,43.137 -51.572,77.654 7.933,34.516 43.886,55.712 80.303,47.341 C -15.156,69.284 7.934,34.517 0,0"
                   style="fill:#ffccd9;fill-opacity:1;fill-rule:nonzero;stroke:none"
                   id="path142" />
              </g>
            </g>
          </g>
        </g>
      </g>
    </g>
  </g>
</svg>
