<?xml version="1.0" encoding="UTF-8" standalone="no"?>
<!-- Created with Inkscape (http://www.inkscape.org/) -->

<svg
   version="1.1"
   id="svg2"
   width="666.66669"
   height="666.66669"
   viewBox="0 0 666.66669 666.66669"
   sodipodi:docname="wind.svg"
   inkscape:version="1.2.2 (b0a8486541, 2022-12-01)"
   xmlns:inkscape="http://www.inkscape.org/namespaces/inkscape"
   xmlns:sodipodi="http://sodipodi.sourceforge.net/DTD/sodipodi-0.dtd"
   xmlns="http://www.w3.org/2000/svg"
   xmlns:svg="http://www.w3.org/2000/svg">
  <defs
     id="defs6">
    <clipPath
       clipPathUnits="userSpaceOnUse"
       id="clipPath20">
      <path
         d="M 0,500 H 500 V 0 H 0 Z"
         id="path18" />
    </clipPath>
  </defs>
  <sodipodi:namedview
     id="namedview4"
     pagecolor="#ffffff"
     bordercolor="#000000"
     borderopacity="0.25"
     inkscape:showpageshadow="2"
     inkscape:pageopacity="0.0"
     inkscape:pagecheckerboard="0"
     inkscape:deskcolor="#d1d1d1"
     showgrid="false"
     inkscape:zoom="1.2555"
     inkscape:cx="213.46078"
     inkscape:cy="333.73159"
     inkscape:window-width="1920"
     inkscape:window-height="1003"
     inkscape:window-x="0"
     inkscape:window-y="0"
     inkscape:window-maximized="1"
     inkscape:current-layer="g10">
    <inkscape:page
       x="0"
       y="0"
       id="page8"
       width="666.66669"
       height="666.66669" />
  </sodipodi:namedview>
  <g
     id="g10"
     inkscape:groupmode="layer"
     inkscape:label="Page 1"
     transform="matrix(1.3333333,0,0,-1.3333333,0,666.66667)">
    <path
       d="M 0,0 H 500 V 500 H 0 Z"
       style="fill:#ffffff;fill-opacity:1;fill-rule:nonzero;stroke:none"
       id="path12" />
    <g
       id="g14">
      <g
         id="g16"
         clip-path="url(#clipPath20)">
        <g
           id="g22"
           transform="translate(204.6006,500)">
          <path
             d="m 0,0 h -204.601 v -175.201 c 8.554,-2.07 17.947,-0.781 25.474,3.815 9.985,6.097 15.111,19.461 14.751,31.154 5.84,0.732 11.255,4.318 14.208,9.41 2.953,5.092 3.84,12.464 1.574,17.897 18.732,-11.743 45.144,-9.438 61.558,5.372 4.689,4.23 8.65,9.461 10.472,15.508 1.822,6.047 3.314,13.816 -0.252,19.029 7.254,2.925 12.096,12.384 8.718,19.439 18.151,0.329 36.075,7.85 49.025,20.573 C -9.897,-23.989 -3.304,-12.426 0,0"
             style="fill:#f0f6f7;fill-opacity:1;fill-rule:nonzero;stroke:none"
             id="path24" />
        </g>
        <g
           id="g26"
           transform="translate(295.3994,500)">
          <path
             d="m 0,0 h 204.601 v -175.201 c -8.554,-2.07 -17.947,-0.781 -25.474,3.815 -9.985,6.097 -15.11,19.461 -14.751,31.154 -5.84,0.732 -11.255,4.318 -14.208,9.41 -2.953,5.092 -3.84,12.464 -1.574,17.897 -18.732,-11.743 -45.144,-9.438 -61.558,5.372 -4.689,4.23 -8.65,9.461 -10.472,15.508 -1.822,6.047 -3.314,13.816 0.252,19.029 -7.254,2.925 -12.096,12.384 -8.718,19.439 -18.151,0.329 -36.075,7.85 -49.025,20.573 C 9.897,-23.989 3.304,-12.426 0,0"
             style="fill:#f0f6f7;fill-opacity:1;fill-rule:nonzero;stroke:none"
             id="path28" />
        </g>
        <g
           id="g30"
           transform="translate(204.6006)">
          <path
             d="m 0,0 h -204.601 v 175.201 c 8.554,2.069 17.947,0.781 25.474,-3.815 9.985,-6.096 15.111,-19.461 14.751,-31.154 5.84,-0.732 11.255,-4.318 14.208,-9.41 2.953,-5.092 3.84,-12.464 1.574,-17.897 18.732,11.743 45.144,9.438 61.558,-5.372 4.689,-4.23 8.65,-9.461 10.472,-15.508 1.822,-6.047 3.314,-13.816 -0.252,-19.029 7.254,-2.926 12.096,-12.384 8.718,-19.439 18.151,-0.329 36.075,-7.85 49.025,-20.572 C -9.897,23.989 -3.304,12.426 0,0"
             style="fill:#f0f6f7;fill-opacity:1;fill-rule:nonzero;stroke:none"
             id="path32" />
        </g>
        <g
           id="g34"
           transform="translate(295.3994)">
          <path
             d="m 0,0 h 204.601 v 175.201 c -8.554,2.069 -17.947,0.781 -25.474,-3.815 -9.985,-6.096 -15.11,-19.461 -14.751,-31.154 -5.84,-0.732 -11.255,-4.318 -14.208,-9.41 -2.953,-5.092 -3.84,-12.464 -1.574,-17.897 -18.732,11.743 -45.144,9.438 -61.558,-5.372 -4.689,-4.23 -8.65,-9.461 -10.472,-15.508 C 74.742,85.998 73.25,78.229 76.816,73.016 69.562,70.09 64.72,60.632 68.098,53.577 49.947,53.248 32.023,45.727 19.073,33.005 9.897,23.989 3.304,12.426 0,0"
             style="fill:#f0f6f7;fill-opacity:1;fill-rule:nonzero;stroke:none"
             id="path36" />
        </g>
        <g
           id="g38"
           transform="translate(95.5119,182.7119)">
          <path
             d="m 0,0 c 7.342,-9.995 18.791,-16.876 31.062,-18.67 12.272,-1.793 25.211,1.524 35.107,9 C 60.988,2.226 48.118,9.348 35.329,11.537 22.54,13.726 8.842,9.496 0,0"
             style="fill:#9fb4b8;fill-opacity:1;fill-rule:nonzero;stroke:none"
             id="path40" />
        </g>
        <g
           id="g42"
           transform="translate(130.8412,194.2492)">
          <path
             d="m 0,0 c -12.789,2.189 -26.487,-2.042 -35.329,-11.537 3.597,-4.897 8.183,-9.04 13.365,-12.21 6.286,0.123 12.556,1.105 18.562,2.967 1.825,-3.354 3.778,-6.799 6.086,-9.903 10.067,0.073 20.115,3.401 28.155,9.475 C 25.659,-9.312 12.789,-2.189 0,0"
             style="fill:#758487;fill-opacity:1;fill-rule:nonzero;stroke:none"
             id="path44" />
        </g>
        <g
           id="g46"
           transform="translate(95.5119,182.7119)">
          <path
             d="m 0,0 c 7.342,-9.995 18.791,-16.876 31.062,-18.67 12.272,-1.793 25.211,1.524 35.107,9 C 60.988,2.226 48.118,9.348 35.329,11.537 22.54,13.726 8.842,9.496 0,0 Z"
             style="fill:none;stroke:#244f54;stroke-width:2.5;stroke-linecap:round;stroke-linejoin:round;stroke-miterlimit:10;stroke-dasharray:none;stroke-opacity:1"
             id="path48" />
        </g>
        <g
           id="g50"
           transform="translate(249.5266,176.0798)">
          <path
             d="M 0,0 C 9.144,-8.379 21.711,-12.905 34.097,-12.281 46.483,-11.657 58.532,-5.89 66.787,3.366 59.394,14.029 45.386,18.516 32.416,18.179 19.445,17.843 6.829,11.032 0,0"
             style="fill:#9fb4b8;fill-opacity:1;fill-rule:nonzero;stroke:none"
             id="path52" />
        </g>
        <g
           id="g54"
           transform="translate(312.1979,175.6293)">
          <path
             d="m 0,0 c 0.209,4.588 -1.882,9.037 -5.079,12.379 -7.323,4.52 -16.479,6.477 -25.177,6.251 -5.626,-0.146 -11.185,-1.514 -16.234,-3.913 -1.141,-1.104 -2.153,-2.333 -2.951,-3.715 -2.553,-4.426 -1.794,-12.338 0.997,-16.617 6.689,-0.298 13.447,1.096 19.472,4.015 3.329,-3.528 7.359,-6.383 11.804,-8.19 6.293,1.955 12.176,5.227 17.148,9.548 C -0.015,-0.162 -0.004,-0.08 0,0"
             style="fill:#758487;fill-opacity:1;fill-rule:nonzero;stroke:none"
             id="path56" />
        </g>
        <g
           id="g58"
           transform="translate(249.5266,176.0798)">
          <path
             d="M 0,0 C 9.144,-8.379 21.711,-12.905 34.097,-12.281 46.483,-11.657 58.532,-5.89 66.787,3.366 59.394,14.029 45.386,18.516 32.416,18.179 19.445,17.843 6.829,11.032 0,0 Z"
             style="fill:none;stroke:#244f54;stroke-width:2.5;stroke-linecap:round;stroke-linejoin:round;stroke-miterlimit:10;stroke-dasharray:none;stroke-opacity:1"
             id="path60" />
        </g>
        <g
           id="g62"
           transform="translate(286.6639,180.6884)">
          <path
             d="m 0,0 c -48.174,-25.554 -109.904,-25.764 -158.419,-0.863 -19.416,-5.921 -40.315,-6.909 -60.203,-2.848 -7.347,1.501 -14.726,3.762 -20.721,8.268 -5.994,4.506 -10.434,11.604 -10.166,19.098 0.29,8.152 6.072,15.326 13.13,19.417 7.057,4.092 14.39,5.867 22.452,7.111 -5.896,2.46 -9.485,9.001 -9.486,15.389 -10e-4,6.388 3.137,12.487 7.535,17.12 5.695,5.999 13.594,9.856 21.826,10.657 8.232,0.802 18.468,-0.271 25.213,-5.059 -2.615,11.755 2.795,24.869 12.936,31.362 10.141,6.493 25.2,6.792 34.78,-0.503 -3.636,27.944 6.596,57.889 28.227,75.95 21.63,18.061 54.429,22.491 79.028,8.745 24.599,-13.746 38.036,-45.806 28.509,-72.326 10.2,7.251 25.189,5.05 36.461,-0.384 11.273,-5.434 19.629,-15.91 24.161,-27.574 4.532,-11.665 5.511,-24.457 4.707,-36.945 7.906,4.553 15.524,1.977 22.642,-3.73 7.117,-5.707 10.234,-15.935 7.51,-24.642 C 107.397,29.536 99.005,22.91 89.903,22.279 89.757,13.101 82.472,4.762 74.758,-0.214 50.88,-15.62 22.751,-17.028 0,0"
             style="fill:#e8fbff;fill-opacity:1;fill-rule:nonzero;stroke:none"
             id="path64" />
        </g>
        <g
           id="g66"
           transform="translate(286.6639,180.6884)">
          <path
             d="m 0,0 c -48.174,-25.554 -109.904,-25.764 -158.419,-0.863 -19.416,-5.921 -40.315,-6.909 -60.203,-2.848 -7.347,1.501 -14.726,3.762 -20.721,8.268 -5.994,4.506 -10.434,11.604 -10.166,19.098 0.29,8.152 6.072,15.326 13.13,19.417 7.057,4.092 14.39,5.867 22.452,7.111 -5.896,2.46 -9.485,9.001 -9.486,15.389 -10e-4,6.388 3.137,12.487 7.535,17.12 5.695,5.999 13.594,9.856 21.826,10.657 8.232,0.802 18.468,-0.271 25.213,-5.059 -2.615,11.755 2.795,24.869 12.936,31.362 10.141,6.493 25.2,6.792 34.78,-0.503 -3.636,27.944 6.596,57.889 28.227,75.95 21.63,18.061 54.429,22.491 79.028,8.745 24.599,-13.746 38.036,-45.806 28.509,-72.326 10.2,7.251 25.189,5.05 36.461,-0.384 11.273,-5.434 19.629,-15.91 24.161,-27.574 4.532,-11.665 5.511,-24.457 4.707,-36.945 7.906,4.553 15.524,1.977 22.642,-3.73 7.117,-5.707 10.234,-15.935 7.51,-24.642 C 107.397,29.536 99.005,22.91 89.903,22.279 89.757,13.101 82.472,4.762 74.758,-0.214 50.88,-15.62 22.751,-17.028 0,0"
             style="fill:#e8fbff;fill-opacity:1;fill-rule:nonzero;stroke:none"
             id="path68" />
        </g>
        <g
           id="g70"
           transform="translate(355.697,296.0268)">
          <path
             d="m 0,0 c -4.602,6.673 -10.655,12.288 -17.931,15.796 -11.272,5.433 -26.262,7.634 -36.461,0.384 5.885,16.381 2.999,34.871 -5.858,49.858 5.313,-17.475 4.943,-36.682 -1.307,-53.86 -0.403,-1.106 0.41,-2.6 1.563,-2.838 1.153,-0.238 2.306,0.306 3.375,0.799 10.015,4.614 21.569,5.808 32.316,3.339 C -15.155,11.376 -6.647,6.623 0,0"
             style="fill:#c7e1e6;fill-opacity:1;fill-rule:nonzero;stroke:none"
             id="path72" />
        </g>
        <g
           id="g74"
           transform="translate(208.6206,284.7128)">
          <path
             d="m 0,0 c 6.045,4.258 13.516,6.452 20.904,6.137 7.387,-0.314 14.645,-3.134 20.307,-7.89 0.955,-0.803 2.216,-1.665 3.454,-1.811 1.239,-0.146 2.613,0.281 3.296,1.325 0.682,1.044 0.367,2.704 -0.784,3.185 -6.241,2.609 -10.33,8.342 -16.774,10.4 C 19.624,14.79 7.788,8.209 0,0"
             style="fill:#c7e1e6;fill-opacity:1;fill-rule:nonzero;stroke:none"
             id="path76" />
        </g>
        <g
           id="g78"
           transform="translate(285.6423,253.251)">
          <path
             d="m 0,0 c -1.608,-4.517 -5.9,-7.676 -10.492,-9.054 -4.593,-1.377 -9.493,-1.221 -14.273,-0.854 -0.788,-2.247 0.212,-5.211 2.237,-6.464 -2.387,1.274 -4.135,3.298 -4.848,5.908 -0.713,2.61 -0.304,5.507 1.104,7.817 C -17.795,-5.764 -7.422,-5.477 0,0"
             style="fill:#c7e1e6;fill-opacity:1;fill-rule:nonzero;stroke:none"
             id="path80" />
        </g>
        <g
           id="g82"
           transform="translate(287.3711,201.7356)">
          <path
             d="M 0,0 C 26.307,-3.307 52.663,-6.229 79.056,-8.765 81.483,-3.906 78.358,1.115 73.728,3.954 69.098,6.793 63.422,7.169 57.999,7.469 37.14,8.623 16.281,9.778 -4.578,10.932 -2.059,11.97 1.164,10.752 2.367,8.307 3.57,5.863 2.36,1.363 0,0"
             style="fill:#c7e1e6;fill-opacity:1;fill-rule:nonzero;stroke:none"
             id="path84" />
        </g>
        <g
           id="g86"
           transform="translate(272.2531,197.8878)">
          <path
             d="M 0,0 C -3.166,6.204 -5.724,12.719 -7.623,19.421 -8.203,15.064 -9.273,10.394 -10.453,6.16 -12.689,5.531 -14.83,4.87 -17.066,4.241 -11.267,4.776 -4.805,3.29 0,0"
             style="fill:#c7e1e6;fill-opacity:1;fill-rule:nonzero;stroke:none"
             id="path88" />
        </g>
        <g
           id="g90"
           transform="translate(256.6547,235.2195)">
          <path
             d="m 0,0 c 2.502,-0.238 4.966,-0.866 7.276,-1.855 -0.38,-4.303 -0.067,-9.042 0.975,-13.234 2.885,4.732 5.187,10.08 6.338,15.501 0.173,0.811 0.685,1.217 0.874,2.025 C 10.392,1.661 5.111,0.439 0,0"
             style="fill:#c7e1e6;fill-opacity:1;fill-rule:nonzero;stroke:none"
             id="path92" />
        </g>
        <g
           id="g94"
           transform="translate(290.8632,275.8596)">
          <path
             d="m 0,0 c -2.449,-0.47 -4.781,-1.537 -6.737,-3.084 10.261,-3.064 20.329,-7.628 29.965,-12.299 -4.956,2.953 -9.472,6.138 -14.428,9.091 1.301,0.061 2.861,0.004 4.163,0.065 -1.481,1.596 -3.299,3.325 -5.016,4.664 1.26,1.028 2.087,1.9 3.348,2.928 C 7.534,1.641 3.703,0.711 0,0"
             style="fill:#c7e1e6;fill-opacity:1;fill-rule:nonzero;stroke:none"
             id="path96" />
        </g>
        <g
           id="g98"
           transform="translate(224.1579,273.0556)">
          <path
             d="M 0,0 C 3.226,-0.073 6.447,-0.326 9.644,-0.759 7.37,-2.709 5.295,-4.892 3.462,-7.261 8.4,-6.256 13,-5.517 17.938,-4.512 10.335,-8.075 3.599,-13.472 -1.534,-20.116 c 9.59,5.984 19.338,12.039 30.042,15.561 1.485,0.488 1.783,2.442 0.517,3.36 C 27.131,0.178 24.949,1.093 22.569,1.454 14.819,2.629 7.368,2.673 0,0"
             style="fill:#c7e1e6;fill-opacity:1;fill-rule:nonzero;stroke:none"
             id="path100" />
        </g>
        <g
           id="g102"
           transform="translate(310.1175,286.6849)">
          <path
             d="m 0,0 c -6.595,4.299 -15.914,3.887 -22.103,-0.979 -6.189,-4.865 -8.791,-13.822 -6.171,-21.246 -4.158,2.228 -7.16,7.542 -7.294,12.258 -0.133,4.716 2.065,9.36 5.523,12.569 3.458,3.21 8.079,5.032 12.774,5.489 C -10.594,8.74 -3.483,5.732 0,0"
             style="fill:#c7e1e6;fill-opacity:1;fill-rule:nonzero;stroke:none"
             id="path104" />
        </g>
        <g
           id="g106"
           transform="translate(300.1906,243.4166)">
          <path
             d="m 0,0 c 2.731,-9.196 3.323,-19.02 1.716,-28.477 3.358,4.449 5.307,9.204 4.829,14.757 C 6.067,-8.166 4.069,-3.809 0,0"
             style="fill:#c7e1e6;fill-opacity:1;fill-rule:nonzero;stroke:none"
             id="path108" />
        </g>
        <g
           id="g110"
           transform="translate(295.9933,248.8807)">
          <path
             d="m 0,0 c 5.462,-3.93 9.303,-10.047 10.469,-16.675 1.165,-6.628 -0.358,-13.688 -4.153,-19.246"
             style="fill:none;stroke:#244f54;stroke-width:2.5;stroke-linecap:round;stroke-linejoin:round;stroke-miterlimit:10;stroke-dasharray:none;stroke-opacity:1"
             id="path112" />
        </g>
        <g
           id="g114"
           transform="translate(351.655,199.9997)">
          <path
             d="m 0,0 c 6.933,0.583 13.632,3.646 18.607,8.509 4.976,4.863 8.192,11.49 8.934,18.408 C 20.661,15.905 11.252,6.479 0,0"
             style="fill:#c7e1e6;fill-opacity:1;fill-rule:nonzero;stroke:none"
             id="path116" />
        </g>
        <g
           id="g118"
           transform="translate(238.6811,236.6294)">
          <path
             d="m 0,0 c -0.284,-13.457 -6.735,-26.661 -17.176,-35.155 6.479,2.467 12.713,6.864 15.697,13.122 C 1.505,-15.775 2.161,-6.587 0,0"
             style="fill:#c7e1e6;fill-opacity:1;fill-rule:nonzero;stroke:none"
             id="path120" />
        </g>
        <g
           id="g122"
           transform="translate(271.6786,276.1265)">
          <path
             d="m 0,0 c 2.56,-5.439 5.121,-10.877 7.681,-16.315 0.811,-1.723 1.619,-3.777 0.701,-5.445 -0.618,-1.123 -1.862,-1.732 -3.051,-2.211 -3.955,-1.592 -8.176,-2.52 -12.434,-2.732 4.851,-1.493 11.226,-1.469 15.841,0.645 2.635,1.206 5.253,3.396 5.313,6.294 0.049,2.307 -1.532,4.289 -3.029,6.045 C 7.316,-9.368 3.706,-4.351 0,0"
             style="fill:#ffffff;fill-opacity:1;fill-rule:nonzero;stroke:none"
             id="path124" />
        </g>
        <g
           id="g126"
           transform="translate(110.0868,272.5965)">
          <path
             d="m 0,0 c -5.634,1.669 -11.996,1.975 -17.475,1.441 -8.232,-0.801 -16.131,-4.659 -21.826,-10.657 -4.398,-4.633 -7.536,-10.732 -7.535,-17.12 10e-4,-4.011 1.418,-8.082 3.931,-11.165 -1.496,10.485 4.217,21.42 12.795,27.862 C -21.557,-3.216 -10.727,-0.63 0,0"
             style="fill:#ffffff;fill-opacity:1;fill-rule:nonzero;stroke:none"
             id="path128" />
        </g>
        <g
           id="g130"
           transform="translate(133.4977,295.0916)">
          <path
             d="M 0,0 C 8.378,5.837 19.07,8.248 29.142,6.574 29.126,6.595 29.109,6.616 29.092,6.637 19.57,11.902 6.419,11.11 -2.737,5.249 -12.286,-0.865 -17.634,-12.85 -16.043,-24.042 -13.925,-14.412 -8.093,-5.638 0,0"
             style="fill:#ffffff;fill-opacity:1;fill-rule:nonzero;stroke:none"
             id="path132" />
        </g>
        <g
           id="g134"
           transform="translate(397.2249,230.3966)">
          <path
             d="m 0,0 c -1.478,-4.08 -3.828,-7.845 -6.908,-10.902 -5.664,-5.621 -13.465,-8.416 -21.44,-8.16 -3.45,-15.968 -18.179,-28.045 -34.22,-31.144 -16.04,-3.098 -33.663,0.748 -47.559,9.338 -11.852,-10.122 -25.781,-17.8 -40.666,-22.416 0.325,-0.35 0.64,-0.713 0.957,-1.072 13.681,3.223 26.925,8.097 39.275,14.648 22.751,-17.028 50.88,-15.62 74.758,-0.215 7.714,4.977 14.999,13.316 15.145,22.494 9.102,0.631 17.494,7.257 20.219,15.964 C 0.719,-7.763 0.812,-3.788 0,0"
             style="fill:#c7e1e6;fill-opacity:1;fill-rule:nonzero;stroke:none"
             id="path136" />
        </g>
        <g
           id="g138"
           transform="translate(197.8538,165.9379)">
          <path
             d="m 0,0 c -24.811,2.583 -52.499,13.784 -71.212,30.278 7.18,0.896 12.185,4.23 18.673,7.435 -17.783,-3.378 -37.903,-0.101 -53.694,8.745 5.484,-7.225 13.69,-12.097 22.615,-13.714 -12.691,-9.187 -28.568,-13.878 -44.214,-13.064 -10.717,0.558 -21.274,3.698 -30.612,8.98 1.832,-3.652 4.636,-6.891 7.911,-9.353 5.995,-4.506 13.374,-6.767 20.721,-8.267 19.888,-4.062 40.787,-3.073 60.203,2.848 C -32.269,-5.278 12.894,-9.55 53.685,1.141 35.819,-0.904 17.85,-1.858 0,0"
             style="fill:#c7e1e6;fill-opacity:1;fill-rule:nonzero;stroke:none"
             id="path140" />
        </g>
        <g
           id="g142"
           transform="translate(272.7959,384.5324)">
          <path
             d="m 0,0 c -24.599,13.746 -57.398,9.316 -79.028,-8.745 -16.683,-13.929 -26.577,-34.929 -28.566,-56.626 5.066,16.211 13.764,31.278 26.026,42.966 C -65.431,-7.021 -42.938,2.064 -20.721,0.2 -9.011,-0.782 2.083,-4.624 12.747,-9.678 8.956,-5.899 4.682,-2.616 0,0"
             style="fill:#ffffff;fill-opacity:1;fill-rule:nonzero;stroke:none"
             id="path144" />
        </g>
        <g
           id="g146"
           transform="translate(286.6639,180.6884)">
          <path
             d="m 0,0 c -48.174,-25.554 -109.904,-25.764 -158.419,-0.863 -19.416,-5.921 -40.315,-6.909 -60.203,-2.848 -7.347,1.501 -14.726,3.762 -20.721,8.268 -5.994,4.506 -10.434,11.604 -10.166,19.098 0.29,8.152 6.072,15.326 13.13,19.417 7.057,4.092 14.39,5.867 22.452,7.111 -5.896,2.46 -9.485,9.001 -9.486,15.389 -10e-4,6.388 3.137,12.487 7.535,17.12 5.695,5.999 13.594,9.856 21.826,10.657 8.232,0.802 18.468,-0.271 25.213,-5.059 -2.615,11.755 2.795,24.869 12.936,31.362 10.141,6.493 25.2,6.792 34.78,-0.503 -3.636,27.944 6.596,57.889 28.227,75.95 21.63,18.061 54.429,22.491 79.028,8.745 24.599,-13.746 38.036,-45.806 28.509,-72.326 10.2,7.251 25.189,5.05 36.461,-0.384 11.273,-5.434 19.629,-15.91 24.161,-27.574 4.532,-11.665 5.511,-24.457 4.707,-36.945 7.906,4.553 15.524,1.977 22.642,-3.73 7.117,-5.707 10.234,-15.935 7.51,-24.642 C 107.397,29.536 99.005,22.91 89.903,22.279 89.757,13.101 82.472,4.762 74.758,-0.214 50.88,-15.62 22.751,-17.028 0,0 Z"
             style="fill:none;stroke:#244f54;stroke-width:2.5;stroke-linecap:round;stroke-linejoin:round;stroke-miterlimit:10;stroke-dasharray:none;stroke-opacity:1"
             id="path148" />
        </g>
        <g
           id="g150"
           transform="translate(271.0688,279.6436)">
          <path
             d="m 0,0 c 2.642,-5.314 5.998,-10.271 9.951,-14.698 2.465,-2.76 5.369,-5.917 4.807,-9.575 -0.354,-2.304 -2.115,-4.216 -4.198,-5.26 -2.084,-1.045 -4.462,-1.338 -6.792,-1.42 -5.019,-0.174 -10.068,0.569 -14.824,2.183"
             style="fill:none;stroke:#244f54;stroke-width:2.5;stroke-linecap:round;stroke-linejoin:round;stroke-miterlimit:10;stroke-dasharray:none;stroke-opacity:1"
             id="path152" />
        </g>
        <g
           id="g154"
           transform="translate(235.847,241.4682)">
          <path
             d="M 0,0 C 4.943,-7.087 6.132,-16.642 3.076,-24.724 0.021,-32.806 -7.192,-39.185 -15.587,-41.23"
             style="fill:none;stroke:#244f54;stroke-width:2.5;stroke-linecap:round;stroke-linejoin:round;stroke-miterlimit:10;stroke-dasharray:none;stroke-opacity:1"
             id="path156" />
        </g>
        <g
           id="g158"
           transform="translate(227.1348,265.2116)">
          <path
             d="M 0,0 C 6.699,4.262 16.102,7.077 24.04,6.954 15.687,11.192 5.497,11.633 -3.19,8.133"
             style="fill:none;stroke:#244f54;stroke-width:2.5;stroke-linecap:round;stroke-linejoin:round;stroke-miterlimit:10;stroke-dasharray:none;stroke-opacity:1"
             id="path160" />
        </g>
        <g
           id="g162"
           transform="translate(285.2482,217.3513)">
          <path
             d="m 0,0 c -0.169,-9.124 -3.164,-16.406 -6.689,-16.264 -3.525,0.141 -6.245,7.651 -6.076,16.775 0.17,9.124 3.164,16.406 6.689,16.264 C -2.551,16.634 0.169,9.124 0,0"
             style="fill:#244f54;fill-opacity:1;fill-rule:nonzero;stroke:none"
             id="path164" />
        </g>
        <g
           id="g166"
           transform="translate(273.3864,238.3175)">
          <path
             d="M 0,0 C 0,0 -9.219,-2.387 -16.843,-2.456"
             style="fill:none;stroke:#244f54;stroke-width:2.5;stroke-linecap:round;stroke-linejoin:round;stroke-miterlimit:10;stroke-dasharray:none;stroke-opacity:1"
             id="path168" />
        </g>
        <g
           id="g170"
           transform="translate(270.7633,199.1811)">
          <path
             d="M 0,0 C 0,0 -9.408,3.893 -16.924,2.599"
             style="fill:none;stroke:#244f54;stroke-width:2.5;stroke-linecap:round;stroke-linejoin:round;stroke-miterlimit:10;stroke-dasharray:none;stroke-opacity:1"
             id="path172" />
        </g>
        <g
           id="g174"
           transform="translate(208.5003,285.2499)">
          <path
             d="m 0,0 c 5.72,6.938 14.629,11.133 23.621,11.12 8.992,-0.012 17.89,-4.231 23.59,-11.185"
             style="fill:none;stroke:#244f54;stroke-width:2.5;stroke-linecap:round;stroke-linejoin:round;stroke-miterlimit:10;stroke-dasharray:none;stroke-opacity:1"
             id="path176" />
        </g>
        <g
           id="g178"
           transform="translate(302.2466,277.7113)">
          <path
             d="M 0,0 C -4.922,-0.242 -9.787,-1.572 -14.149,-3.866 -8.897,-3.887 -3.548,-5.932 1.45,-7.544"
             style="fill:none;stroke:#244f54;stroke-width:2.5;stroke-linecap:round;stroke-linejoin:round;stroke-miterlimit:10;stroke-dasharray:none;stroke-opacity:1"
             id="path180" />
        </g>
        <g
           id="g182"
           transform="translate(279.2923,285.9802)">
          <path
             d="M 0,0 C 2.426,4.73 9.06,8.173 15.764,8.181 22.467,8.189 28.75,4.76 30.691,0.035"
             style="fill:none;stroke:#244f54;stroke-width:2.5;stroke-linecap:round;stroke-linejoin:round;stroke-miterlimit:10;stroke-dasharray:none;stroke-opacity:1"
             id="path184" />
        </g>
        <g
           id="g186"
           transform="translate(105.1286,255.8493)">
          <path
             d="m 0,0 c 2.912,6.927 9.037,12.423 16.238,14.57 7.201,2.148 15.336,0.904 21.566,-3.297"
             style="fill:none;stroke:#244f54;stroke-width:2.5;stroke-linecap:round;stroke-linejoin:round;stroke-miterlimit:10;stroke-dasharray:none;stroke-opacity:1"
             id="path188" />
        </g>
        <g
           id="g190"
           transform="translate(150.6683,252.1438)">
          <path
             d="M 0,0 C 5.067,5.428 13.902,6.871 20.432,3.336"
             style="fill:none;stroke:#244f54;stroke-width:2.5;stroke-linecap:round;stroke-linejoin:round;stroke-miterlimit:10;stroke-dasharray:none;stroke-opacity:1"
             id="path192" />
        </g>
        <g
           id="g194"
           transform="translate(160.7073,268.8365)">
          <path
             d="M 0,0 C 2.745,4.346 8.642,6.397 13.492,4.693"
             style="fill:none;stroke:#244f54;stroke-width:2.5;stroke-linecap:round;stroke-linejoin:round;stroke-miterlimit:10;stroke-dasharray:none;stroke-opacity:1"
             id="path196" />
        </g>
        <g
           id="g198"
           transform="translate(163.9838,212.6643)">
          <path
             d="M 0,0 C 3.573,3.205 8.404,4.969 13.201,4.819 17.999,4.67 22.711,2.61 26.078,-0.81"
             style="fill:none;stroke:#244f54;stroke-width:2.5;stroke-linecap:round;stroke-linejoin:round;stroke-miterlimit:10;stroke-dasharray:none;stroke-opacity:1"
             id="path200" />
        </g>
        <g
           id="g202"
           transform="translate(144.9586,217.9724)">
          <path
             d="m 0,0 c 3.573,3.205 8.404,4.969 13.201,4.82 4.798,-0.149 9.51,-2.209 12.877,-5.63"
             style="fill:none;stroke:#244f54;stroke-width:2.5;stroke-linecap:round;stroke-linejoin:round;stroke-miterlimit:10;stroke-dasharray:none;stroke-opacity:1"
             id="path204" />
        </g>
        <g
           id="g206"
           transform="translate(268.0381,190.7596)">
          <path
             d="m 0,0 c 5.694,-3.999 12.798,-5.944 19.734,-5.404 6.937,0.54 13.654,3.562 18.66,8.395 C 26.053,-1.047 12.789,-2.245 0,0"
             style="fill:#c7e1e6;fill-opacity:1;fill-rule:nonzero;stroke:none"
             id="path208" />
        </g>
        <g
           id="g210"
           transform="translate(207.0167,317.1449)">
          <path
             d="M 0,0 C 13.807,1.736 28.255,-2.383 39.071,-11.139"
             style="fill:none;stroke:#244f54;stroke-width:2.5;stroke-linecap:round;stroke-linejoin:round;stroke-miterlimit:10;stroke-dasharray:none;stroke-opacity:1"
             id="path212" />
        </g>
        <g
           id="g214"
           transform="translate(279.1311,304.1357)">
          <path
             d="M 0,0 C 2.851,3.575 7.369,5.761 11.941,5.779"
             style="fill:none;stroke:#244f54;stroke-width:2.5;stroke-linecap:round;stroke-linejoin:round;stroke-miterlimit:10;stroke-dasharray:none;stroke-opacity:1"
             id="path216" />
        </g>
        <g
           id="g218"
           transform="translate(131.3055,240.4548)">
          <path
             d="M 0,0 C -5.998,5.174 -14.525,7.265 -22.237,5.452 -29.948,3.64 -36.651,-2.03 -39.716,-9.335 -28.89,-0.827 -13.714,1.229 0,0"
             style="fill:#ffffff;fill-opacity:1;fill-rule:nonzero;stroke:none"
             id="path220" />
        </g>
        <g
           id="g222"
           transform="translate(156.8781,234.479)">
          <path
             d="M 0,0 C -3.504,3.022 -8.484,4.243 -12.989,3.185 -17.493,2.126 -21.408,-1.186 -23.199,-5.452 -16.875,-0.483 -8.011,0.718 0,0"
             style="fill:#ffffff;fill-opacity:1;fill-rule:nonzero;stroke:none"
             id="path224" />
        </g>
        <g
           id="g226"
           transform="translate(210.8212,250.2638)">
          <path
             d="M 0,0 C -4.855,4.188 -11.756,5.88 -17.997,4.413 -24.239,2.946 -29.663,-1.643 -32.144,-7.555 -23.382,-0.669 -11.1,0.994 0,0"
             style="fill:#ffffff;fill-opacity:1;fill-rule:nonzero;stroke:none"
             id="path228" />
        </g>
        <g
           id="g230"
           transform="translate(193.1769,233.6808)">
          <path
             d="M 0,0 C -3.455,2.981 -8.367,4.185 -12.81,3.141 -17.252,2.097 -21.113,-1.169 -22.879,-5.377 -16.643,-0.476 -7.9,0.708 0,0"
             style="fill:#ffffff;fill-opacity:1;fill-rule:nonzero;stroke:none"
             id="path232" />
        </g>
        <g
           id="g234"
           transform="translate(214.8548,266.0729)">
          <path
             d="M 0,0 C -3.456,2.981 -8.367,4.185 -12.81,3.141 -17.252,2.097 -21.113,-1.169 -22.879,-5.377 -16.643,-0.476 -7.9,0.708 0,0"
             style="fill:#ffffff;fill-opacity:1;fill-rule:nonzero;stroke:none"
             id="path236" />
        </g>
        <g
           id="g238"
           transform="translate(330.7104,249.7163)">
          <path
             d="M 0,0 C -2.603,2.245 -6.302,3.152 -9.647,2.366 -12.993,1.579 -15.901,-0.881 -17.231,-4.05 -12.534,-0.359 -5.95,0.533 0,0"
             style="fill:#ffffff;fill-opacity:1;fill-rule:nonzero;stroke:none"
             id="path240" />
        </g>
        <g
           id="g242"
           transform="translate(347.6249,282.8765)">
          <path
             d="M 0,0 C -2.292,2.561 -5.843,3.937 -9.263,3.588 -12.682,3.239 -15.882,1.174 -17.609,-1.797 -12.476,1.259 -5.832,1.295 0,0"
             style="fill:#ffffff;fill-opacity:1;fill-rule:nonzero;stroke:none"
             id="path244" />
        </g>
        <g
           id="g246"
           transform="translate(288.1786,327.1598)">
          <path
             d="M 0,0 C -3.456,2.981 -8.367,4.185 -12.81,3.141 -17.252,2.097 -21.113,-1.169 -22.879,-5.377 -16.643,-0.476 -7.901,0.708 0,0"
             style="fill:#ffffff;fill-opacity:1;fill-rule:nonzero;stroke:none"
             id="path248" />
        </g>
        <g
           id="g250"
           transform="translate(266.1241,332.3096)">
          <path
             d="M 0,0 C -2.817,2.43 -6.82,3.411 -10.441,2.56 -14.062,1.709 -17.209,-0.953 -18.648,-4.383 -13.565,-0.388 -6.44,0.577 0,0"
             style="fill:#ffffff;fill-opacity:1;fill-rule:nonzero;stroke:none"
             id="path252" />
        </g>
        <g
           id="g254"
           transform="translate(193.4808,291.0856)">
          <path
             d="M 0,0 C -3.456,2.981 -8.367,4.185 -12.81,3.141 -17.252,2.097 -21.113,-1.169 -22.879,-5.377 -16.643,-0.476 -7.9,0.708 0,0"
             style="fill:#ffffff;fill-opacity:1;fill-rule:nonzero;stroke:none"
             id="path256" />
        </g>
        <g
           id="g258"
           transform="translate(200.7878,302.9894)">
          <path
             d="M 0,0 C -2.735,2.359 -6.622,3.312 -10.138,2.486 -13.654,1.66 -16.71,-0.926 -18.108,-4.256 -13.172,-0.377 -6.253,0.56 0,0"
             style="fill:#ffffff;fill-opacity:1;fill-rule:nonzero;stroke:none"
             id="path260" />
        </g>
        <g
           id="g262"
           transform="translate(391.577,225.0846)">
          <path
             d="m 0,0 c 3.453,0.53 6.854,1.403 10.136,2.601 2.303,-6.846 -0.299,-14.89 -4.77,-20.562 -4.471,-5.673 -10.906,-9.483 -17.552,-12.311 -3.584,0.291 -6.336,0.837 -9.739,1.999 C -16.163,-18.122 -15.302,-8.227 0,0"
             style="fill:#ffffff;fill-opacity:1;fill-rule:nonzero;stroke:none"
             id="path264" />
        </g>
        <g
           id="g266"
           transform="translate(395.8316,219.2301)">
          <path
             d="M 0,0 C 0.594,1.897 0.878,3.883 0.902,5.882 -6.215,3.948 -13.149,2.796 -19.195,1.962 -31.541,0.258 -43.922,-0.594 -56.277,-0.594 c -18.358,0 -36.666,1.902 -54.769,5.651 0.298,-1.881 0.461,-3.942 0.462,-6.109 33.736,-4.926 68.249,-9.695 102.771,-9.752 C -4.186,-8.066 -1.341,-4.285 0,0"
             style="fill:#ffffff;fill-opacity:1;fill-rule:nonzero;stroke:none"
             id="path268" />
        </g>
        <g
           id="g270"
           transform="translate(373.9116,196.2086)">
          <path
             d="m 0,0 c 0.063,-0.009 0.125,-0.018 0.188,-0.027 0.89,2.171 1.43,4.451 1.467,6.801 0.009,0.52 0.413,0.947 0.931,0.983 2.933,0.203 5.803,1.093 8.423,2.486 -33.533,0.324 -66.99,4.935 -99.718,9.712 -0.128,-2.778 -0.517,-5.35 -1.102,-7.558 z"
             style="fill:#ffffff;fill-opacity:1;fill-rule:nonzero;stroke:none"
             id="path272" />
        </g>
        <g
           id="g274"
           transform="translate(280.4007,226.233)">
          <path
             d="m 0,0 c 31.447,-7.078 64.168,-8.458 96.099,-4.051 14.133,1.95 28.373,5.123 40.711,12.286 12.338,7.163 22.651,18.83 25.423,32.825 1.598,8.063 0.522,16.84 -4,23.704 -4.522,6.864 -12.738,11.452 -20.914,10.613 -8.177,-0.839 -15.639,-7.699 -16.178,-15.901 -0.539,-8.202 6.858,-16.339 15.051,-15.691"
             style="fill:none;stroke:#244f54;stroke-width:2.5;stroke-linecap:round;stroke-linejoin:round;stroke-miterlimit:10;stroke-dasharray:none;stroke-opacity:1"
             id="path276" />
        </g>
        <g
           id="g278"
           transform="translate(279.1093,218.065)">
          <path
             d="m 0,0 c 47.445,-6.948 95.48,-13.912 143.177,-8.991 14.03,1.448 28.882,4.373 38.988,14.212 3.556,3.462 6.428,7.814 7.299,12.699 0.871,4.886 -0.517,10.321 -4.25,13.592 -3.733,3.27 -9.885,3.763 -13.635,0.513 -3.75,-3.25 -3.781,-10.117 0.347,-12.871"
             style="fill:none;stroke:#244f54;stroke-width:2.5;stroke-linecap:round;stroke-linejoin:round;stroke-miterlimit:10;stroke-dasharray:none;stroke-opacity:1"
             id="path280" />
        </g>
        <g
           id="g282"
           transform="translate(280.0462,208.156)">
          <path
             d="m 0,0 c 31.243,-4.313 62.486,-8.625 93.729,-12.938 12.109,-1.672 25.288,-3.891 33.421,-13.017 5.973,-6.702 8.084,-16.625 5.357,-25.178 -1.883,-5.908 -6.214,-11.264 -12.098,-13.221 -5.884,-1.957 -13.202,0.206 -16.179,5.646 -2.976,5.439 -0.068,13.518 5.969,14.932"
             style="fill:none;stroke:#244f54;stroke-width:2.5;stroke-linecap:round;stroke-linejoin:round;stroke-miterlimit:10;stroke-dasharray:none;stroke-opacity:1"
             id="path284" />
        </g>
        <g
           id="g286"
           transform="translate(169.7763,362.9727)">
          <path
             d="m 0,0 c -6.426,-11.47 -10.568,-23.891 -11.922,-36.877 -0.539,-5.157 -0.571,-10.415 -0.261,-15.591 l -2.313,1.37 c -2.333,1.381 -5.234,1.924 -8.148,1.837 -9.26,-0.138 -17.236,-5.491 -24.616,-10.627 6.684,6.571 14.744,12.677 24.498,13.245 3.225,0.195 6.712,-0.177 9.746,-1.956 l -2.19,-1.327 c -0.273,4.456 -0.167,8.939 0.371,13.37 C -13.301,-23.369 -8.256,-10.354 0,0"
             style="fill:#244f54;fill-opacity:1;fill-rule:nonzero;stroke:none"
             id="path288" />
        </g>
        <g
           id="g290"
           transform="translate(306.5021,360.2426)">
          <path
             d="M 0,0 C 6.538,-6.185 9.689,-15.518 9.209,-24.448 9.006,-27.472 8.45,-30.497 7.405,-33.366 l -2.032,1.847 c 10.177,4.655 23.043,1.295 30.348,-6.926 -8.354,5.964 -19.592,8.548 -29.088,4.229 0,0 -3.214,-1.556 -3.214,-1.556 C 8.402,-23.781 7.265,-10.849 0,0"
             style="fill:#244f54;fill-opacity:1;fill-rule:nonzero;stroke:none"
             id="path292" />
        </g>
        <g
           id="g294"
           transform="translate(362.8712,302.7836)">
          <path
             d="M 0,0 C 11.277,-10.014 16.314,-26.986 12.285,-41.525 11.959,-26.751 7.78,-12.567 0,0"
             style="fill:#244f54;fill-opacity:1;fill-rule:nonzero;stroke:none"
             id="path296" />
        </g>
        <g
           id="g298"
           transform="translate(161.6107,158.373)">
          <path
             d="m 0,0 c 18.964,-3.939 38.492,-5.325 57.766,-3.384 6.422,0.636 12.819,1.617 19.245,2.787 C 53.003,-9.702 23.868,-9.462 0,0"
             style="fill:#244f54;fill-opacity:1;fill-rule:nonzero;stroke:none"
             id="path300" />
        </g>
        <g
           id="g302"
           transform="translate(59.8098,265.0462)">
          <path
             d="M 0,0 C 7.05,15.79 27.592,23.885 43.505,17.12 26.743,19.237 10.806,12.976 0,0"
             style="fill:#244f54;fill-opacity:1;fill-rule:nonzero;stroke:none"
             id="path304" />
        </g>
        <g
           id="g306"
           transform="translate(317.6514,158.2547)">
          <path
             d="m 0,0 c 15.621,1.294 30.892,5.926 44.334,13.977 4.472,2.674 8.739,5.709 12.903,9.012 C 44.077,6.541 20.881,-2.762 0,0"
             style="fill:#244f54;fill-opacity:1;fill-rule:nonzero;stroke:none"
             id="path308" />
        </g>
        <g
           id="g310"
           transform="translate(369.595,313.113)">
          <path
             d="m 0,0 c -3.392,-0.813 -7.229,1.007 -8.746,4.147 -1.518,3.141 -0.558,7.278 2.187,9.43 2.745,2.151 6.992,2.095 9.679,-0.128 -1.356,1.725 -0.208,4.694 0.812,6.637 1.02,1.942 2.9,3.323 4.928,4.16 3.835,1.584 8.557,1.275 11.786,-1.332 3.228,-2.608 4.466,-7.623 2.304,-11.165 1.673,1.173 4.296,-1.216 5.227,-3.034 C 29.108,6.896 28.63,4.594 27.436,2.936 26.241,1.278 24.444,0.16 22.614,-0.749 15.892,-4.086 6.234,-4.179 0,0"
             style="fill:#e8fbff;fill-opacity:1;fill-rule:nonzero;stroke:none"
             id="path312" />
        </g>
        <g
           id="g314"
           transform="translate(397.7721,321.8275)">
          <path
             d="M 0,0 C -0.558,1.089 -1.722,2.377 -2.925,2.987 -3.581,0.534 -5.137,-1.7 -7.179,-3.245 -10,-5.38 -13.616,-6.297 -17.154,-6.282 c -2.056,0.009 -4.169,0.337 -5.929,1.399 -1.76,1.061 -3.31,2.997 -3.286,5.052 -1.106,-1.935 -3.322,-3.182 -5.55,-3.123 -2.229,0.06 -4.375,1.422 -5.377,3.413 -0.057,-0.037 -0.111,-0.083 -0.167,-0.124 -0.343,-1.643 -0.192,-3.388 0.539,-4.902 1.518,-3.141 5.355,-4.96 8.747,-4.148 6.234,-4.178 15.892,-4.086 22.614,-0.749 1.83,0.909 3.627,2.027 4.822,3.685 C 0.453,-4.121 0.931,-1.819 0,0"
             style="fill:#c7e1e6;fill-opacity:1;fill-rule:nonzero;stroke:none"
             id="path316" />
        </g>
        <g
           id="g318"
           transform="translate(369.595,313.113)">
          <path
             d="m 0,0 c -3.392,-0.813 -7.229,1.007 -8.746,4.147 -1.518,3.141 -0.558,7.278 2.187,9.43 2.745,2.151 6.992,2.095 9.679,-0.128 -1.356,1.725 -0.208,4.694 0.812,6.637 1.02,1.942 2.9,3.323 4.928,4.16 3.835,1.584 8.557,1.275 11.786,-1.332 3.228,-2.608 4.466,-7.623 2.304,-11.165 1.673,1.173 4.296,-1.216 5.227,-3.034 C 29.108,6.896 28.63,4.594 27.436,2.936 26.241,1.278 24.444,0.16 22.614,-0.749 15.892,-4.086 6.234,-4.179 0,0 Z"
             style="fill:none;stroke:#244f54;stroke-width:2.5;stroke-linecap:round;stroke-linejoin:round;stroke-miterlimit:10;stroke-dasharray:none;stroke-opacity:1"
             id="path320" />
        </g>
        <g
           id="g322"
           transform="translate(363.8066,127.0947)">
          <path
             d="m 0,0 c 2.865,-0.687 6.106,0.85 7.388,3.503 1.281,2.653 0.47,6.147 -1.848,7.964 -2.319,1.818 -5.906,1.771 -8.175,-0.107 1.145,1.456 0.175,3.965 -0.686,5.605 -0.862,1.641 -2.449,2.808 -4.162,3.515 -3.24,1.337 -7.228,1.076 -9.955,-1.126 -2.727,-2.202 -3.773,-6.439 -1.946,-9.431 -1.413,0.992 -3.629,-1.026 -4.415,-2.562 -0.787,-1.537 -0.383,-3.481 0.626,-4.881 1.008,-1.401 2.527,-2.345 4.073,-3.113 C -13.423,-3.452 -5.265,-3.529 0,0"
             style="fill:#e8fbff;fill-opacity:1;fill-rule:nonzero;stroke:none"
             id="path324" />
        </g>
        <g
           id="g326"
           transform="translate(340.0071,134.4554)">
          <path
             d="m 0,0 c 0.471,0.92 1.454,2.007 2.47,2.523 0.554,-2.072 1.869,-3.959 3.593,-5.264 2.383,-1.803 5.437,-2.578 8.426,-2.565 1.736,0.008 3.521,0.284 5.008,1.181 1.487,0.897 2.795,2.532 2.775,4.268 0.935,-1.635 2.806,-2.688 4.688,-2.638 1.882,0.05 3.695,1.201 4.542,2.883 0.048,-0.032 0.093,-0.071 0.141,-0.105 0.289,-1.388 0.162,-2.862 -0.456,-4.141 C 29.906,-6.51 26.664,-8.047 23.799,-7.361 18.534,-10.89 10.376,-10.812 4.699,-7.993 3.153,-7.226 1.635,-6.281 0.626,-4.881 -0.383,-3.48 -0.787,-1.536 0,0"
             style="fill:#c7e1e6;fill-opacity:1;fill-rule:nonzero;stroke:none"
             id="path328" />
        </g>
        <g
           id="g330"
           transform="translate(363.8066,127.0947)">
          <path
             d="m 0,0 c 2.865,-0.687 6.106,0.85 7.388,3.503 1.281,2.653 0.47,6.147 -1.848,7.964 -2.319,1.818 -5.906,1.771 -8.175,-0.107 1.145,1.456 0.175,3.965 -0.686,5.605 -0.862,1.641 -2.449,2.808 -4.162,3.515 -3.24,1.337 -7.228,1.076 -9.955,-1.126 -2.727,-2.202 -3.773,-6.439 -1.946,-9.431 -1.413,0.992 -3.629,-1.026 -4.415,-2.562 -0.787,-1.537 -0.383,-3.481 0.626,-4.881 1.008,-1.401 2.527,-2.345 4.073,-3.113 C -13.423,-3.452 -5.265,-3.529 0,0 Z"
             style="fill:none;stroke:#244f54;stroke-width:2.5;stroke-linecap:round;stroke-linejoin:round;stroke-miterlimit:10;stroke-dasharray:none;stroke-opacity:1"
             id="path332" />
        </g>
        <g
           id="g334"
           transform="translate(444.3938,187.164)">
          <path
             d="m 0,0 c -0.236,2.683 -2.337,5.098 -4.962,5.702 -2.624,0.604 -5.57,-0.65 -6.955,-2.96 -1.385,-2.31 -1.102,-5.498 0.668,-7.528 -1.644,-1.638 -3.573,-4.533 -3.989,-6.816 -0.417,-2.283 0.257,-4.846 2.064,-6.302 1.808,-1.455 4.775,-1.436 6.284,0.327 2.132,-2.465 7.251,-3.047 10.278,-1.841 3.027,1.206 5.24,4.042 6.129,7.177 0.759,2.679 0.588,5.711 -0.916,8.054 C 7.097,-1.843 2.698,0.689 0,0"
             style="fill:#e8fbff;fill-opacity:1;fill-rule:nonzero;stroke:none"
             id="path336" />
        </g>
        <g
           id="g338"
           transform="translate(452.9949,182.9773)">
          <path
             d="m 0,0 c -0.615,0.959 -1.718,1.946 -2.988,2.734 0.423,-1.204 0.673,-2.46 0.66,-3.739 -0.029,-2.902 -1.539,-5.877 -4.143,-7.157 -2.605,-1.28 -6.214,-0.423 -7.572,2.142 -0.758,-2.151 -2.751,-3.885 -5.023,-4.083 -1.798,-0.158 -3.626,0.59 -4.87,1.89 -0.146,-2.061 0.561,-4.216 2.161,-5.504 1.808,-1.455 4.775,-1.436 6.284,0.326 2.132,-2.464 7.251,-3.046 10.278,-1.84 3.027,1.206 5.24,4.041 6.129,7.177 C 1.675,-5.375 1.504,-2.344 0,0"
             style="fill:#c7e1e6;fill-opacity:1;fill-rule:nonzero;stroke:none"
             id="path340" />
        </g>
        <g
           id="g342"
           transform="translate(444.3938,187.164)">
          <path
             d="m 0,0 c -0.236,2.683 -2.337,5.098 -4.962,5.702 -2.624,0.604 -5.57,-0.65 -6.955,-2.96 -1.385,-2.31 -1.102,-5.498 0.668,-7.528 -1.644,-1.638 -3.573,-4.533 -3.989,-6.816 -0.417,-2.283 0.257,-4.846 2.064,-6.302 1.808,-1.455 4.775,-1.436 6.284,0.327 2.132,-2.465 7.251,-3.047 10.278,-1.841 3.027,1.206 5.24,4.042 6.129,7.177 0.759,2.679 0.588,5.711 -0.916,8.054 C 7.097,-1.843 2.698,0.689 0,0 Z"
             style="fill:none;stroke:#244f54;stroke-width:2.5;stroke-linecap:round;stroke-linejoin:round;stroke-miterlimit:10;stroke-dasharray:none;stroke-opacity:1"
             id="path344" />
        </g>
        <g
           id="g346"
           transform="translate(290.9186,224.0866)">
          <path
             d="m 0,0 c -1.259,9.73 -5.784,16.92 -11.377,17.08 -3.454,0.1 -6.654,-2.501 -9.025,-6.775 -0.886,-1.599 -2.016,-4.419 -2.455,-6.194"
             style="fill:none;stroke:#244f54;stroke-width:2.5;stroke-linecap:round;stroke-linejoin:round;stroke-miterlimit:10;stroke-dasharray:none;stroke-opacity:1"
             id="path348" />
        </g>
        <g
           id="g350"
           transform="translate(266.5856,209.0033)">
          <path
             d="m 0,0 c 0.856,-1.721 1.332,-3.509 1.991,-5.315 2.098,-5.75 5.577,-9.526 9.613,-9.642 4.865,-0.139 9.227,5.076 11.475,12.782"
             style="fill:none;stroke:#244f54;stroke-width:2.5;stroke-linecap:round;stroke-linejoin:round;stroke-miterlimit:10;stroke-dasharray:none;stroke-opacity:1"
             id="path352" />
        </g>
        <g
           id="g354"
           transform="translate(170.9708,147.1125)">
          <path
             d="m 0,0 c 7.01,-0.736 13.902,-1.394 20.904,-1.625 8.993,-0.277 17.88,0.243 26.884,0.946 C 32.936,-6.29 14.695,-6.006 0,0"
             style="fill:#244f54;fill-opacity:1;fill-rule:nonzero;stroke:none"
             id="path356" />
        </g>
        <g
           id="g358"
           transform="translate(264.6888,157.7115)">
          <path
             d="M 0,0 C 11.661,-1.762 23.197,-0.897 34.478,2.536 24.927,-4.89 10.537,-5.933 0,0"
             style="fill:#244f54;fill-opacity:1;fill-rule:nonzero;stroke:none"
             id="path360" />
        </g>
        <g
           id="g362"
           transform="translate(31.1754,220.7035)">
          <path
             d="M 0,0 C 5.774,8.083 16.509,12.657 26.338,11.18 17.038,8.402 8.452,4.775 0,0"
             style="fill:#244f54;fill-opacity:1;fill-rule:nonzero;stroke:none"
             id="path364" />
        </g>
        <g
           id="g366"
           transform="translate(72.1525,285.8483)">
          <path
             d="M 0,0 C 7.319,6.695 19.027,8.553 28.047,4.412 18.39,4.284 9.226,2.859 0,0"
             style="fill:#244f54;fill-opacity:1;fill-rule:nonzero;stroke:none"
             id="path368" />
        </g>
        <g
           id="g370"
           transform="translate(198.6039,392.6521)">
          <path
             d="M 0,0 C 19.144,15.449 47.174,18.535 69.496,8.345 76.957,5.026 83.826,0.381 89.443,-5.418 83.004,-0.566 76.003,3.357 68.602,6.182 46.272,14.951 20.577,12.171 0,0"
             style="fill:#244f54;fill-opacity:1;fill-rule:nonzero;stroke:none"
             id="path372" />
        </g>
        <g
           id="g374"
           transform="translate(210.9733,407.3653)">
          <path
             d="M 0,0 C 13.322,8.513 30.593,10.164 45.743,6.18 52.645,4.279 59.336,1.209 64.894,-3.26 56.079,1.108 46.641,3.845 36.927,4.909 24.433,6.136 11.79,4.454 0,0"
             style="fill:#244f54;fill-opacity:1;fill-rule:nonzero;stroke:none"
             id="path376" />
        </g>
        <g
           id="g378"
           transform="translate(380.4125,291.7373)">
          <path
             d="m 0,0 c 2.594,-3.693 4.002,-8.028 4.743,-12.433 0.677,-4.415 0.693,-8.974 -0.626,-13.292 -0.566,2.199 -0.921,4.342 -1.298,6.47 C 1.892,-13.238 0.516,-6.069 0,0"
             style="fill:#244f54;fill-opacity:1;fill-rule:nonzero;stroke:none"
             id="path380" />
        </g>
        <g
           id="g382"
           transform="translate(377.0967,217.3096)">
          <path
             d="M 0,0 C 21.451,0.412 42.293,7.976 59.038,21.386 44.609,5.182 21.457,-3.191 0,0"
             style="fill:#244f54;fill-opacity:1;fill-rule:nonzero;stroke:none"
             id="path384" />
        </g>
        <g
           id="g386"
           transform="translate(402.7694,202.8358)">
          <path
             d="M 0,0 C 18.272,0.459 36.22,3.305 53.748,8.481 37.435,0.013 18.128,-3.02 0,0"
             style="fill:#244f54;fill-opacity:1;fill-rule:nonzero;stroke:none"
             id="path388" />
        </g>
        <g
           id="g390"
           transform="translate(411.2615,307.5778)">
          <path
             d="M 0,0 C 13.771,7.567 32.322,-2.142 33.922,-17.788 28.559,-3.915 14.473,3.492 0,0"
             style="fill:#244f54;fill-opacity:1;fill-rule:nonzero;stroke:none"
             id="path392" />
        </g>
        <g
           id="g394"
           transform="translate(423.0809,315.2457)">
          <path
             d="M 0,0 C 7.521,1.844 16.304,-2.546 19.318,-9.685 13.567,-4.992 7.206,-1.788 0,0"
             style="fill:#244f54;fill-opacity:1;fill-rule:nonzero;stroke:none"
             id="path396" />
        </g>
        <g
           id="g398"
           transform="translate(422.2232,153.6534)">
          <path
             d="m 0,0 c -3.877,-13.109 -19.609,-21.248 -32.549,-16.803 3.317,-0.061 6.533,0.196 9.649,0.85 C -13.39,-14.042 -5.347,-8.052 0,0"
             style="fill:#244f54;fill-opacity:1;fill-rule:nonzero;stroke:none"
             id="path400" />
        </g>
        <g
           id="g402"
           transform="translate(395.8714,131.5114)">
          <path
             d="M 0,0 C 8.144,0.974 15.571,3.888 22.225,8.679 18.097,1.211 8.095,-2.682 0,0"
             style="fill:#244f54;fill-opacity:1;fill-rule:nonzero;stroke:none"
             id="path404" />
        </g>
        <g
           id="g406"
           transform="translate(324.3936,224.6435)">
          <path
             d="M 0,0 C 18.198,1.003 36.232,2.41 54.37,4.2 36.852,-1.003 18.109,-2.437 0,0"
             style="fill:#244f54;fill-opacity:1;fill-rule:nonzero;stroke:none"
             id="path408" />
        </g>
        <g
           id="g410"
           transform="translate(338.4609,229.4499)">
          <path
             d="M 0,0 C 9.112,1.654 18.255,2.454 27.517,2.368 18.829,-0.962 9.129,-1.783 0,0"
             style="fill:#244f54;fill-opacity:1;fill-rule:nonzero;stroke:none"
             id="path412" />
        </g>
        <g
           id="g414"
           transform="translate(374.632,199.1006)">
          <path
             d="M 0,0 C 8.818,0.578 17.84,0.312 26.275,-2.741 34.531,-5.794 42.527,-12.429 44.217,-21.387 40.639,-13.404 33.384,-8.038 25.409,-5.084 17.305,-2.043 8.551,-1.411 0,0"
             style="fill:#244f54;fill-opacity:1;fill-rule:nonzero;stroke:none"
             id="path416" />
        </g>
        <g
           id="g418"
           transform="translate(226.431,179.092)">
          <path
             d="M 0,0 C -3.487,5.38 -9.638,8.938 -16.041,9.278 -22.443,9.618 -28.936,6.732 -32.974,1.752 -22.633,5.907 -10.377,4.064 0,0"
             style="fill:#c7e1e6;fill-opacity:1;fill-rule:nonzero;stroke:none"
             id="path420" />
        </g>
        <g
           id="g422"
           transform="translate(227.8385,326.8965)">
          <path
             d="M 0,0 C -3.487,5.38 -9.638,8.938 -16.041,9.278 -22.443,9.618 -28.936,6.732 -32.974,1.751 -22.633,5.907 -10.377,4.064 0,0"
             style="fill:#c7e1e6;fill-opacity:1;fill-rule:nonzero;stroke:none"
             id="path424" />
        </g>
        <g
           id="g426"
           transform="translate(204.7237,178.5288)">
          <path
             d="M 0,0 C -2.803,3.601 -7.383,5.746 -11.944,5.595 -16.505,5.443 -20.932,2.999 -23.49,-0.781 -16.412,2.801 -7.608,2.245 0,0"
             style="fill:#c7e1e6;fill-opacity:1;fill-rule:nonzero;stroke:none"
             id="path428" />
        </g>
        <g
           id="g430"
           transform="translate(193.7897,193.2155)">
          <path
             d="M 0,0 C -2.792,3.61 -7.365,5.77 -11.926,5.633 -16.488,5.495 -20.922,3.065 -23.492,-0.707 -16.403,2.852 -7.601,2.269 0,0"
             style="fill:#c7e1e6;fill-opacity:1;fill-rule:nonzero;stroke:none"
             id="path432" />
        </g>
        <g
           id="g434"
           transform="translate(364.1995,239.4708)">
          <path
             d="M 0,0 C -3.158,4.031 -8.305,6.422 -13.422,6.236 -18.54,6.05 -23.499,3.291 -26.356,-0.959 -18.426,3.085 -8.545,2.493 0,0"
             style="fill:#c7e1e6;fill-opacity:1;fill-rule:nonzero;stroke:none"
             id="path436" />
        </g>
        <g
           id="g438"
           transform="translate(346.9712,237.4741)">
          <path
             d="M 0,0 C -2.487,2.665 -6.283,4.045 -9.901,3.599 -13.518,3.153 -16.866,0.892 -18.631,-2.297 -13.256,1.057 -6.212,1.243 0,0"
             style="fill:#c7e1e6;fill-opacity:1;fill-rule:nonzero;stroke:none"
             id="path440" />
        </g>
        <g
           id="g442"
           transform="translate(350.3594,261.6847)">
          <path
             d="M 0,0 C -2.026,3.03 -5.552,5.002 -9.194,5.143 -12.836,5.284 -16.503,3.59 -18.758,0.726 -12.914,3.173 -5.932,2.225 0,0"
             style="fill:#c7e1e6;fill-opacity:1;fill-rule:nonzero;stroke:none"
             id="path444" />
        </g>
        <g
           id="g446"
           transform="translate(235.6905,333.735)">
          <path
             d="M 0,0 C -2.792,3.61 -7.365,5.77 -11.926,5.633 -16.488,5.496 -20.922,3.065 -23.492,-0.706 -16.403,2.853 -7.601,2.269 0,0"
             style="fill:#c7e1e6;fill-opacity:1;fill-rule:nonzero;stroke:none"
             id="path448" />
        </g>
        <g
           id="g450"
           transform="translate(261.2726,351.8214)">
          <path
             d="M 0,0 C -2.792,3.61 -7.365,5.77 -11.926,5.633 -16.488,5.495 -20.922,3.065 -23.492,-0.707 -16.403,2.852 -7.601,2.269 0,0"
             style="fill:#c7e1e6;fill-opacity:1;fill-rule:nonzero;stroke:none"
             id="path452" />
        </g>
        <g
           id="g454"
           transform="translate(157.2203,277.478)">
          <path
             d="M 0,0 C -2.792,3.61 -7.365,5.77 -11.926,5.633 -16.488,5.496 -20.922,3.065 -23.492,-0.706 -16.403,2.853 -7.601,2.269 0,0"
             style="fill:#c7e1e6;fill-opacity:1;fill-rule:nonzero;stroke:none"
             id="path456" />
        </g>
        <g
           id="g458"
           transform="translate(72.1525,202.0203)">
          <path
             d="M 0,0 C -2.159,2.792 -5.695,4.462 -9.223,4.356 -12.751,4.25 -16.181,2.37 -18.168,-0.546 -12.686,2.206 -5.878,1.755 0,0"
             style="fill:#c7e1e6;fill-opacity:1;fill-rule:nonzero;stroke:none"
             id="path460" />
        </g>
        <g
           id="g462"
           transform="translate(83.8986,197.7722)">
          <path
             d="M 0,0 C -2.792,3.61 -7.365,5.77 -11.926,5.633 -16.488,5.495 -20.923,3.065 -23.492,-0.706 -16.403,2.852 -7.601,2.269 0,0"
             style="fill:#c7e1e6;fill-opacity:1;fill-rule:nonzero;stroke:none"
             id="path464" />
        </g>
      </g>
    </g>
  </g>
</svg>
