<?xml version="1.0" encoding="UTF-8" standalone="no"?>
<!-- Created with Inkscape (http://www.inkscape.org/) -->

<svg
   width="125mm"
   height="27mm"
   viewBox="0 0 125 27"
   version="1.1"
   id="svg15895"
   inkscape:version="1.2.1 (9c6d41e410, 2022-07-14)"
   sodipodi:docname="sheme2.svg"
   xml:space="preserve"
   xmlns:inkscape="http://www.inkscape.org/namespaces/inkscape"
   xmlns:sodipodi="http://sodipodi.sourceforge.net/DTD/sodipodi-0.dtd"
   xmlns="http://www.w3.org/2000/svg"
   xmlns:svg="http://www.w3.org/2000/svg"><sodipodi:namedview
     id="namedview15897"
     pagecolor="#ffffff"
     bordercolor="#666666"
     borderopacity="1.0"
     inkscape:showpageshadow="2"
     inkscape:pageopacity="0.0"
     inkscape:pagecheckerboard="0"
     inkscape:deskcolor="#d1d1d1"
     inkscape:document-units="mm"
     showgrid="false"
     inkscape:zoom="1.7209638"
     inkscape:cx="229.52255"
     inkscape:cy="176.35467"
     inkscape:window-width="1600"
     inkscape:window-height="838"
     inkscape:window-x="-8"
     inkscape:window-y="-8"
     inkscape:window-maximized="1"
     inkscape:current-layer="layer1" /><defs
     id="defs15892" /><g
     inkscape:label="Слой 1"
     inkscape:groupmode="layer"
     id="layer1"
     transform="translate(-0.153,-20.23253)"><g
       id="g7600"
       transform="translate(-99.421036,-45.189937)"><path
         style="fill:#808080;stroke:none;stroke-width:0.264583px;stroke-linecap:butt;stroke-linejoin:miter;stroke-opacity:1"
         d="m 167.83764,88.09148 2.33287,0.827825 v -6.441403 l -2.27021,-2.545387 z"
         id="path3768" /><path
         style="font-variation-settings:normal;fill:#808080;fill-opacity:1;stroke:none;stroke-width:0.264583px;stroke-linecap:butt;stroke-linejoin:miter;stroke-miterlimit:4;stroke-dasharray:none;stroke-dashoffset:0;stroke-opacity:1;stop-color:#000000"
         d="m 170.17051,88.919305 2.27831,-0.984879 -0.0846,-6.327992 -2.1937,0.871468 z"
         id="path3770" /><path
         style="font-variation-settings:normal;fill:#808080;fill-opacity:1;stroke:none;stroke-width:0.264583px;stroke-linecap:butt;stroke-linejoin:miter;stroke-miterlimit:4;stroke-dasharray:none;stroke-dashoffset:0;stroke-opacity:1;stop-color:#000000"
         d="m 181.78453,83.898744 2.45332,-1.060532 -0.0384,-5.933435 -2.4642,0.978924 z"
         id="path3791" /><path
         id="path3803"
         style="font-variation-settings:normal;fill:#808080;fill-opacity:1;stroke:none;stroke-width:0.264583px;stroke-linecap:butt;stroke-linejoin:miter;stroke-miterlimit:4;stroke-dasharray:none;stroke-dashoffset:0;stroke-opacity:1;stop-color:#000000"
         d="m 179.92729,72.521318 -13.56197,5.690092 3.80546,4.266406 14.0286,-5.572786 z m -1.33946,1.808158 1.86397,2.267562 -8.99376,3.555339 -1.88309,-1.871721 z" /><path
         style="font-variation-settings:normal;fill:#808080;fill-opacity:1;stroke:none;stroke-width:0.264583px;stroke-linecap:butt;stroke-linejoin:miter;stroke-miterlimit:4;stroke-dasharray:none;stroke-dashoffset:0;stroke-opacity:1;stop-color:#000000"
         d="m 144.11135,79.672123 0.0192,-5.822963 2.01787,-0.0039 -0.061,6.528117 z"
         id="path3847" /><path
         id="path3859"
         style="font-variation-settings:normal;fill:#808080;fill-opacity:1;stroke:none;stroke-width:0.264583px;stroke-linecap:butt;stroke-linejoin:miter;stroke-miterlimit:4;stroke-dasharray:none;stroke-dashoffset:0;stroke-opacity:1;stop-color:#000000"
         d="m 156.60261,67.742798 -12.47211,6.106604 9.85883,-0.01964 13.49065,-5.995499 z m -0.0961,1.859318 4.65088,0.03824 -6.37997,2.998266 -4.86224,-0.05788 z" /><path
         style="font-variation-settings:normal;fill:#808080;fill-opacity:1;stroke:none;stroke-width:0.264583px;stroke-linecap:butt;stroke-linejoin:miter;stroke-miterlimit:4;stroke-dasharray:none;stroke-dashoffset:0;stroke-opacity:1;stop-color:#000000"
         d="m 157.37155,78.365322 2.71579,-1.108334 -2.58127,-3.358502 9.03231,-3.912071 2.96344,3.428445 2.0908,-0.853274 -4.11264,-4.727321 -13.49065,5.995498 z"
         id="path3903" /><path
         style="font-variation-settings:normal;fill:#808080;fill-opacity:1;stroke:none;stroke-width:0.264583px;stroke-linecap:butt;stroke-linejoin:miter;stroke-miterlimit:4;stroke-dasharray:none;stroke-dashoffset:0;stroke-opacity:1;stop-color:#000000"
         d="m 157.37155,78.365322 8.99377,-0.153913 13.56197,-5.690092 -8.33467,0.04027 -2.0908,0.853274 4.20167,0.08489 -8.09901,3.47877 -5.51714,0.278469 z"
         id="path3915" /><path
         style="fill:none;stroke:#ff0000;stroke-width:0.15;stroke-linecap:butt;stroke-linejoin:miter;stroke-dasharray:none;stroke-opacity:1"
         d="m 144.11135,79.672123 26.05916,9.247182 v -6.441403 l -3.80509,-4.266321 -8.99387,0.153741 -3.38231,-4.535371 -9.85867,0.01921 z"
         id="path1733"
         sodipodi:nodetypes="cccccccc" /><path
         style="font-variation-settings:normal;fill:none;fill-opacity:1;stroke:#ff0000;stroke-width:0.15;stroke-linecap:butt;stroke-linejoin:miter;stroke-miterlimit:4;stroke-dasharray:none;stroke-dashoffset:0;stroke-opacity:1;stop-color:#000000"
         d="m 170.17051,88.919305 14.06734,-6.081093 -0.0384,-5.933435 -14.02894,5.573125"
         id="path3603"
         sodipodi:nodetypes="cccc" /><path
         style="font-variation-settings:normal;fill:none;fill-opacity:1;stroke:#ff0000;stroke-width:0.15;stroke-linecap:butt;stroke-linejoin:miter;stroke-miterlimit:4;stroke-dasharray:none;stroke-dashoffset:0;stroke-opacity:1;stop-color:#000000"
         d="m 184.19945,76.904777 -4.27222,-4.383431 -13.56181,5.690235"
         id="path3720" /><path
         style="font-variation-settings:normal;fill:none;fill-opacity:1;stroke:#ff0000;stroke-width:0.15;stroke-linecap:butt;stroke-linejoin:miter;stroke-miterlimit:4;stroke-dasharray:none;stroke-dashoffset:0;stroke-opacity:1;stop-color:#000000"
         d="m 179.92723,72.521346 -8.33461,0.04024 -14.22107,5.803738"
         id="path3732" /><path
         style="font-variation-settings:normal;fill:none;fill-opacity:1;stroke:#ff0000;stroke-width:0.15;stroke-linecap:butt;stroke-linejoin:miter;stroke-miterlimit:4;stroke-dasharray:none;stroke-dashoffset:0;stroke-opacity:1;stop-color:#000000"
         d="m 171.59262,72.561586 -4.11258,-4.727548 -13.4908,5.995913"
         id="path3744" /><path
         style="font-variation-settings:normal;fill:none;fill-opacity:1;stroke:#ff0000;stroke-width:0.15;stroke-linecap:butt;stroke-linejoin:miter;stroke-miterlimit:4;stroke-dasharray:none;stroke-dashoffset:0;stroke-opacity:1;stop-color:#000000"
         d="m 167.48004,67.834038 -10.8772,-0.09105 -12.47227,6.106173"
         id="path3756" /></g><g
       id="g7724"
       transform="translate(-133.31234,-16.589242)"><path
         style="font-variation-settings:normal;opacity:1;fill:#808080;fill-opacity:1;stroke:none;stroke-width:0.264583px;stroke-linecap:butt;stroke-linejoin:miter;stroke-miterlimit:4;stroke-dasharray:none;stroke-dashoffset:0;stroke-opacity:1;stop-color:#000000;stop-opacity:1"
         d="m 238.00518,60.398246 2.62203,0.914101 0.075,-8.968706 -2.67886,-2.47937 z"
         id="path7626" /><path
         style="font-variation-settings:normal;opacity:1;fill:#808080;fill-opacity:1;stroke:none;stroke-width:0.264583px;stroke-linecap:butt;stroke-linejoin:miter;stroke-miterlimit:4;stroke-dasharray:none;stroke-dashoffset:0;stroke-opacity:1;stop-color:#000000;stop-opacity:1"
         d="m 240.62721,61.312347 0.075,-8.968706 1.36113,-0.595963 0.0719,8.933161 z"
         id="path7602" /><path
         style="font-variation-settings:normal;opacity:1;fill:#808080;fill-opacity:1;stroke:none;stroke-width:0.264583px;stroke-linecap:butt;stroke-linejoin:miter;stroke-miterlimit:4;stroke-dasharray:none;stroke-dashoffset:0;stroke-opacity:1;stop-color:#000000;stop-opacity:1"
         d="m 254.19719,55.629713 2.39545,-1.003128 v -9.240484 l -2.41705,1.058289 z"
         id="path7614" /><path
         style="font-variation-settings:normal;opacity:1;fill:#808080;fill-opacity:1;stroke:none;stroke-width:0.264583px;stroke-linecap:butt;stroke-linejoin:miter;stroke-miterlimit:4;stroke-dasharray:none;stroke-dashoffset:0;stroke-opacity:1;stop-color:#000000;stop-opacity:1"
         d="m 222.85286,55.115787 2.18262,0.760915 0.0852,-9.708063 -2.2135,0.0328 z"
         id="path7638" /><path
         id="path7662"
         style="font-variation-settings:normal;opacity:1;fill:#808080;fill-opacity:1;stroke:none;stroke-width:0.264583px;stroke-linecap:butt;stroke-linejoin:miter;stroke-miterlimit:4;stroke-dasharray:none;stroke-dashoffset:0;stroke-opacity:1;stop-color:#000000;stop-opacity:1"
         d="m 239.08261,39.218431 -16.17524,6.983036 c 0,0 8.3862,-0.104031 10.06347,0.435632 3.41627,1.099188 7.73131,5.706629 7.73131,5.706629 l 15.8905,-6.957715 c 0,0 -3.91435,-3.744092 -7.36337,-4.937683 -3.22709,-1.116786 -10.14667,-1.229899 -10.14667,-1.229899 z m 0.88367,1.345137 c 0,0 3.63229,0.230588 6.8032,0.922424 3.17092,0.691836 5.99602,3.785299 5.99602,3.785299 l -11.38432,4.93975 c 0,0 -2.02759,-1.729631 -4.48965,-3.45922 -2.46206,-1.729588 -7.34116,-1.883606 -7.34116,-1.883606 z"
         sodipodi:nodetypes="ccsccsccsccscc" /><path
         style="font-variation-settings:normal;fill:none;fill-opacity:1;stroke:#ff0000;stroke-width:0.15;stroke-linecap:butt;stroke-linejoin:miter;stroke-miterlimit:4;stroke-dasharray:none;stroke-dashoffset:0;stroke-opacity:1;stop-color:#000000"
         d="m 222.85286,55.115787 17.77435,6.19656 0.075,-8.968706 c 0,0 -5.34752,-5.544289 -8.66322,-5.92478 -3.3157,-0.38049 -9.13177,-0.217423 -9.13177,-0.217423 z"
         id="path7481"
         sodipodi:nodetypes="cccscc" /><path
         style="font-variation-settings:normal;fill:none;fill-opacity:1;stroke:#ff0000;stroke-width:0.15;stroke-linecap:butt;stroke-linejoin:miter;stroke-miterlimit:4;stroke-dasharray:none;stroke-dashoffset:0;stroke-opacity:1;stop-color:#000000"
         d="m 240.62721,61.312347 15.96543,-6.685762 v -9.240484 l -15.89043,6.95754"
         id="path7493"
         sodipodi:nodetypes="cccc" /><path
         style="font-variation-settings:normal;opacity:1;fill:none;fill-opacity:1;stroke:#ff0000;stroke-width:0.15;stroke-linecap:butt;stroke-linejoin:miter;stroke-miterlimit:4;stroke-dasharray:none;stroke-dashoffset:0;stroke-opacity:1;stop-color:#000000;stop-opacity:1"
         d="m 222.90722,46.201438 16.17522,-6.983142 c 0,0 6.45714,-0.07687 10.14694,1.229931 3.68979,1.306802 7.36326,4.937874 7.36326,4.937874"
         id="path7505" /></g><g
       id="g9339"
       transform="translate(-103.98692,-44.141629)"><path
         style="font-variation-settings:normal;opacity:1;fill:#808080;fill-opacity:1;stroke:none;stroke-width:0.264583px;stroke-linecap:butt;stroke-linejoin:miter;stroke-miterlimit:4;stroke-dasharray:none;stroke-dashoffset:0;stroke-opacity:1;stop-color:#000000;stop-opacity:1"
         d="m 105.46811,73.178824 16.94999,-7.671331 h 1.80646 l -17.71869,7.978814 z"
         id="path7828" /><path
         style="font-variation-settings:normal;opacity:1;fill:#808080;fill-opacity:1;stroke:none;stroke-width:0.264583px;stroke-linecap:butt;stroke-linejoin:miter;stroke-miterlimit:4;stroke-dasharray:none;stroke-dashoffset:0;stroke-opacity:1;stop-color:#000000;stop-opacity:1"
         d="m 105.27326,73.21726 v 11.338425 l 3.01687,1.027282 0.0222,-10.029583 -1.80646,-0.06844 v -1.998638 z"
         id="path7840" /><path
         style="font-variation-settings:normal;opacity:1;fill:#808080;fill-opacity:1;stroke:none;stroke-width:0.264583px;stroke-linecap:butt;stroke-linejoin:miter;stroke-miterlimit:4;stroke-dasharray:none;stroke-dashoffset:0;stroke-opacity:1;stop-color:#000000;stop-opacity:1"
         d="m 120.33249,89.683543 2.66214,0.906492 -0.15374,-10.838767 -2.45112,-1.180584 z"
         id="path7852" /><path
         style="font-variation-settings:normal;opacity:1;fill:#808080;fill-opacity:1;stroke:none;stroke-width:0.264583px;stroke-linecap:butt;stroke-linejoin:miter;stroke-miterlimit:4;stroke-dasharray:none;stroke-dashoffset:0;stroke-opacity:1;stop-color:#000000;stop-opacity:1"
         d="m 122.99463,90.590035 2.10141,-0.915554 -0.16043,-7.300002 0.73727,7.94e-4 -0.0353,-1.214074 -2.79666,-1.409823 z"
         id="path9213" /><path
         style="font-variation-settings:normal;opacity:1;fill:#808080;fill-opacity:1;stroke:none;stroke-width:0.264583px;stroke-linecap:butt;stroke-linejoin:miter;stroke-miterlimit:4;stroke-dasharray:none;stroke-dashoffset:0;stroke-opacity:1;stop-color:#000000;stop-opacity:1"
         d="m 139.09127,83.576973 2.42919,-1.05836 0.0769,-7.524524 -2.44448,1.133025 z"
         id="path9225" /><path
         id="path9237"
         style="font-variation-settings:normal;opacity:1;fill:#808080;fill-opacity:1;stroke:none;stroke-width:0.264583px;stroke-linecap:butt;stroke-linejoin:miter;stroke-miterlimit:4;stroke-dasharray:none;stroke-dashoffset:0;stroke-opacity:1;stop-color:#000000;stop-opacity:1"
         d="m 131.97002,68.061175 -17.50798,7.654313 11.17555,5.445663 17.33951,-7.674984 z m -0.19017,1.984375 7.55561,3.440617 -13.66273,6.017204 -7.12877,-3.719153 z" /><path
         id="path9281"
         style="font-variation-settings:normal;opacity:1;fill:#808080;fill-opacity:1;stroke:none;stroke-width:0.264583px;stroke-linecap:butt;stroke-linejoin:miter;stroke-miterlimit:4;stroke-dasharray:none;stroke-dashoffset:0;stroke-opacity:1;stop-color:#000000;stop-opacity:1"
         d="m 124.25524,67.528908 -17.7493,7.956103 7.9561,0.230477 17.50798,-7.654313 z m -0.60151,1.347721 3.66902,0.05426 -12.89068,5.680274 h -3.28042 z" /><path
         style="font-variation-settings:normal;opacity:1;fill:none;fill-opacity:1;stroke:#ff0000;stroke-width:0.15;stroke-linecap:butt;stroke-linejoin:miter;stroke-miterlimit:4;stroke-dasharray:none;stroke-dashoffset:0;stroke-opacity:1;stop-color:#000000;stop-opacity:1"
         d="m 105.27326,84.555685 c 0,-0.153741 0,-11.338425 0,-11.338425 l 17.14484,-7.709767 h 1.80646 l -17.71869,7.978814 -1.03776,-0.307483"
         id="path7735" /><path
         style="font-variation-settings:normal;opacity:1;fill:none;fill-opacity:1;stroke:#ff0000;stroke-width:0.15;stroke-linecap:butt;stroke-linejoin:miter;stroke-miterlimit:4;stroke-dasharray:none;stroke-dashoffset:0;stroke-opacity:1;stop-color:#000000;stop-opacity:1"
         d="m 105.27326,84.555685 17.72137,6.03435 -0.15374,-10.838767 -8.37891,-4.035711 -7.95611,-0.230612 v -1.998638"
         id="path7747" /><path
         style="font-variation-settings:normal;opacity:1;fill:none;fill-opacity:1;stroke:#ff0000;stroke-width:0.15;stroke-linecap:butt;stroke-linejoin:miter;stroke-miterlimit:4;stroke-dasharray:none;stroke-dashoffset:0;stroke-opacity:1;stop-color:#000000;stop-opacity:1"
         d="m 124.22456,65.507493 0.0308,2.021336 7.71465,0.532518 11.00705,5.42496 -17.3395,7.674784 -2.79666,-1.409823"
         id="path7759" /><path
         style="font-variation-settings:normal;opacity:1;fill:none;fill-opacity:1;stroke:#ff0000;stroke-width:0.15;stroke-linecap:butt;stroke-linejoin:miter;stroke-miterlimit:4;stroke-dasharray:none;stroke-dashoffset:0;stroke-opacity:1;stop-color:#000000;stop-opacity:1"
         d="m 106.50587,75.484945 17.74949,-7.956116"
         id="path7771" /><path
         style="font-variation-settings:normal;opacity:1;fill:none;fill-opacity:1;stroke:#ff0000;stroke-width:0.15;stroke-linecap:butt;stroke-linejoin:miter;stroke-miterlimit:4;stroke-dasharray:none;stroke-dashoffset:0;stroke-opacity:1;stop-color:#000000;stop-opacity:1"
         d="m 114.46198,75.715557 17.50803,-7.65421"
         id="path7783" /><path
         style="font-variation-settings:normal;opacity:1;fill:none;fill-opacity:1;stroke:#ff0000;stroke-width:0.15;stroke-linecap:butt;stroke-linejoin:miter;stroke-miterlimit:4;stroke-dasharray:none;stroke-dashoffset:0;stroke-opacity:1;stop-color:#000000;stop-opacity:1"
         d="m 122.99463,90.590035 18.52583,-8.071422 0.0769,-7.524524 1.38368,-0.546898 -0.004,-0.960884"
         id="path7795" /><path
         style="font-variation-settings:normal;opacity:1;fill:none;fill-opacity:1;stroke:#ff0000;stroke-width:0.15;stroke-linecap:round;stroke-linejoin:round;stroke-miterlimit:4;stroke-dasharray:none;stroke-dashoffset:0;stroke-opacity:1;stop-color:#000000;stop-opacity:1"
         d="m 141.59736,74.994089 -15.92448,7.381075 -0.0353,-1.214073"
         id="path7807"
         sodipodi:nodetypes="ccc" /></g></g></svg>
